<svg width="1080" height="330" viewBox="0 0 1080 330" fill="none" xmlns="http://www.w3.org/2000/svg">
<g clip-path="url(#clip0_3548_47577)">
<rect width="1440" height="746" transform="translate(-180 -90)" fill="white"/>
<rect x="793.043" y="314.291" width="31.8902" height="31.8902" rx="4" transform="rotate(-90 793.043 314.291)" fill="#F6F7FA"/>
<rect x="793.541" y="259.978" width="30.8937" height="30.8937" rx="4" transform="rotate(-90 793.541 259.978)" fill="#F7F8FB"/>
<rect x="794.04" y="205.665" width="29.8971" height="29.8971" rx="4" transform="rotate(-90 794.04 205.665)" fill="#F6F7FA"/>
<rect x="794.538" y="151.352" width="28.9005" height="28.9005" rx="4" transform="rotate(-90 794.538 151.352)" fill="#F6F7FA"/>
<rect x="795.036" y="97.0386" width="27.904" height="27.904" rx="4" transform="rotate(-90 795.036 97.0386)" fill="#FBFBFD"/>
<rect x="796.033" y="42.2273" width="25.9108" height="25.9108" rx="4" transform="rotate(-90 796.033 42.2273)" fill="white"/>
<rect x="685.413" y="314.291" width="31.8902" height="31.8902" rx="4" transform="rotate(-90 685.413 314.291)" fill="#FBFCFD"/>
<rect x="685.911" y="259.978" width="30.8937" height="30.8937" rx="4" transform="rotate(-90 685.911 259.978)" fill="white"/>
<rect x="686.41" y="205.665" width="29.8971" height="29.8971" rx="4" transform="rotate(-90 686.41 205.665)" fill="#FDFDFE"/>
<rect x="686.908" y="151.352" width="28.9005" height="28.9005" rx="4" transform="rotate(-90 686.908 151.352)" fill="#F7F8FB"/>
<rect x="687.407" y="97.0386" width="27.904" height="27.904" rx="4" transform="rotate(-90 687.407 97.0386)" fill="#F8F8FB"/>
<rect x="688.403" y="42.2273" width="25.9108" height="25.9108" rx="4" transform="rotate(-90 688.403 42.2273)" fill="#F6F7FA"/>
<rect x="631.599" y="314.291" width="31.8902" height="31.8902" rx="4" transform="rotate(-90 631.599 314.291)" fill="#FCFDFE"/>
<rect x="577.784" y="314.291" width="31.8902" height="31.8902" rx="4" transform="rotate(-90 577.784 314.291)" fill="#FEFEFF"/>
<rect x="578.282" y="259.978" width="30.8937" height="30.8937" rx="4" transform="rotate(-90 578.282 259.978)" fill="#F6F7FA"/>
<rect x="578.781" y="205.665" width="29.8971" height="29.8971" rx="4" transform="rotate(-90 578.781 205.665)" fill="#F8F9FB"/>
<rect x="579.279" y="151.352" width="28.9005" height="28.9005" rx="4" transform="rotate(-90 579.279 151.352)" fill="#F8F9FB"/>
<rect x="579.777" y="97.0386" width="27.904" height="27.904" rx="4" transform="rotate(-90 579.777 97.0386)" fill="white"/>
<rect x="580.774" y="42.2273" width="25.9108" height="25.9108" rx="4" transform="rotate(-90 580.774 42.2273)" fill="#FDFDFE"/>
<rect x="523.969" y="314.291" width="31.8902" height="31.8902" rx="4" transform="rotate(-90 523.969 314.291)" fill="#F8F9FB"/>
<rect x="524.467" y="259.978" width="30.8937" height="30.8937" rx="4" transform="rotate(-90 524.467 259.978)" fill="white"/>
<rect x="524.966" y="205.665" width="29.8971" height="29.8971" rx="4" transform="rotate(-90 524.966 205.665)" fill="#FBFCFD"/>
<rect x="525.464" y="151.352" width="28.9005" height="28.9005" rx="4" transform="rotate(-90 525.464 151.352)" fill="#FEFEFF"/>
<rect x="525.962" y="97.0386" width="27.904" height="27.904" rx="4" transform="rotate(-90 525.962 97.0386)" fill="#F7F8FA"/>
<rect x="470.154" y="314.291" width="31.8902" height="31.8902" rx="4" transform="rotate(-90 470.154 314.291)" fill="#F9FAFC"/>
<rect x="470.653" y="259.978" width="30.8937" height="30.8937" rx="4" transform="rotate(-90 470.653 259.978)" fill="#FCFDFE"/>
<rect x="471.151" y="205.665" width="29.8971" height="29.8971" rx="4" transform="rotate(-90 471.151 205.665)" fill="#F7F7FA"/>
<rect x="471.649" y="151.352" width="28.9005" height="28.9005" rx="4" transform="rotate(-90 471.649 151.352)" fill="#F8F9FB"/>
<rect x="472.147" y="97.0386" width="27.904" height="27.904" rx="4" transform="rotate(-90 472.147 97.0386)" fill="#F8F9FB"/>
<rect x="473.144" y="42.2273" width="25.9108" height="25.9108" rx="4" transform="rotate(-90 473.144 42.2273)" fill="#FDFEFE"/>
<rect x="362.525" y="314.291" width="31.8902" height="31.8902" rx="4" transform="rotate(-90 362.525 314.291)" fill="#FDFDFE"/>
<rect x="363.023" y="259.978" width="30.8937" height="30.8937" rx="4" transform="rotate(-90 363.023 259.978)" fill="#FCFCFD"/>
<rect x="363.521" y="205.665" width="29.8971" height="29.8971" rx="4" transform="rotate(-90 363.521 205.665)" fill="#FDFDFE"/>
<rect x="364.019" y="151.352" width="28.9005" height="28.9005" rx="4" transform="rotate(-90 364.019 151.352)" fill="#F8F9FB"/>
<rect x="364.518" y="97.0386" width="27.904" height="27.904" rx="4" transform="rotate(-90 364.518 97.0386)" fill="#FEFEFF"/>
<rect x="365.515" y="42.2273" width="25.9108" height="25.9108" rx="4" transform="rotate(-90 365.515 42.2273)" fill="#F6F7FA"/>
<rect x="308.71" y="314.291" width="31.8902" height="31.8902" rx="4" transform="rotate(-90 308.71 314.291)" fill="#FBFBFD"/>
<rect x="309.208" y="259.978" width="30.8937" height="30.8937" rx="4" transform="rotate(-90 309.208 259.978)" fill="#F9FAFC"/>
<rect x="309.706" y="205.665" width="29.8971" height="29.8971" rx="4" transform="rotate(-90 309.706 205.665)" fill="#FDFDFE"/>
<rect x="310.205" y="151.352" width="28.9005" height="28.9005" rx="4" transform="rotate(-90 310.205 151.352)" fill="#FBFCFD"/>
<rect x="254.895" y="314.291" width="31.8902" height="31.8902" rx="4" transform="rotate(-90 254.895 314.291)" fill="#F6F7FA"/>
<rect x="255.393" y="259.978" width="30.8937" height="30.8937" rx="4" transform="rotate(-90 255.393 259.978)" fill="#FDFDFE"/>
<rect x="255.892" y="205.665" width="29.8971" height="29.8971" rx="4" transform="rotate(-90 255.892 205.665)" fill="#FDFDFE"/>
<rect x="256.39" y="151.352" width="28.9005" height="28.9005" rx="4" transform="rotate(-90 256.39 151.352)" fill="#FEFFFF"/>
<rect x="256.888" y="97.0386" width="27.904" height="27.904" rx="4" transform="rotate(-90 256.888 97.0386)" fill="#FDFEFE"/>
<rect x="257.885" y="42.2273" width="25.9108" height="25.9108" rx="4" transform="rotate(-90 257.885 42.2273)" fill="#F7F8FB"/>
<rect x="201.08" y="314.291" width="31.8902" height="31.8902" rx="4" transform="rotate(-90 201.08 314.291)" fill="#FCFDFD"/>
<rect x="201.579" y="259.978" width="30.8937" height="30.8937" rx="4" transform="rotate(-90 201.579 259.978)" fill="#FDFDFE"/>
<rect x="202.077" y="205.665" width="29.8971" height="29.8971" rx="4" transform="rotate(-90 202.077 205.665)" fill="#F7F8FB"/>
<rect x="202.575" y="151.352" width="28.9005" height="28.9005" rx="4" transform="rotate(-90 202.575 151.352)" fill="#FBFBFD"/>
<rect x="203.073" y="97.0386" width="27.904" height="27.904" rx="4" transform="rotate(-90 203.073 97.0386)" fill="#FCFCFD"/>
<rect x="204.07" y="42.2273" width="25.9108" height="25.9108" rx="4" transform="rotate(-90 204.07 42.2273)" fill="#F7F8FB"/>
<rect x="93.4508" y="314.291" width="31.8902" height="31.8902" rx="4" transform="rotate(-90 93.4508 314.291)" fill="#F7F7FA"/>
<rect x="93.9489" y="259.978" width="30.8937" height="30.8937" rx="4" transform="rotate(-90 93.9489 259.978)" fill="#FAFBFC"/>
<rect x="94.4473" y="205.665" width="29.8971" height="29.8971" rx="4" transform="rotate(-90 94.4473 205.665)" fill="#FAFBFC"/>
<rect x="94.9454" y="151.352" width="28.9005" height="28.9005" rx="4" transform="rotate(-90 94.9454 151.352)" fill="#F9FAFC"/>
<rect x="95.4438" y="97.0386" width="27.904" height="27.904" rx="4" transform="rotate(-90 95.4438 97.0386)" fill="#FEFEFE"/>
<rect x="96.4404" y="42.2273" width="25.9108" height="25.9108" rx="4" transform="rotate(-90 96.4404 42.2273)" fill="#FBFBFD"/>
<rect x="39.6359" y="314.291" width="31.8902" height="31.8902" rx="4" transform="rotate(-90 39.6359 314.291)" fill="#FBFBFD"/>
<rect x="40.1342" y="259.978" width="30.8937" height="30.8937" rx="4" transform="rotate(-90 40.1342 259.978)" fill="#F7F8FA"/>
<rect x="40.6326" y="205.665" width="29.8971" height="29.8971" rx="4" transform="rotate(-90 40.6326 205.665)" fill="#FCFDFE"/>
<rect x="41.1308" y="151.352" width="28.9005" height="28.9005" rx="4" transform="rotate(-90 41.1308 151.352)" fill="#F9F9FC"/>
<rect x="41.6292" y="97.0386" width="27.904" height="27.904" rx="4" transform="rotate(-90 41.6292 97.0386)" fill="#FEFEFE"/>
<rect x="42.6256" y="42.2273" width="25.9108" height="25.9108" rx="4" transform="rotate(-90 42.6256 42.2273)" fill="#FEFFFF"/>
<rect x="846.858" y="314.291" width="31.8902" height="31.8902" rx="4" transform="rotate(-90 846.858 314.291)" fill="#F9FAFC"/>
<rect x="847.356" y="259.978" width="30.8937" height="30.8937" rx="4" transform="rotate(-90 847.356 259.978)" fill="white"/>
<rect x="847.854" y="205.665" width="29.8971" height="29.8971" rx="4" transform="rotate(-90 847.854 205.665)" fill="#F8F9FB"/>
<rect x="848.353" y="151.352" width="28.9005" height="28.9005" rx="4" transform="rotate(-90 848.353 151.352)" fill="#F8F9FB"/>
<rect x="848.851" y="97.0386" width="27.904" height="27.904" rx="4" transform="rotate(-90 848.851 97.0386)" fill="#F8F9FB"/>
<rect x="849.848" y="42.2273" width="25.9108" height="25.9108" rx="4" transform="rotate(-90 849.848 42.2273)" fill="#F9F9FC"/>
<rect x="900.673" y="314.291" width="31.8902" height="31.8902" rx="4" transform="rotate(-90 900.673 314.291)" fill="#FEFEFE"/>
<rect x="901.171" y="259.978" width="30.8937" height="30.8937" rx="4" transform="rotate(-90 901.171 259.978)" fill="#F6F7FA"/>
<rect x="901.669" y="205.665" width="29.8971" height="29.8971" rx="4" transform="rotate(-90 901.669 205.665)" fill="white"/>
<rect x="954.488" y="314.291" width="31.8902" height="31.8902" rx="4" transform="rotate(-90 954.488 314.291)" fill="#FCFCFD"/>
<rect x="954.986" y="259.978" width="30.8937" height="30.8937" rx="4" transform="rotate(-90 954.986 259.978)" fill="#FBFBFD"/>
<rect x="955.484" y="205.665" width="29.8971" height="29.8971" rx="4" transform="rotate(-90 955.484 205.665)" fill="#F8F8FB"/>
<rect x="955.982" y="151.352" width="28.9005" height="28.9005" rx="4" transform="rotate(-90 955.982 151.352)" fill="#FAFBFC"/>
<rect x="956.48" y="97.0386" width="27.904" height="27.904" rx="4" transform="rotate(-90 956.48 97.0386)" fill="#FCFCFD"/>
<rect x="957.477" y="42.2273" width="25.9108" height="25.9108" rx="4" transform="rotate(-90 957.477 42.2273)" fill="#FDFEFE"/>
<rect x="1062.12" y="314.291" width="31.8902" height="31.8902" rx="4" transform="rotate(-90 1062.12 314.291)" fill="#FBFBFD"/>
<rect x="1062.62" y="259.978" width="30.8937" height="30.8937" rx="4" transform="rotate(-90 1062.62 259.978)" fill="#FBFCFD"/>
<rect x="1063.11" y="205.665" width="29.8971" height="29.8971" rx="4" transform="rotate(-90 1063.11 205.665)" fill="#F8F9FB"/>
<rect x="1063.61" y="151.352" width="28.9005" height="28.9005" rx="4" transform="rotate(-90 1063.61 151.352)" fill="#FDFDFE"/>
<rect x="1064.11" y="97.0386" width="27.904" height="27.904" rx="4" transform="rotate(-90 1064.11 97.0386)" fill="#FBFCFD"/>
<rect x="1065.11" y="42.2273" width="25.9108" height="25.9108" rx="4" transform="rotate(-90 1065.11 42.2273)" fill="#FAFAFC"/>
</g>
<defs>
<clipPath id="clip0_3548_47577">
<rect width="1440" height="746" fill="white" transform="translate(-180 -90)"/>
</clipPath>
</defs>
</svg>
