<svg width="106" height="18" viewBox="0 0 106 18" fill="none" xmlns="http://www.w3.org/2000/svg">
    <path d="M20.5721 9L16.5098 6.75L21.3845 4.05L28.0872 7.7625V10.2375L21.3845 13.95L16.5098 11.25L20.5721 9Z" fill="#9DA9BB"/>
    <path d="M11.6351 11.25L7.57289 9L11.6351 6.75L6.76044 4.05L0.0577393 7.7625V10.2375L6.76044 13.95L11.6351 11.25Z" fill="#9DA9BB"/>
    <path d="M14.0725 13.5L18.1347 15.75L14.0725 18L10.0102 15.75L14.0725 13.5Z" fill="#9DA9BB"/>
    <path d="M18.1347 2.25L14.0725 0L10.0102 2.25L14.0725 4.5L18.1347 2.25Z" fill="#9DA9BB"/>
    <path d="M40.3587 12.7081C39.5558 12.7081 38.8316 12.5425 38.1862 12.2113C37.5408 11.8729 37.0343 11.4085 36.6666 10.8181C36.2988 10.2205 36.115 9.55453 36.115 8.82013C36.115 8.08573 36.2988 7.42333 36.6666 6.83293C37.0343 6.23533 37.5408 5.77093 38.1862 5.43973C38.8316 5.10133 39.5558 4.93213 40.3587 4.93213C41.1617 4.93213 41.8859 5.10133 42.5313 5.43973C43.1767 5.77093 43.6832 6.23173 44.0509 6.82213C44.4186 7.41253 44.6025 8.07853 44.6025 8.82013C44.6025 9.56173 44.4186 10.2277 44.0509 10.8181C43.6832 11.4085 43.1767 11.8729 42.5313 12.2113C41.8859 12.5425 41.1617 12.7081 40.3587 12.7081ZM40.3587 11.4769C40.8841 11.4769 41.3568 11.3653 41.7771 11.1421C42.1973 10.9117 42.5275 10.5949 42.7677 10.1917C43.0078 9.78133 43.1279 9.32413 43.1279 8.82013C43.1279 8.31613 43.0078 7.86253 42.7677 7.45933C42.5275 7.04893 42.1973 6.73213 41.7771 6.50893C41.3568 6.27853 40.8841 6.16333 40.3587 6.16333C39.8334 6.16333 39.3607 6.27853 38.9404 6.50893C38.5202 6.73213 38.19 7.04893 37.9498 7.45933C37.7097 7.86253 37.5896 8.31613 37.5896 8.82013C37.5896 9.32413 37.7097 9.78133 37.9498 10.1917C38.19 10.5949 38.5202 10.9117 38.9404 11.1421C39.3607 11.3653 39.8334 11.4769 40.3587 11.4769Z" fill="#9DA9BB"/>
    <path d="M49.1254 6.76813C49.7107 6.76813 50.2323 6.89053 50.69 7.13533C51.1553 7.38013 51.5193 7.72573 51.7819 8.17213C52.0446 8.61853 52.1759 9.13333 52.1759 9.71653C52.1759 10.2997 52.0446 10.8181 51.7819 11.2717C51.5193 11.7181 51.1553 12.0637 50.69 12.3085C50.2323 12.5533 49.7107 12.6757 49.1254 12.6757C48.3149 12.6757 47.6733 12.4165 47.2005 11.8981V14.6953H45.7934V6.83293H47.133V7.58893C47.3656 7.31533 47.6508 7.11013 47.9885 6.97333C48.3337 6.83653 48.7126 6.76813 49.1254 6.76813ZM48.9678 11.5201C49.4856 11.5201 49.9096 11.3545 50.2398 11.0233C50.5775 10.6921 50.7463 10.2565 50.7463 9.71653C50.7463 9.17653 50.5775 8.74093 50.2398 8.40973C49.9096 8.07853 49.4856 7.91293 48.9678 7.91293C48.6301 7.91293 48.3262 7.98853 48.056 8.13973C47.7858 8.28373 47.572 8.49253 47.4144 8.76613C47.2568 9.03973 47.178 9.35653 47.178 9.71653C47.178 10.0765 47.2568 10.3933 47.4144 10.6669C47.572 10.9405 47.7858 11.1529 48.056 11.3041C48.3262 11.4481 48.6301 11.5201 48.9678 11.5201Z" fill="#9DA9BB"/>
    <path d="M58.9361 9.74893C58.9361 9.84253 58.9286 9.97573 58.9135 10.1485H54.197C54.2796 10.5733 54.4934 10.9117 54.8386 11.1637C55.1914 11.4085 55.6266 11.5309 56.1444 11.5309C56.8048 11.5309 57.3489 11.3221 57.7766 10.9045L58.5308 11.7361C58.2607 12.0457 57.9192 12.2797 57.5065 12.4381C57.0937 12.5965 56.6285 12.6757 56.1106 12.6757C55.4503 12.6757 54.8687 12.5497 54.3659 12.2977C53.8631 12.0457 53.4728 11.6965 53.1952 11.2501C52.925 10.7965 52.7899 10.2853 52.7899 9.71653C52.7899 9.15493 52.9213 8.65093 53.1839 8.20453C53.4541 7.75093 53.8255 7.39813 54.2983 7.14613C54.7711 6.89413 55.3039 6.76813 55.8968 6.76813C56.4821 6.76813 57.0037 6.89413 57.4614 7.14613C57.9267 7.39093 58.2869 7.74013 58.5421 8.19373C58.8047 8.64013 58.9361 9.15853 58.9361 9.74893ZM55.8968 7.84813C55.4465 7.84813 55.0638 7.97773 54.7486 8.23693C54.4409 8.48893 54.2533 8.82733 54.1858 9.25213H57.5965C57.5365 8.83453 57.3526 8.49613 57.0449 8.23693C56.7373 7.97773 56.3545 7.84813 55.8968 7.84813Z" fill="#9DA9BB"/>
    <path d="M63.4733 6.76813C64.2312 6.76813 64.8391 6.98053 65.2969 7.40533C65.7546 7.83013 65.9835 8.46013 65.9835 9.29533V12.6001H64.5764V9.46813C64.5764 8.96413 64.4526 8.58613 64.205 8.33413C63.9573 8.07493 63.6046 7.94533 63.1468 7.94533C62.629 7.94533 62.22 8.09653 61.9199 8.39893C61.6197 8.69413 61.4696 9.12253 61.4696 9.68413V12.6001H60.0625V6.83293H61.4021V7.57813C61.6347 7.31173 61.9274 7.11013 62.2801 6.97333C62.6328 6.83653 63.0305 6.76813 63.4733 6.76813Z" fill="#9DA9BB"/>
    <path d="M70.1211 12.7081C69.5133 12.7081 68.9242 12.6253 68.3538 12.4597C67.791 12.2941 67.3445 12.0745 67.0143 11.8009L67.5208 10.7101C67.8435 10.9549 68.2375 11.1565 68.7028 11.3149C69.1756 11.4661 69.6483 11.5417 70.1211 11.5417C70.7065 11.5417 71.1417 11.4517 71.4269 11.2717C71.7196 11.0917 71.8659 10.8541 71.8659 10.5589C71.8659 10.3429 71.7833 10.1665 71.6182 10.0297C71.4607 9.88573 71.258 9.77413 71.0104 9.69493C70.7627 9.61573 70.425 9.52573 69.9973 9.42493C69.3969 9.28813 68.9091 9.15133 68.5339 9.01453C68.1662 8.87773 67.8473 8.66533 67.5771 8.37733C67.3145 8.08213 67.1831 7.68613 67.1831 7.18933C67.1831 6.77173 67.2994 6.39373 67.5321 6.05533C67.7722 5.70973 68.1287 5.43613 68.6015 5.23453C69.0817 5.03293 69.6671 4.93213 70.3575 4.93213C70.8378 4.93213 71.3106 4.98973 71.7758 5.10493C72.2411 5.22013 72.6426 5.38573 72.9803 5.60173L72.5188 6.69253C72.1736 6.49813 71.8134 6.35053 71.4381 6.24973C71.0629 6.14893 70.699 6.09853 70.3462 6.09853C69.7684 6.09853 69.3369 6.19213 69.0517 6.37933C68.7741 6.56653 68.6352 6.81493 68.6352 7.12453C68.6352 7.34053 68.714 7.51693 68.8716 7.65373C69.0367 7.79053 69.2431 7.89853 69.4907 7.97773C69.7384 8.05693 70.0761 8.14693 70.5038 8.24773C71.0892 8.37733 71.5695 8.51413 71.9447 8.65813C72.3199 8.79493 72.6388 9.00733 72.9015 9.29533C73.1717 9.58333 73.3067 9.97213 73.3067 10.4617C73.3067 10.8793 73.1867 11.2573 72.9465 11.5957C72.7139 11.9341 72.3574 12.2041 71.8771 12.4057C71.3969 12.6073 70.8115 12.7081 70.1211 12.7081Z" fill="#9DA9BB"/>
    <path d="M80.2735 6.83293V14.6953H78.8665V11.8981C78.3937 12.4165 77.7521 12.6757 76.9416 12.6757C76.3562 12.6757 75.8309 12.5533 75.3656 12.3085C74.9079 12.0637 74.5477 11.7181 74.285 11.2717C74.0299 10.8253 73.9023 10.3069 73.9023 9.71653C73.9023 9.13333 74.0336 8.61853 74.2963 8.17213C74.5589 7.72573 74.9191 7.38013 75.3769 7.13533C75.8347 6.89053 76.3562 6.76813 76.9416 6.76813C77.3543 6.76813 77.7295 6.83653 78.0672 6.97333C78.4124 7.11013 78.7014 7.31533 78.934 7.58893V6.83293H80.2735ZM77.0992 11.5201C77.617 11.5201 78.0447 11.3545 78.3824 11.0233C78.7201 10.6921 78.889 10.2565 78.889 9.71653C78.889 9.17653 78.7201 8.74093 78.3824 8.40973C78.0447 8.07853 77.617 7.91293 77.0992 7.91293C76.5814 7.91293 76.1536 8.07853 75.8159 8.40973C75.4857 8.74093 75.3206 9.17653 75.3206 9.71653C75.3206 10.2565 75.4857 10.6921 75.8159 11.0233C76.1536 11.3545 76.5814 11.5201 77.0992 11.5201Z" fill="#9DA9BB"/>
    <path d="M87.7091 6.83293V12.6001H86.3695V11.8657C86.1444 12.1249 85.863 12.3265 85.5253 12.4705C85.1876 12.6073 84.8236 12.6757 84.4334 12.6757C83.6304 12.6757 82.9963 12.4633 82.531 12.0385C82.0733 11.6065 81.8444 10.9693 81.8444 10.1269V6.83293H83.2515V9.94333C83.2515 10.4617 83.3715 10.8505 83.6117 11.1097C83.8593 11.3617 84.2083 11.4877 84.6585 11.4877C85.1613 11.4877 85.5591 11.3401 85.8517 11.0449C86.1519 10.7425 86.302 10.3105 86.302 9.74893V6.83293H87.7091Z" fill="#9DA9BB"/>
    <path d="M91.6226 6.76813C92.5081 6.76813 93.1835 6.97333 93.6488 7.38373C94.1216 7.78693 94.358 8.39893 94.358 9.21973V12.6001H93.0297V11.8981C92.8571 12.1501 92.6094 12.3445 92.2867 12.4813C91.9716 12.6109 91.5888 12.6757 91.1386 12.6757C90.6883 12.6757 90.2943 12.6037 89.9566 12.4597C89.6189 12.3085 89.3563 12.1033 89.1687 11.8441C88.9886 11.5777 88.8985 11.2789 88.8985 10.9477C88.8985 10.4293 89.0974 10.0153 89.4951 9.70573C89.9003 9.38893 90.5345 9.23053 91.3975 9.23053H92.9509V9.14413C92.9509 8.74093 92.8233 8.43133 92.5682 8.21533C92.3205 7.99933 91.949 7.89133 91.4538 7.89133C91.1161 7.89133 90.7821 7.94173 90.4519 8.04253C90.1292 8.14333 89.8553 8.28373 89.6302 8.46373L89.0786 7.48093C89.3938 7.25053 89.7728 7.07413 90.2155 6.95173C90.6583 6.82933 91.1273 6.76813 91.6226 6.76813ZM91.4312 11.6929C91.784 11.6929 92.0954 11.6173 92.3655 11.4661C92.6432 11.3077 92.8383 11.0845 92.9509 10.7965V10.1269H91.4988C90.6883 10.1269 90.2831 10.3825 90.2831 10.8937C90.2831 11.1385 90.3844 11.3329 90.587 11.4769C90.7896 11.6209 91.071 11.6929 91.4312 11.6929Z" fill="#9DA9BB"/>
    <path d="M97.2782 7.67533C97.6834 7.07053 98.3963 6.76813 99.417 6.76813V8.05333C99.2969 8.03173 99.1881 8.02093 99.0905 8.02093C98.5427 8.02093 98.1149 8.17573 97.8072 8.48533C97.4996 8.78773 97.3457 9.22693 97.3457 9.80293V12.6001H95.9386V6.83293H97.2782V7.67533Z" fill="#9DA9BB"/>
    <path d="M105.981 9.74893C105.981 9.84253 105.974 9.97573 105.959 10.1485H101.242C101.325 10.5733 101.539 10.9117 101.884 11.1637C102.237 11.4085 102.672 11.5309 103.19 11.5309C103.85 11.5309 104.394 11.3221 104.822 10.9045L105.576 11.7361C105.306 12.0457 104.964 12.2797 104.552 12.4381C104.139 12.5965 103.674 12.6757 103.156 12.6757C102.496 12.6757 101.914 12.5497 101.411 12.2977C100.908 12.0457 100.518 11.6965 100.24 11.2501C99.9703 10.7965 99.8352 10.2853 99.8352 9.71653C99.8352 9.15493 99.9665 8.65093 100.229 8.20453C100.499 7.75093 100.871 7.39813 101.344 7.14613C101.816 6.89413 102.349 6.76813 102.942 6.76813C103.527 6.76813 104.049 6.89413 104.507 7.14613C104.972 7.39093 105.332 7.74013 105.587 8.19373C105.85 8.64013 105.981 9.15853 105.981 9.74893ZM102.942 7.84813C102.492 7.84813 102.109 7.97773 101.794 8.23693C101.486 8.48893 101.299 8.82733 101.231 9.25213H104.642C104.582 8.83453 104.398 8.49613 104.09 8.23693C103.783 7.97773 103.4 7.84813 102.942 7.84813Z" fill="#9DA9BB"/>
</svg>
