<svg width="1440" height="746" viewBox="0 0 1440 746" fill="none" xmlns="http://www.w3.org/2000/svg">
<g clip-path="url(#clip0_3531_42537)">
<rect width="1440" height="746" fill="white"/>
<rect x="970.053" y="730.169" width="37.8697" height="37.8697" rx="4" transform="rotate(-90 970.053 730.169)" fill="#FCFCFD"/>
<rect x="970.552" y="675.856" width="36.8731" height="36.8731" rx="4" transform="rotate(-90 970.552 675.856)" fill="#F7F8FB"/>
<rect x="971.05" y="621.543" width="35.8765" height="35.8765" rx="4" transform="rotate(-90 971.05 621.543)" fill="#FBFBFD"/>
<rect x="971.548" y="567.23" width="34.88" height="34.88" rx="4" transform="rotate(-90 971.548 567.23)" fill="#F8F9FB"/>
<rect x="972.046" y="512.917" width="33.8834" height="33.8834" rx="4" transform="rotate(-90 972.046 512.917)" fill="#FCFDFE"/>
<rect x="972.545" y="458.604" width="32.8868" height="32.8868" rx="4" transform="rotate(-90 972.545 458.604)" fill="#F6F7FA"/>
<rect x="973.043" y="404.291" width="31.8902" height="31.8902" rx="4" transform="rotate(-90 973.043 404.291)" fill="#F6F7FA"/>
<rect x="973.541" y="349.978" width="30.8937" height="30.8937" rx="4" transform="rotate(-90 973.541 349.978)" fill="#F7F8FB"/>
<rect x="974.04" y="295.665" width="29.8971" height="29.8971" rx="4" transform="rotate(-90 974.04 295.665)" fill="#F6F7FA"/>
<rect x="974.538" y="241.352" width="28.9005" height="28.9005" rx="4" transform="rotate(-90 974.538 241.352)" fill="#F6F7FA"/>
<rect x="975.036" y="187.039" width="27.904" height="27.904" rx="4" transform="rotate(-90 975.036 187.039)" fill="#FBFBFD"/>
<rect x="976.033" y="132.227" width="25.9108" height="25.9108" rx="4" transform="rotate(-90 976.033 132.227)" fill="white"/>
<rect x="976.531" y="77.9142" width="24.9143" height="24.9143" rx="4" transform="rotate(-90 976.531 77.9142)" fill="#FDFDFE"/>
<rect x="916.239" y="730.169" width="37.8697" height="37.8697" rx="4" transform="rotate(-90 916.239 730.169)" fill="#FCFDFE"/>
<rect x="916.737" y="675.856" width="36.8731" height="36.8731" rx="4" transform="rotate(-90 916.737 675.856)" fill="#F8F9FB"/>
<rect x="917.235" y="621.543" width="35.8765" height="35.8765" rx="4" transform="rotate(-90 917.235 621.543)" fill="#FCFCFD"/>
<rect x="917.733" y="567.23" width="34.88" height="34.88" rx="4" transform="rotate(-90 917.733 567.23)" fill="#FDFDFE"/>
<rect x="918.232" y="512.917" width="33.8834" height="33.8834" rx="4" transform="rotate(-90 918.232 512.917)" fill="#FEFEFF"/>
<rect x="862.424" y="730.169" width="37.8697" height="37.8697" rx="4" transform="rotate(-90 862.424 730.169)" fill="#FDFDFE"/>
<rect x="862.922" y="675.856" width="36.8731" height="36.8731" rx="4" transform="rotate(-90 862.922 675.856)" fill="#FEFEFF"/>
<rect x="863.42" y="621.543" width="35.8765" height="35.8765" rx="4" transform="rotate(-90 863.42 621.543)" fill="#FDFEFE"/>
<rect x="863.919" y="567.23" width="34.88" height="34.88" rx="4" transform="rotate(-90 863.919 567.23)" fill="#FCFDFD"/>
<rect x="864.417" y="512.917" width="33.8834" height="33.8834" rx="4" transform="rotate(-90 864.417 512.917)" fill="#FDFDFE"/>
<rect x="864.915" y="458.604" width="32.8868" height="32.8868" rx="4" transform="rotate(-90 864.915 458.604)" fill="#F7F8FA"/>
<rect x="865.413" y="404.291" width="31.8902" height="31.8902" rx="4" transform="rotate(-90 865.413 404.291)" fill="#FBFCFD"/>
<rect x="865.911" y="349.978" width="30.8937" height="30.8937" rx="4" transform="rotate(-90 865.911 349.978)" fill="white"/>
<rect x="866.41" y="295.665" width="29.8971" height="29.8971" rx="4" transform="rotate(-90 866.41 295.665)" fill="#FDFDFE"/>
<rect x="866.908" y="241.352" width="28.9005" height="28.9005" rx="4" transform="rotate(-90 866.908 241.352)" fill="#F7F8FB"/>
<rect x="867.407" y="187.039" width="27.904" height="27.904" rx="4" transform="rotate(-90 867.407 187.039)" fill="#F8F8FB"/>
<rect x="868.403" y="132.227" width="25.9108" height="25.9108" rx="4" transform="rotate(-90 868.403 132.227)" fill="#F6F7FA"/>
<rect x="868.902" y="77.9142" width="24.9143" height="24.9143" rx="4" transform="rotate(-90 868.902 77.9142)" fill="#FDFEFE"/>
<rect x="808.609" y="730.169" width="37.8697" height="37.8697" rx="4" transform="rotate(-90 808.609 730.169)" fill="#FBFCFD"/>
<rect x="809.107" y="675.856" width="36.8731" height="36.8731" rx="4" transform="rotate(-90 809.107 675.856)" fill="#F7F8FA"/>
<rect x="809.606" y="621.543" width="35.8765" height="35.8765" rx="4" transform="rotate(-90 809.606 621.543)" fill="#F7F8FA"/>
<rect x="810.104" y="567.23" width="34.88" height="34.88" rx="4" transform="rotate(-90 810.104 567.23)" fill="#F9FAFC"/>
<rect x="810.602" y="512.917" width="33.8834" height="33.8834" rx="4" transform="rotate(-90 810.602 512.917)" fill="#F7F8FB"/>
<rect x="811.101" y="458.604" width="32.8868" height="32.8868" rx="4" transform="rotate(-90 811.101 458.604)" fill="#FAFAFC"/>
<rect x="811.599" y="404.291" width="31.8902" height="31.8902" rx="4" transform="rotate(-90 811.599 404.291)" fill="#FCFDFE"/>
<rect x="754.794" y="730.169" width="37.8697" height="37.8697" rx="4" transform="rotate(-90 754.794 730.169)" fill="#F8F9FB"/>
<rect x="755.292" y="675.856" width="36.8731" height="36.8731" rx="4" transform="rotate(-90 755.292 675.856)" fill="#FAFBFC"/>
<rect x="755.791" y="621.543" width="35.8765" height="35.8765" rx="4" transform="rotate(-90 755.791 621.543)" fill="#F9FAFC"/>
<rect x="756.289" y="567.23" width="34.88" height="34.88" rx="4" transform="rotate(-90 756.289 567.23)" fill="#F8F8FB"/>
<rect x="756.787" y="512.917" width="33.8834" height="33.8834" rx="4" transform="rotate(-90 756.787 512.917)" fill="#FAFAFC"/>
<rect x="757.286" y="458.604" width="32.8868" height="32.8868" rx="4" transform="rotate(-90 757.286 458.604)" fill="white"/>
<rect x="757.784" y="404.291" width="31.8902" height="31.8902" rx="4" transform="rotate(-90 757.784 404.291)" fill="#FEFEFF"/>
<rect x="758.282" y="349.978" width="30.8937" height="30.8937" rx="4" transform="rotate(-90 758.282 349.978)" fill="#F6F7FA"/>
<rect x="758.781" y="295.665" width="29.8971" height="29.8971" rx="4" transform="rotate(-90 758.781 295.665)" fill="#F8F9FB"/>
<rect x="759.279" y="241.352" width="28.9005" height="28.9005" rx="4" transform="rotate(-90 759.279 241.352)" fill="#F8F9FB"/>
<rect x="759.777" y="187.039" width="27.904" height="27.904" rx="4" transform="rotate(-90 759.777 187.039)" fill="white"/>
<rect x="760.774" y="132.227" width="25.9108" height="25.9108" rx="4" transform="rotate(-90 760.774 132.227)" fill="#FDFDFE"/>
<rect x="761.272" y="77.9142" width="24.9143" height="24.9143" rx="4" transform="rotate(-90 761.272 77.9142)" fill="#FBFCFD"/>
<rect x="700.979" y="730.169" width="37.8697" height="37.8697" rx="4" transform="rotate(-90 700.979 730.169)" fill="#FDFDFE"/>
<rect x="701.478" y="675.856" width="36.8731" height="36.8731" rx="4" transform="rotate(-90 701.478 675.856)" fill="#FCFDFE"/>
<rect x="701.976" y="621.543" width="35.8765" height="35.8765" rx="4" transform="rotate(-90 701.976 621.543)" fill="#FBFBFD"/>
<rect x="702.474" y="567.23" width="34.88" height="34.88" rx="4" transform="rotate(-90 702.474 567.23)" fill="#F7F8FB"/>
<rect x="702.973" y="512.917" width="33.8834" height="33.8834" rx="4" transform="rotate(-90 702.973 512.917)" fill="#FAFAFC"/>
<rect x="703.471" y="458.604" width="32.8868" height="32.8868" rx="4" transform="rotate(-90 703.471 458.604)" fill="#FCFDFE"/>
<rect x="703.969" y="404.291" width="31.8902" height="31.8902" rx="4" transform="rotate(-90 703.969 404.291)" fill="#F8F9FB"/>
<rect x="704.467" y="349.978" width="30.8937" height="30.8937" rx="4" transform="rotate(-90 704.467 349.978)" fill="white"/>
<rect x="704.966" y="295.665" width="29.8971" height="29.8971" rx="4" transform="rotate(-90 704.966 295.665)" fill="#FBFCFD"/>
<rect x="705.464" y="241.352" width="28.9005" height="28.9005" rx="4" transform="rotate(-90 705.464 241.352)" fill="#FEFEFF"/>
<rect x="705.962" y="187.039" width="27.904" height="27.904" rx="4" transform="rotate(-90 705.962 187.039)" fill="#F7F8FA"/>
<rect x="647.165" y="730.169" width="37.8697" height="37.8697" rx="4" transform="rotate(-90 647.165 730.169)" fill="#FAFBFC"/>
<rect x="647.663" y="675.856" width="36.8731" height="36.8731" rx="4" transform="rotate(-90 647.663 675.856)" fill="#FEFEFF"/>
<rect x="648.161" y="621.543" width="35.8765" height="35.8765" rx="4" transform="rotate(-90 648.161 621.543)" fill="#F8F9FB"/>
<rect x="648.659" y="567.23" width="34.88" height="34.88" rx="4" transform="rotate(-90 648.659 567.23)" fill="#F8F9FB"/>
<rect x="649.158" y="512.917" width="33.8834" height="33.8834" rx="4" transform="rotate(-90 649.158 512.917)" fill="#FEFEFF"/>
<rect x="649.656" y="458.604" width="32.8868" height="32.8868" rx="4" transform="rotate(-90 649.656 458.604)" fill="#F9FAFC"/>
<rect x="650.154" y="404.291" width="31.8902" height="31.8902" rx="4" transform="rotate(-90 650.154 404.291)" fill="#F9FAFC"/>
<rect x="650.653" y="349.978" width="30.8937" height="30.8937" rx="4" transform="rotate(-90 650.653 349.978)" fill="#FCFDFE"/>
<rect x="651.151" y="295.665" width="29.8971" height="29.8971" rx="4" transform="rotate(-90 651.151 295.665)" fill="#F7F7FA"/>
<rect x="651.649" y="241.352" width="28.9005" height="28.9005" rx="4" transform="rotate(-90 651.649 241.352)" fill="#F8F9FB"/>
<rect x="652.147" y="187.039" width="27.904" height="27.904" rx="4" transform="rotate(-90 652.147 187.039)" fill="#F8F9FB"/>
<rect x="653.144" y="132.227" width="25.9108" height="25.9108" rx="4" transform="rotate(-90 653.144 132.227)" fill="#FDFEFE"/>
<rect x="653.642" y="77.9142" width="24.9143" height="24.9143" rx="4" transform="rotate(-90 653.642 77.9142)" fill="#FBFBFD"/>
<rect x="593.35" y="730.169" width="37.8697" height="37.8697" rx="4" transform="rotate(-90 593.35 730.169)" fill="#F9FAFC"/>
<rect x="593.848" y="675.856" width="36.8731" height="36.8731" rx="4" transform="rotate(-90 593.848 675.856)" fill="white"/>
<rect x="594.346" y="621.543" width="35.8765" height="35.8765" rx="4" transform="rotate(-90 594.346 621.543)" fill="#FDFEFE"/>
<rect x="594.845" y="567.23" width="34.88" height="34.88" rx="4" transform="rotate(-90 594.845 567.23)" fill="white"/>
<rect x="595.343" y="512.917" width="33.8834" height="33.8834" rx="4" transform="rotate(-90 595.343 512.917)" fill="#F8F9FB"/>
<rect x="595.841" y="458.604" width="32.8868" height="32.8868" rx="4" transform="rotate(-90 595.841 458.604)" fill="#F9F9FB"/>
<rect x="539.535" y="730.169" width="37.8697" height="37.8697" rx="4" transform="rotate(-90 539.535 730.169)" fill="#FDFDFE"/>
<rect x="540.033" y="675.856" width="36.8731" height="36.8731" rx="4" transform="rotate(-90 540.033 675.856)" fill="#FEFEFE"/>
<rect x="540.531" y="621.543" width="35.8765" height="35.8765" rx="4" transform="rotate(-90 540.531 621.543)" fill="#F6F7FA"/>
<rect x="541.03" y="567.23" width="34.88" height="34.88" rx="4" transform="rotate(-90 541.03 567.23)" fill="#F7F8FB"/>
<rect x="541.528" y="512.917" width="33.8834" height="33.8834" rx="4" transform="rotate(-90 541.528 512.917)" fill="#F7F8FB"/>
<rect x="542.026" y="458.604" width="32.8868" height="32.8868" rx="4" transform="rotate(-90 542.026 458.604)" fill="#FCFCFD"/>
<rect x="542.525" y="404.291" width="31.8902" height="31.8902" rx="4" transform="rotate(-90 542.525 404.291)" fill="#FDFDFE"/>
<rect x="543.023" y="349.978" width="30.8937" height="30.8937" rx="4" transform="rotate(-90 543.023 349.978)" fill="#FCFCFD"/>
<rect x="543.521" y="295.665" width="29.8971" height="29.8971" rx="4" transform="rotate(-90 543.521 295.665)" fill="#FDFDFE"/>
<rect x="544.019" y="241.352" width="28.9005" height="28.9005" rx="4" transform="rotate(-90 544.019 241.352)" fill="#F8F9FB"/>
<rect x="544.518" y="187.039" width="27.904" height="27.904" rx="4" transform="rotate(-90 544.518 187.039)" fill="#FEFEFF"/>
<rect x="545.515" y="132.227" width="25.9108" height="25.9108" rx="4" transform="rotate(-90 545.515 132.227)" fill="#F6F7FA"/>
<rect x="546.013" y="77.9142" width="24.9143" height="24.9143" rx="4" transform="rotate(-90 546.013 77.9142)" fill="#FAFBFC"/>
<rect x="485.72" y="730.169" width="37.8697" height="37.8697" rx="4" transform="rotate(-90 485.72 730.169)" fill="#F7F8FB"/>
<rect x="486.218" y="675.856" width="36.8731" height="36.8731" rx="4" transform="rotate(-90 486.218 675.856)" fill="#F8F9FB"/>
<rect x="486.717" y="621.543" width="35.8765" height="35.8765" rx="4" transform="rotate(-90 486.717 621.543)" fill="#FAFBFC"/>
<rect x="487.215" y="567.23" width="34.88" height="34.88" rx="4" transform="rotate(-90 487.215 567.23)" fill="#F7F8FA"/>
<rect x="487.713" y="512.917" width="33.8834" height="33.8834" rx="4" transform="rotate(-90 487.713 512.917)" fill="#FBFBFD"/>
<rect x="488.212" y="458.604" width="32.8868" height="32.8868" rx="4" transform="rotate(-90 488.212 458.604)" fill="#FCFCFD"/>
<rect x="488.71" y="404.291" width="31.8902" height="31.8902" rx="4" transform="rotate(-90 488.71 404.291)" fill="#FBFBFD"/>
<rect x="489.208" y="349.978" width="30.8937" height="30.8937" rx="4" transform="rotate(-90 489.208 349.978)" fill="#F9FAFC"/>
<rect x="489.706" y="295.665" width="29.8971" height="29.8971" rx="4" transform="rotate(-90 489.706 295.665)" fill="#FDFDFE"/>
<rect x="490.205" y="241.352" width="28.9005" height="28.9005" rx="4" transform="rotate(-90 490.205 241.352)" fill="#FBFCFD"/>
<rect x="431.905" y="730.169" width="37.8697" height="37.8697" rx="4" transform="rotate(-90 431.905 730.169)" fill="#FDFDFE"/>
<rect x="432.404" y="675.856" width="36.8731" height="36.8731" rx="4" transform="rotate(-90 432.404 675.856)" fill="#FEFEFF"/>
<rect x="432.902" y="621.543" width="35.8765" height="35.8765" rx="4" transform="rotate(-90 432.902 621.543)" fill="#F9F9FB"/>
<rect x="433.4" y="567.23" width="34.88" height="34.88" rx="4" transform="rotate(-90 433.4 567.23)" fill="#FCFDFE"/>
<rect x="433.899" y="512.917" width="33.8834" height="33.8834" rx="4" transform="rotate(-90 433.899 512.917)" fill="#F9FAFC"/>
<rect x="434.397" y="458.604" width="32.8868" height="32.8868" rx="4" transform="rotate(-90 434.397 458.604)" fill="#FAFAFC"/>
<rect x="434.895" y="404.291" width="31.8902" height="31.8902" rx="4" transform="rotate(-90 434.895 404.291)" fill="#F6F7FA"/>
<rect x="435.393" y="349.978" width="30.8937" height="30.8937" rx="4" transform="rotate(-90 435.393 349.978)" fill="#FDFDFE"/>
<rect x="435.892" y="295.665" width="29.8971" height="29.8971" rx="4" transform="rotate(-90 435.892 295.665)" fill="#FDFDFE"/>
<rect x="436.39" y="241.352" width="28.9005" height="28.9005" rx="4" transform="rotate(-90 436.39 241.352)" fill="#FEFFFF"/>
<rect x="436.888" y="187.039" width="27.904" height="27.904" rx="4" transform="rotate(-90 436.888 187.039)" fill="#FDFEFE"/>
<rect x="437.885" y="132.227" width="25.9108" height="25.9108" rx="4" transform="rotate(-90 437.885 132.227)" fill="#F7F8FB"/>
<rect x="438.383" y="77.9142" width="24.9143" height="24.9143" rx="4" transform="rotate(-90 438.383 77.9142)" fill="#FAFAFC"/>
<rect x="378.091" y="730.169" width="37.8697" height="37.8697" rx="4" transform="rotate(-90 378.091 730.169)" fill="#F6F7FA"/>
<rect x="378.589" y="675.856" width="36.8731" height="36.8731" rx="4" transform="rotate(-90 378.589 675.856)" fill="#FAFAFC"/>
<rect x="379.087" y="621.543" width="35.8765" height="35.8765" rx="4" transform="rotate(-90 379.087 621.543)" fill="#FEFEFE"/>
<rect x="379.586" y="567.23" width="34.88" height="34.88" rx="4" transform="rotate(-90 379.586 567.23)" fill="#FEFEFF"/>
<rect x="380.084" y="512.917" width="33.8834" height="33.8834" rx="4" transform="rotate(-90 380.084 512.917)" fill="#F8F9FB"/>
<rect x="380.582" y="458.604" width="32.8868" height="32.8868" rx="4" transform="rotate(-90 380.582 458.604)" fill="#F9FAFC"/>
<rect x="381.08" y="404.291" width="31.8902" height="31.8902" rx="4" transform="rotate(-90 381.08 404.291)" fill="#FCFDFD"/>
<rect x="381.579" y="349.978" width="30.8937" height="30.8937" rx="4" transform="rotate(-90 381.579 349.978)" fill="#FDFDFE"/>
<rect x="382.077" y="295.665" width="29.8971" height="29.8971" rx="4" transform="rotate(-90 382.077 295.665)" fill="#F7F8FB"/>
<rect x="382.575" y="241.352" width="28.9005" height="28.9005" rx="4" transform="rotate(-90 382.575 241.352)" fill="#FBFBFD"/>
<rect x="383.073" y="187.039" width="27.904" height="27.904" rx="4" transform="rotate(-90 383.073 187.039)" fill="#FCFCFD"/>
<rect x="384.07" y="132.227" width="25.9108" height="25.9108" rx="4" transform="rotate(-90 384.07 132.227)" fill="#F7F8FB"/>
<rect x="384.568" y="77.9142" width="24.9143" height="24.9143" rx="4" transform="rotate(-90 384.568 77.9142)" fill="white"/>
<rect x="324.276" y="730.169" width="37.8697" height="37.8697" rx="4" transform="rotate(-90 324.276 730.169)" fill="#FDFDFE"/>
<rect x="324.774" y="675.856" width="36.8731" height="36.8731" rx="4" transform="rotate(-90 324.774 675.856)" fill="#FEFEFE"/>
<rect x="325.272" y="621.543" width="35.8765" height="35.8765" rx="4" transform="rotate(-90 325.272 621.543)" fill="#F8F9FB"/>
<rect x="270.461" y="730.169" width="37.8697" height="37.8697" rx="4" transform="rotate(-90 270.461 730.169)" fill="#FDFEFE"/>
<rect x="270.959" y="675.856" width="36.8731" height="36.8731" rx="4" transform="rotate(-90 270.959 675.856)" fill="#FDFEFE"/>
<rect x="271.458" y="621.543" width="35.8765" height="35.8765" rx="4" transform="rotate(-90 271.458 621.543)" fill="#FCFDFD"/>
<rect x="271.956" y="567.23" width="34.88" height="34.88" rx="4" transform="rotate(-90 271.956 567.23)" fill="#FBFBFD"/>
<rect x="272.454" y="512.917" width="33.8834" height="33.8834" rx="4" transform="rotate(-90 272.454 512.917)" fill="#FDFDFE"/>
<rect x="272.952" y="458.604" width="32.8868" height="32.8868" rx="4" transform="rotate(-90 272.952 458.604)" fill="#FDFEFE"/>
<rect x="273.451" y="404.291" width="31.8902" height="31.8902" rx="4" transform="rotate(-90 273.451 404.291)" fill="#F7F7FA"/>
<rect x="273.949" y="349.978" width="30.8937" height="30.8937" rx="4" transform="rotate(-90 273.949 349.978)" fill="#FAFBFC"/>
<rect x="274.447" y="295.665" width="29.8971" height="29.8971" rx="4" transform="rotate(-90 274.447 295.665)" fill="#FAFBFC"/>
<rect x="274.945" y="241.352" width="28.9005" height="28.9005" rx="4" transform="rotate(-90 274.945 241.352)" fill="#F9FAFC"/>
<rect x="275.444" y="187.039" width="27.904" height="27.904" rx="4" transform="rotate(-90 275.444 187.039)" fill="#FEFEFE"/>
<rect x="276.44" y="132.227" width="25.9108" height="25.9108" rx="4" transform="rotate(-90 276.44 132.227)" fill="#FBFBFD"/>
<rect x="276.939" y="77.9142" width="24.9143" height="24.9143" rx="4" transform="rotate(-90 276.939 77.9142)" fill="white"/>
<rect x="216.646" y="730.169" width="37.8697" height="37.8697" rx="4" transform="rotate(-90 216.646 730.169)" fill="#FCFCFD"/>
<rect x="217.145" y="675.856" width="36.8731" height="36.8731" rx="4" transform="rotate(-90 217.145 675.856)" fill="#F9FAFC"/>
<rect x="217.643" y="621.543" width="35.8765" height="35.8765" rx="4" transform="rotate(-90 217.643 621.543)" fill="#F9FAFC"/>
<rect x="218.141" y="567.23" width="34.88" height="34.88" rx="4" transform="rotate(-90 218.141 567.23)" fill="#F6F7FA"/>
<rect x="218.639" y="512.917" width="33.8834" height="33.8834" rx="4" transform="rotate(-90 218.639 512.917)" fill="#F8F9FB"/>
<rect x="219.138" y="458.604" width="32.8868" height="32.8868" rx="4" transform="rotate(-90 219.138 458.604)" fill="#F6F7FA"/>
<rect x="219.636" y="404.291" width="31.8902" height="31.8902" rx="4" transform="rotate(-90 219.636 404.291)" fill="#FBFBFD"/>
<rect x="220.134" y="349.978" width="30.8937" height="30.8937" rx="4" transform="rotate(-90 220.134 349.978)" fill="#F7F8FA"/>
<rect x="220.633" y="295.665" width="29.8971" height="29.8971" rx="4" transform="rotate(-90 220.633 295.665)" fill="#FCFDFE"/>
<rect x="221.131" y="241.352" width="28.9005" height="28.9005" rx="4" transform="rotate(-90 221.131 241.352)" fill="#F9F9FC"/>
<rect x="221.629" y="187.039" width="27.904" height="27.904" rx="4" transform="rotate(-90 221.629 187.039)" fill="#FEFEFE"/>
<rect x="222.626" y="132.227" width="25.9108" height="25.9108" rx="4" transform="rotate(-90 222.626 132.227)" fill="#FEFFFF"/>
<rect x="223.124" y="77.9142" width="24.9143" height="24.9143" rx="4" transform="rotate(-90 223.124 77.9142)" fill="#F6F7FA"/>
<rect x="162.832" y="730.169" width="37.8697" height="37.8697" rx="4" transform="rotate(-90 162.832 730.169)" fill="#F6F7FA"/>
<rect x="163.33" y="675.856" width="36.8731" height="36.8731" rx="4" transform="rotate(-90 163.33 675.856)" fill="#F9FAFC"/>
<rect x="163.828" y="621.543" width="35.8765" height="35.8765" rx="4" transform="rotate(-90 163.828 621.543)" fill="#F8F9FB"/>
<rect x="164.326" y="567.23" width="34.88" height="34.88" rx="4" transform="rotate(-90 164.326 567.23)" fill="#FBFBFD"/>
<rect x="164.825" y="512.917" width="33.8834" height="33.8834" rx="4" transform="rotate(-90 164.825 512.917)" fill="#FBFCFD"/>
<rect x="165.323" y="458.604" width="32.8868" height="32.8868" rx="4" transform="rotate(-90 165.323 458.604)" fill="#FBFBFD"/>
<rect x="109.017" y="730.169" width="37.8697" height="37.8697" rx="4" transform="rotate(-90 109.017 730.169)" fill="#FAFBFC"/>
<rect x="109.515" y="675.856" width="36.8731" height="36.8731" rx="4" transform="rotate(-90 109.515 675.856)" fill="#FAFBFC"/>
<rect x="110.013" y="621.543" width="35.8765" height="35.8765" rx="4" transform="rotate(-90 110.013 621.543)" fill="#F7F8FB"/>
<rect x="110.511" y="567.23" width="34.88" height="34.88" rx="4" transform="rotate(-90 110.511 567.23)" fill="#F9FAFC"/>
<rect x="111.01" y="512.917" width="33.8834" height="33.8834" rx="4" transform="rotate(-90 111.01 512.917)" fill="#F8F9FB"/>
<rect x="111.508" y="458.604" width="32.8868" height="32.8868" rx="4" transform="rotate(-90 111.508 458.604)" fill="white"/>
<rect x="112.006" y="404.291" width="31.8902" height="31.8902" rx="4" transform="rotate(-90 112.006 404.291)" fill="#F9F9FB"/>
<rect x="112.505" y="349.978" width="30.8937" height="30.8937" rx="4" transform="rotate(-90 112.505 349.978)" fill="#F6F7FA"/>
<rect x="113.003" y="295.665" width="29.8971" height="29.8971" rx="4" transform="rotate(-90 113.003 295.665)" fill="white"/>
<rect x="113.501" y="241.352" width="28.9005" height="28.9005" rx="4" transform="rotate(-90 113.501 241.352)" fill="#F6F7FA"/>
<rect x="55.2018" y="730.169" width="37.8697" height="37.8697" rx="4" transform="rotate(-90 55.2018 730.169)" fill="#FDFDFE"/>
<rect x="55.7002" y="675.856" width="36.8731" height="36.8731" rx="4" transform="rotate(-90 55.7002 675.856)" fill="#F8F9FB"/>
<rect x="56.1985" y="621.543" width="35.8765" height="35.8765" rx="4" transform="rotate(-90 56.1985 621.543)" fill="white"/>
<rect x="56.6968" y="567.23" width="34.88" height="34.88" rx="4" transform="rotate(-90 56.6968 567.23)" fill="#F7F8FA"/>
<rect x="57.195" y="512.917" width="33.8834" height="33.8834" rx="4" transform="rotate(-90 57.195 512.917)" fill="#FBFBFD"/>
<rect x="1.38708" y="730.169" width="37.8697" height="37.8697" rx="4" transform="rotate(-90 1.38708 730.169)" fill="#FEFEFE"/>
<rect x="1.88544" y="675.856" width="36.8731" height="36.8731" rx="4" transform="rotate(-90 1.88544 675.856)" fill="#FDFDFE"/>
<rect x="2.38367" y="621.543" width="35.8765" height="35.8765" rx="4" transform="rotate(-90 2.38367 621.543)" fill="#FCFCFD"/>
<rect x="2.8819" y="567.23" width="34.88" height="34.88" rx="4" transform="rotate(-90 2.8819 567.23)" fill="#FBFCFD"/>
<rect x="3.38025" y="512.917" width="33.8834" height="33.8834" rx="4" transform="rotate(-90 3.38025 512.917)" fill="#FDFDFE"/>
<rect x="3.87854" y="458.604" width="32.8868" height="32.8868" rx="4" transform="rotate(-90 3.87854 458.604)" fill="#F7F8FB"/>
<rect x="4.37677" y="404.291" width="31.8902" height="31.8902" rx="4" transform="rotate(-90 4.37677 404.291)" fill="white"/>
<rect x="4.87512" y="349.978" width="30.8937" height="30.8937" rx="4" transform="rotate(-90 4.87512 349.978)" fill="#FCFCFD"/>
<rect x="5.37341" y="295.665" width="29.8971" height="29.8971" rx="4" transform="rotate(-90 5.37341 295.665)" fill="#FEFEFF"/>
<rect x="5.8717" y="241.352" width="28.9005" height="28.9005" rx="4" transform="rotate(-90 5.8717 241.352)" fill="#FDFEFE"/>
<rect x="6.36993" y="187.039" width="27.904" height="27.904" rx="4" transform="rotate(-90 6.36993 187.039)" fill="#FCFCFD"/>
<rect x="7.36652" y="132.227" width="25.9108" height="25.9108" rx="4" transform="rotate(-90 7.36652 132.227)" fill="#F7F8FB"/>
<rect x="7.86475" y="77.9142" width="24.9143" height="24.9143" rx="4" transform="rotate(-90 7.86475 77.9142)" fill="#F9F9FB"/>
<rect x="1023.87" y="730.169" width="37.8697" height="37.8697" rx="4" transform="rotate(-90 1023.87 730.169)" fill="#F7F8FA"/>
<rect x="1024.37" y="675.856" width="36.8731" height="36.8731" rx="4" transform="rotate(-90 1024.37 675.856)" fill="#F8F8FB"/>
<rect x="1024.86" y="621.543" width="35.8765" height="35.8765" rx="4" transform="rotate(-90 1024.86 621.543)" fill="#FAFBFC"/>
<rect x="1025.36" y="567.23" width="34.88" height="34.88" rx="4" transform="rotate(-90 1025.36 567.23)" fill="#FCFCFD"/>
<rect x="1025.86" y="512.917" width="33.8834" height="33.8834" rx="4" transform="rotate(-90 1025.86 512.917)" fill="#FCFDFE"/>
<rect x="1026.36" y="458.604" width="32.8868" height="32.8868" rx="4" transform="rotate(-90 1026.36 458.604)" fill="#FAFAFC"/>
<rect x="1026.86" y="404.291" width="31.8902" height="31.8902" rx="4" transform="rotate(-90 1026.86 404.291)" fill="#F9FAFC"/>
<rect x="1027.36" y="349.978" width="30.8937" height="30.8937" rx="4" transform="rotate(-90 1027.36 349.978)" fill="white"/>
<rect x="1027.85" y="295.665" width="29.8971" height="29.8971" rx="4" transform="rotate(-90 1027.85 295.665)" fill="#F8F9FB"/>
<rect x="1028.35" y="241.352" width="28.9005" height="28.9005" rx="4" transform="rotate(-90 1028.35 241.352)" fill="#F8F9FB"/>
<rect x="1028.85" y="187.039" width="27.904" height="27.904" rx="4" transform="rotate(-90 1028.85 187.039)" fill="#F8F9FB"/>
<rect x="1029.85" y="132.227" width="25.9108" height="25.9108" rx="4" transform="rotate(-90 1029.85 132.227)" fill="#F9F9FC"/>
<rect x="1030.35" y="77.9142" width="24.9143" height="24.9143" rx="4" transform="rotate(-90 1030.35 77.9142)" fill="#FDFEFE"/>
<rect x="1077.68" y="730.169" width="37.8697" height="37.8697" rx="4" transform="rotate(-90 1077.68 730.169)" fill="#FCFCFD"/>
<rect x="1078.18" y="675.856" width="36.8731" height="36.8731" rx="4" transform="rotate(-90 1078.18 675.856)" fill="white"/>
<rect x="1078.68" y="621.543" width="35.8765" height="35.8765" rx="4" transform="rotate(-90 1078.68 621.543)" fill="#FCFCFD"/>
<rect x="1079.18" y="567.23" width="34.88" height="34.88" rx="4" transform="rotate(-90 1079.18 567.23)" fill="#FDFDFE"/>
<rect x="1079.68" y="512.917" width="33.8834" height="33.8834" rx="4" transform="rotate(-90 1079.68 512.917)" fill="#FDFDFE"/>
<rect x="1080.17" y="458.604" width="32.8868" height="32.8868" rx="4" transform="rotate(-90 1080.17 458.604)" fill="#F6F7FA"/>
<rect x="1080.67" y="404.291" width="31.8902" height="31.8902" rx="4" transform="rotate(-90 1080.67 404.291)" fill="#FEFEFE"/>
<rect x="1081.17" y="349.978" width="30.8937" height="30.8937" rx="4" transform="rotate(-90 1081.17 349.978)" fill="#F6F7FA"/>
<rect x="1081.67" y="295.665" width="29.8971" height="29.8971" rx="4" transform="rotate(-90 1081.67 295.665)" fill="white"/>
<rect x="1131.5" y="730.169" width="37.8697" height="37.8697" rx="4" transform="rotate(-90 1131.5 730.169)" fill="#F7F8FA"/>
<rect x="1132" y="675.856" width="36.8731" height="36.8731" rx="4" transform="rotate(-90 1132 675.856)" fill="#FDFDFE"/>
<rect x="1132.49" y="621.543" width="35.8765" height="35.8765" rx="4" transform="rotate(-90 1132.49 621.543)" fill="#F6F7FA"/>
<rect x="1132.99" y="567.23" width="34.88" height="34.88" rx="4" transform="rotate(-90 1132.99 567.23)" fill="#F7F8FB"/>
<rect x="1133.49" y="512.917" width="33.8834" height="33.8834" rx="4" transform="rotate(-90 1133.49 512.917)" fill="#FBFCFD"/>
<rect x="1133.99" y="458.604" width="32.8868" height="32.8868" rx="4" transform="rotate(-90 1133.99 458.604)" fill="#FBFBFD"/>
<rect x="1134.49" y="404.291" width="31.8902" height="31.8902" rx="4" transform="rotate(-90 1134.49 404.291)" fill="#FCFCFD"/>
<rect x="1134.99" y="349.978" width="30.8937" height="30.8937" rx="4" transform="rotate(-90 1134.99 349.978)" fill="#FBFBFD"/>
<rect x="1135.48" y="295.665" width="29.8971" height="29.8971" rx="4" transform="rotate(-90 1135.48 295.665)" fill="#F8F8FB"/>
<rect x="1135.98" y="241.352" width="28.9005" height="28.9005" rx="4" transform="rotate(-90 1135.98 241.352)" fill="#FAFBFC"/>
<rect x="1136.48" y="187.039" width="27.904" height="27.904" rx="4" transform="rotate(-90 1136.48 187.039)" fill="#FCFCFD"/>
<rect x="1137.48" y="132.227" width="25.9108" height="25.9108" rx="4" transform="rotate(-90 1137.48 132.227)" fill="#FDFEFE"/>
<rect x="1137.98" y="77.9142" width="24.9143" height="24.9143" rx="4" transform="rotate(-90 1137.98 77.9142)" fill="#F9FAFC"/>
<rect x="1185.31" y="730.169" width="37.8697" height="37.8697" rx="4" transform="rotate(-90 1185.31 730.169)" fill="#F7F8FB"/>
<rect x="1185.81" y="675.856" width="36.8731" height="36.8731" rx="4" transform="rotate(-90 1185.81 675.856)" fill="#FEFEFF"/>
<rect x="1186.31" y="621.543" width="35.8765" height="35.8765" rx="4" transform="rotate(-90 1186.31 621.543)" fill="#FDFDFE"/>
<rect x="1186.81" y="567.23" width="34.88" height="34.88" rx="4" transform="rotate(-90 1186.81 567.23)" fill="#F6F7FA"/>
<rect x="1187.31" y="512.917" width="33.8834" height="33.8834" rx="4" transform="rotate(-90 1187.31 512.917)" fill="#F7F8FB"/>
<rect x="1239.13" y="730.169" width="37.8697" height="37.8697" rx="4" transform="rotate(-90 1239.13 730.169)" fill="#FBFCFD"/>
<rect x="1239.63" y="675.856" width="36.8731" height="36.8731" rx="4" transform="rotate(-90 1239.63 675.856)" fill="#F7F7FA"/>
<rect x="1240.12" y="621.543" width="35.8765" height="35.8765" rx="4" transform="rotate(-90 1240.12 621.543)" fill="#FEFEFF"/>
<rect x="1240.62" y="567.23" width="34.88" height="34.88" rx="4" transform="rotate(-90 1240.62 567.23)" fill="#F9FAFC"/>
<rect x="1241.12" y="512.917" width="33.8834" height="33.8834" rx="4" transform="rotate(-90 1241.12 512.917)" fill="#F6F7FA"/>
<rect x="1241.62" y="458.604" width="32.8868" height="32.8868" rx="4" transform="rotate(-90 1241.62 458.604)" fill="#F9FAFC"/>
<rect x="1242.12" y="404.291" width="31.8902" height="31.8902" rx="4" transform="rotate(-90 1242.12 404.291)" fill="#FBFBFD"/>
<rect x="1242.62" y="349.978" width="30.8937" height="30.8937" rx="4" transform="rotate(-90 1242.62 349.978)" fill="#FBFCFD"/>
<rect x="1243.11" y="295.665" width="29.8971" height="29.8971" rx="4" transform="rotate(-90 1243.11 295.665)" fill="#F8F9FB"/>
<rect x="1243.61" y="241.352" width="28.9005" height="28.9005" rx="4" transform="rotate(-90 1243.61 241.352)" fill="#FDFDFE"/>
<rect x="1244.11" y="187.039" width="27.904" height="27.904" rx="4" transform="rotate(-90 1244.11 187.039)" fill="#FBFCFD"/>
<rect x="1245.11" y="132.227" width="25.9108" height="25.9108" rx="4" transform="rotate(-90 1245.11 132.227)" fill="#FAFAFC"/>
<rect x="1245.6" y="77.9142" width="24.9143" height="24.9143" rx="4" transform="rotate(-90 1245.6 77.9142)" fill="#FAFBFC"/>
<rect x="1292.94" y="730.169" width="37.8697" height="37.8697" rx="4" transform="rotate(-90 1292.94 730.169)" fill="white"/>
<rect x="1293.44" y="675.856" width="36.8731" height="36.8731" rx="4" transform="rotate(-90 1293.44 675.856)" fill="#F7F7FA"/>
<rect x="1293.94" y="621.543" width="35.8765" height="35.8765" rx="4" transform="rotate(-90 1293.94 621.543)" fill="#FEFFFF"/>
<rect x="1294.44" y="567.23" width="34.88" height="34.88" rx="4" transform="rotate(-90 1294.44 567.23)" fill="#F9FAFC"/>
<rect x="1294.94" y="512.917" width="33.8834" height="33.8834" rx="4" transform="rotate(-90 1294.94 512.917)" fill="#F8F9FB"/>
<rect x="1295.43" y="458.604" width="32.8868" height="32.8868" rx="4" transform="rotate(-90 1295.43 458.604)" fill="#F9FAFC"/>
<rect x="1295.93" y="404.291" width="31.8902" height="31.8902" rx="4" transform="rotate(-90 1295.93 404.291)" fill="#FEFEFE"/>
<rect x="1296.43" y="349.978" width="30.8937" height="30.8937" rx="4" transform="rotate(-90 1296.43 349.978)" fill="#FBFCFD"/>
<rect x="1296.93" y="295.665" width="29.8971" height="29.8971" rx="4" transform="rotate(-90 1296.93 295.665)" fill="#FEFFFF"/>
<rect x="1297.43" y="241.352" width="28.9005" height="28.9005" rx="4" transform="rotate(-90 1297.43 241.352)" fill="#FBFCFD"/>
<rect x="1297.92" y="187.039" width="27.904" height="27.904" rx="4" transform="rotate(-90 1297.92 187.039)" fill="white"/>
<rect x="1298.92" y="132.227" width="25.9108" height="25.9108" rx="4" transform="rotate(-90 1298.92 132.227)" fill="#F6F7FA"/>
<rect x="1299.42" y="77.9142" width="24.9143" height="24.9143" rx="4" transform="rotate(-90 1299.42 77.9142)" fill="#F7F8FB"/>
<rect x="1346.76" y="730.169" width="37.8697" height="37.8697" rx="4" transform="rotate(-90 1346.76 730.169)" fill="#FCFCFD"/>
<rect x="1347.26" y="675.856" width="36.8731" height="36.8731" rx="4" transform="rotate(-90 1347.26 675.856)" fill="#FAFBFC"/>
<rect x="1347.75" y="621.543" width="35.8765" height="35.8765" rx="4" transform="rotate(-90 1347.75 621.543)" fill="#FCFDFE"/>
<rect x="1348.25" y="567.23" width="34.88" height="34.88" rx="4" transform="rotate(-90 1348.25 567.23)" fill="#FAFBFC"/>
<rect x="1348.75" y="512.917" width="33.8834" height="33.8834" rx="4" transform="rotate(-90 1348.75 512.917)" fill="#FDFDFE"/>
<rect x="1349.25" y="458.604" width="32.8868" height="32.8868" rx="4" transform="rotate(-90 1349.25 458.604)" fill="#F6F7FA"/>
<rect x="1400.57" y="730.169" width="37.8697" height="37.8697" rx="4" transform="rotate(-90 1400.57 730.169)" fill="#FAFAFC"/>
<rect x="1401.07" y="675.856" width="36.8731" height="36.8731" rx="4" transform="rotate(-90 1401.07 675.856)" fill="#FAFBFC"/>
<rect x="1401.57" y="621.543" width="35.8765" height="35.8765" rx="4" transform="rotate(-90 1401.57 621.543)" fill="#FBFCFD"/>
<rect x="1402.07" y="567.23" width="34.88" height="34.88" rx="4" transform="rotate(-90 1402.07 567.23)" fill="#FEFEFE"/>
<rect x="1402.56" y="512.917" width="33.8834" height="33.8834" rx="4" transform="rotate(-90 1402.56 512.917)" fill="#F9F9FC"/>
<rect x="1403.06" y="458.604" width="32.8868" height="32.8868" rx="4" transform="rotate(-90 1403.06 458.604)" fill="#FDFDFE"/>
<rect x="1403.56" y="404.291" width="31.8902" height="31.8902" rx="4" transform="rotate(-90 1403.56 404.291)" fill="#F8F9FB"/>
<rect x="1404.06" y="349.978" width="30.8937" height="30.8937" rx="4" transform="rotate(-90 1404.06 349.978)" fill="#FDFEFE"/>
<rect x="1404.56" y="295.665" width="29.8971" height="29.8971" rx="4" transform="rotate(-90 1404.56 295.665)" fill="#FAFAFC"/>
<rect x="1405.06" y="241.352" width="28.9005" height="28.9005" rx="4" transform="rotate(-90 1405.06 241.352)" fill="#F7F8FA"/>
<rect x="1405.55" y="187.039" width="27.904" height="27.904" rx="4" transform="rotate(-90 1405.55 187.039)" fill="#FAFBFC"/>
<rect x="1406.55" y="132.227" width="25.9108" height="25.9108" rx="4" transform="rotate(-90 1406.55 132.227)" fill="#FEFEFE"/>
<rect x="1407.05" y="77.9142" width="24.9143" height="24.9143" rx="4" transform="rotate(-90 1407.05 77.9142)" fill="white"/>
</g>
<defs>
<clipPath id="clip0_3531_42537">
<rect width="1440" height="746" fill="white"/>
</clipPath>
</defs>
</svg>
