<svg width="32" height="32" viewBox="0 0 32 32" fill="none" xmlns="http://www.w3.org/2000/svg">
<path d="M26 0H6C2.68629 0 0 2.68629 0 6V26C0 29.3137 2.68629 32 6 32H26C29.3137 32 32 29.3137 32 26V6C32 2.68629 29.3137 0 26 0Z" fill="#ECF3FF"/>
<path d="M14 20.9304H5.75C5.55109 20.9304 5.36032 20.8514 5.21967 20.7108C5.07902 20.5701 5 20.3793 5 20.1804V11.1804C5 10.9815 5.07902 10.7907 5.21967 10.6501C5.36032 10.5094 5.55109 10.4304 5.75 10.4304H14" stroke="#0F6FFF" stroke-width="1.8" stroke-linecap="round" stroke-linejoin="round"/>
<path d="M14 8.18042V23.1804" stroke="#87B7FF" stroke-width="1.8" stroke-linecap="round" stroke-linejoin="round"/>
<path d="M17 10.4304H25.25C25.4489 10.4304 25.6397 10.5094 25.7803 10.6501C25.921 10.7907 26 10.9815 26 11.1804V20.1804C26 20.3793 25.921 20.5701 25.7803 20.7108C25.6397 20.8514 25.4489 20.9304 25.25 20.9304H17" stroke="#0F6FFF" stroke-width="1.8" stroke-linecap="round" stroke-linejoin="round"/>
<path d="M8.1875 14.1804H10.8125" stroke="#87B7FF" stroke-width="1.8" stroke-linecap="round" stroke-linejoin="round"/>
<path d="M9.5 14.1804V17.5554" stroke="#87B7FF" stroke-width="1.8" stroke-linecap="round" stroke-linejoin="round"/>
</svg>
