<svg width="32" height="32" viewBox="0 0 32 32" fill="none" xmlns="http://www.w3.org/2000/svg">
<path d="M26 0H6C2.68629 0 0 2.68629 0 6V26C0 29.3137 2.68629 32 6 32H26C29.3137 32 32 29.3137 32 26V6C32 2.68629 29.3137 0 26 0Z" fill="#FF9800"/>
<path d="M26 0H6C2.68629 0 0 2.68629 0 6V26C0 29.3137 2.68629 32 6 32H26C29.3137 32 32 29.3137 32 26V6C32 2.68629 29.3137 0 26 0Z" fill="#FFF5E5"/>
<circle cx="16" cy="13.6804" r="2.6" stroke="#FF9800" stroke-width="1.8"/>
<path d="M20.816 23.4974C20.1203 21.5065 18.2255 20.0804 16 20.0804V18.2804C19.0143 18.2804 21.575 20.2128 22.5153 22.9037L20.816 23.4974ZM16 20.0804C13.7744 20.0804 11.8796 21.5065 11.184 23.4974L9.4847 22.9037C10.425 20.2128 12.9856 18.2804 16 18.2804V20.0804Z" fill="#FF9800"/>
<path d="M15 5.75777C15.6188 5.4005 16.3812 5.4005 17 5.75777L24.5263 10.1031C25.1451 10.4603 25.5263 11.1206 25.5263 11.8351V20.5257C25.5263 21.2403 25.1451 21.9005 24.5263 22.2578L17 26.6031C16.3812 26.9603 15.6188 26.9603 15 26.6031L7.47372 22.2578C6.85492 21.9005 6.47372 21.2403 6.47372 20.5257V11.8351C6.47372 11.1206 6.85492 10.4603 7.47372 10.1031L15 5.75777Z" stroke="#FFCB80" stroke-width="1.8"/>
</svg>
