<svg width="24" height="24" viewBox="0 0 24 24" fill="none" xmlns="http://www.w3.org/2000/svg">
<path d="M19.0267 8.29604C18.9554 8.48158 15.9591 6.61918 13.2228 7.88979C11.2333 8.81359 10.4115 10.6046 10.4115 12.1316C10.4115 13.3349 10.8339 14.244 11.2956 14.8364C12.0466 15.8 12.7452 16.1624 13.3485 16.4846C14.3203 17.0034 15.9732 17.0207 16.475 16.995C17.4094 16.947 18.5072 16.6797 19.433 16.2522C19.7864 16.089 20.3603 15.735 20.8631 15.339C21.7216 14.6629 22.5123 13.8125 22.4985 13.8783C22.4767 13.9826 22.4855 14.0652 22.0562 14.8104C20.7842 17.0185 18.6695 17.9817 18.6695 17.9817C15.6903 19.5409 13.0464 18.7321 12.5325 18.5381C10.2767 17.6859 9.10017 16.0884 8.82529 15.5803C8.377 14.7517 7.57333 11.7083 8.65015 9.2893C9.44815 7.49666 11.2982 6.6159 11.5025 6.5316C14.7987 5.17064 19.0916 8.12745 19.0267 8.29604Z" fill="url(#paint0_linear_8481_43278)"/>
<path d="M19.1207 8.14151C18.9868 8.26429 18.0246 7.12191 16.4797 6.29689C16.0379 6.06108 14.3528 5.21351 12.2947 5.25702C8.88282 5.32882 6.61547 7.80447 6.21116 8.26329C4.19031 10.5564 3.23885 14.0874 4.3755 16.8351C5.8527 20.4058 10.7953 22.4595 10.4194 22.5L9.98705 22.3633C9.46539 22.1597 3.06282 19.3076 2.8335 13.6243C2.70422 10.4218 3.74522 7.82829 4.3755 7.1203C5.47678 5.88328 6.35981 5.28774 7.10424 4.8944C8.60008 4.10457 11.4132 3.42775 13.5011 3.73866C15.8437 4.08763 17.3142 5.70521 18.0313 6.49404C18.6781 7.20547 19.2289 8.04228 19.1207 8.14151Z" fill="url(#paint1_linear_8481_43278)"/>
<path d="M19.104 8.2929C19.2623 8.2234 19.051 6.09684 17.6538 4.47968C17.0903 3.8262 16.4707 3.23202 15.71 2.81617C12.5651 1.13109 8.69838 2.48616 7.86135 2.81617C7.00395 3.15407 5.17448 4.07739 3.63861 5.97185C1.90734 8.10758 1.65095 10.3988 1.55238 11.4018C1.13118 15.6844 3.38365 19.0477 3.54397 18.997C3.6374 18.9674 2.61551 16.8275 2.83376 13.6244C2.9169 12.405 3.08767 10.1715 4.65179 8.02778C5.59927 6.76346 6.69537 5.71105 8.12525 5.01624C8.95266 4.61213 11.9132 3.30967 14.8779 4.34406C15.7812 4.66568 16.6129 5.15659 17.3271 5.78975C18.6178 6.95598 18.9745 8.34991 19.104 8.2929Z" fill="url(#paint2_linear_8481_43278)"/>
<path d="M14.549 20.2887C14.4747 20.4135 9.3453 18.9664 7.41836 15.4C7.12833 14.8635 5.78905 12.0035 6.66772 9.77709C7.03519 8.8458 7.75865 7.80322 8.05086 7.47939C8.52288 6.95638 9.32365 6.48618 10.3404 6.0601C10.7973 5.87316 11.632 5.67857 12.1223 5.61412C12.6084 5.55497 13.3549 5.56766 13.8423 5.61412C14.79 5.70443 16.0707 6.79833 16.0346 6.79833C16.025 6.79833 15.0182 6.47924 13.9772 6.40852C13.1143 6.34991 12.1783 6.54798 11.8464 6.664C11.114 6.91999 10.1101 7.47939 9.52962 8.18616C8.94916 8.89293 8.45367 9.89188 8.34813 11.231C8.27076 12.2126 8.37693 13.6445 8.80736 14.7609C9.01368 15.296 9.36903 15.977 10.052 16.8738C11.5058 18.7827 14.6026 20.1991 14.549 20.2887Z" fill="url(#paint3_linear_8481_43278)"/>
<path d="M11.77 5.16627C12.6598 5.03946 13.4214 4.99573 14.3038 5.16627C15.3163 5.36732 15.8764 5.57454 16.566 5.92322C17.7439 6.51876 19.2347 8.04582 19.1211 8.27502C18.9189 8.68358 15.7801 5.40074 11.4679 6.53051C10.2485 6.94198 9.49633 7.32621 8.71752 7.91307C7.39106 8.91263 6.73374 10.2274 6.52605 10.765C6.16946 11.6882 6.07262 12.2076 6.02945 13.19C6.02945 14.5126 6.27984 15.2798 6.58269 16.1208C7.01349 17.3178 7.81697 18.6861 7.68789 18.5975C6.21178 17.5837 5.28936 14.456 5.18745 13.8077C5.08553 13.1595 4.65034 10.3516 6.52604 8.01355C8.23605 5.88214 11.1067 5.26177 11.77 5.16627Z" fill="url(#paint4_linear_8481_43278)"/>
<defs>
<linearGradient id="paint0_linear_8481_43278" x1="17.1498" y1="6.24346" x2="17.1498" y2="18.9744" gradientUnits="userSpaceOnUse">
<stop stop-color="#FAB961"/>
<stop offset="1"/>
</linearGradient>
<linearGradient id="paint1_linear_8481_43278" x1="10.9785" y1="3.66144" x2="10.9785" y2="22.5316" gradientUnits="userSpaceOnUse">
<stop stop-color="#FAB961"/>
<stop offset="1"/>
</linearGradient>
<linearGradient id="paint2_linear_8481_43278" x1="10.3273" y1="2.09414" x2="10.3273" y2="18.9979" gradientUnits="userSpaceOnUse">
<stop/>
<stop offset="0.414296" stop-color="#FAB961"/>
</linearGradient>
<linearGradient id="paint3_linear_8481_43278" x1="10.5329" y1="6.1945" x2="10.5329" y2="19.9406" gradientUnits="userSpaceOnUse">
<stop/>
<stop offset="1" stop-color="#FAB961"/>
</linearGradient>
<linearGradient id="paint4_linear_8481_43278" x1="12.099" y1="5.38513" x2="12.099" y2="18.6015" gradientUnits="userSpaceOnUse">
<stop/>
<stop offset="1" stop-color="#FAB961"/>
</linearGradient>
</defs>
</svg>
