<svg width="24" height="24" viewBox="0 0 24 24" fill="none" xmlns="http://www.w3.org/2000/svg">
<path d="M22.4754 11.2875C22.0819 5.50212 17.0729 1.13109 11.2875 1.52462C8.40543 1.72065 5.87488 3.06253 4.10899 5.07472L4.10901 5.07471L4.10408 5.07116C4.09218 5.08762 4.08106 5.10386 4.06925 5.12032C2.31515 7.14233 1.3286 9.83091 1.52461 12.7125C1.54328 12.9871 1.57561 13.2574 1.61466 13.5252C1.61467 13.5253 1.61467 13.5253 1.61469 13.5254C1.61645 13.5375 1.61824 13.5496 1.61994 13.5617C1.64634 13.7384 1.677 13.9135 1.71198 14.087C1.712 14.0871 1.71201 14.0872 1.71204 14.0873C1.71268 14.0905 1.71328 14.0936 1.7139 14.0968C1.74575 14.254 1.78112 14.4096 1.81983 14.564L1.8199 14.5643C1.81993 14.5645 1.81997 14.5646 1.81999 14.5647C3.03262 19.4006 7.56355 22.8256 12.7125 22.4754C18.4979 22.0819 22.8689 17.0728 22.4754 11.2875H22.4754ZM20.1898 11.4429C20.2383 12.1552 20.1935 12.8526 20.0667 13.5235C20.0651 13.5197 20.0639 13.5157 20.0623 13.5118V13.5118C19.3011 11.6512 17.7953 10.3078 16.4711 9.56574C16.7391 6.41295 15.6696 5.0847 14.459 4.86858C14.4261 4.86224 14.393 4.85684 14.3593 4.85266C13.3985 4.72944 12.5199 5.40856 12.3968 6.36929C12.2736 7.33006 12.9527 8.20871 13.9134 8.33198C13.9972 8.34259 14.0802 8.34553 14.1622 8.34424C14.1676 8.45067 14.1709 8.56372 14.1719 8.68195C13.0525 8.40456 12.0062 8.35028 11.0522 8.43605C10.6955 8.45983 10.3385 8.50478 9.98343 8.57111C10.1025 7.50651 10.5019 6.31127 11.277 5.43658C12.0262 4.59104 13.1401 4.10639 14.3552 4.23077C14.5856 4.25434 14.8314 4.31089 15.0527 4.38521C15.0628 4.38862 15.0736 4.39151 15.0837 4.39501C15.0838 4.39481 15.084 4.39454 15.0842 4.39434C17.8987 5.54092 19.9701 8.21208 20.1898 11.4429ZM12.8715 13.0467C12.8707 13.0478 12.8699 13.049 12.8691 13.0501C12.6186 13.4115 12.3206 13.7678 11.9708 14.1124C11.4465 13.5545 11.0253 12.9537 10.7057 12.3322C10.6893 12.2989 10.6718 12.2672 10.6559 12.2333C10.6552 12.2321 10.6547 12.2308 10.6541 12.2296C10.4663 11.8318 10.3067 11.3954 10.1831 10.92C10.9293 10.7445 11.661 10.6799 12.3597 10.7139C12.3968 10.7164 12.4329 10.7171 12.4703 10.7202C12.4716 10.7203 12.473 10.7204 12.4744 10.7205C12.912 10.7568 13.369 10.8365 13.8417 10.9669C13.6207 11.7005 13.3109 12.3662 12.9321 12.9541C12.9115 12.9849 12.8928 13.0159 12.8715 13.0467ZM9.28362 4.25515C9.28166 4.25768 9.27943 4.26007 9.27748 4.2626L9.27746 4.26261C8.04731 5.85137 7.63661 7.82586 7.6556 9.34336C4.79138 10.6877 4.17591 12.278 4.59403 13.4344C4.60498 13.4661 4.61688 13.4975 4.63008 13.5287C5.00376 14.4224 6.03121 14.8437 6.92476 14.47C7.81843 14.0963 8.2398 13.0688 7.86621 12.1752C7.83348 12.0973 7.79458 12.024 7.75242 11.9536C7.84294 11.8951 7.94015 11.835 8.04337 11.7744C8.36282 12.8827 8.83541 13.8201 9.38674 14.6035C9.58533 14.8999 9.8023 15.186 10.0367 15.4599C9.05511 15.8892 7.82003 16.1411 6.67476 15.9072C5.56787 15.6811 4.59122 14.9588 4.09136 13.8442C3.99661 13.633 3.92273 13.3919 3.87643 13.1631C3.84794 12.9632 3.82406 12.7617 3.81015 12.5571C3.5543 8.79586 5.88779 5.44746 9.28362 4.25515ZM12.5571 20.1899C10.3236 20.3418 8.23575 19.58 6.65783 18.2258C8.64883 18.4968 10.5641 17.8652 11.8688 17.09C14.4662 18.8998 16.1519 18.6378 16.9446 17.6972C16.9665 17.6719 16.9877 17.6459 17.0082 17.6189C17.5953 16.8484 17.4465 15.7479 16.676 15.161C15.9055 14.5739 14.8051 14.7227 14.2179 15.493C14.1669 15.5603 14.1228 15.6307 14.0829 15.7024C13.9876 15.6536 13.8876 15.5997 13.7843 15.5411C14.585 14.7099 15.1556 13.8303 15.5586 12.9607C15.7164 12.6398 15.856 12.3082 15.976 11.9676C16.8392 12.603 17.6756 13.5471 18.0459 14.6565C18.4035 15.7281 18.2663 16.9351 17.551 17.9252C17.4154 18.1129 17.2435 18.2975 17.0685 18.452C17.066 18.4542 17.0635 18.4566 17.061 18.4589C15.8096 19.4424 14.2613 20.0739 12.5571 20.1899Z" fill="url(#paint0_linear_22138_52660)"/>
<path style="mix-blend-mode:overlay" opacity="0.9" d="M14.459 4.86861C14.4261 4.86228 14.3929 4.85687 14.3593 4.8527C14.1893 4.8309 14.0222 4.8354 13.861 4.86095C14.8655 5.40739 15.5978 6.92992 15.2128 9.93321C15.0853 10.9279 14.7895 11.8745 14.3624 12.7431C14.0163 13.4899 13.5454 14.2439 12.9125 14.9685C13.2164 15.1964 13.5129 15.3873 13.7843 15.5412C14.585 14.71 15.1556 13.8304 15.5586 12.9607C15.9857 12.0922 16.2815 11.1456 16.409 10.1509C16.8675 6.57496 15.742 5.09766 14.459 4.86861Z" fill="url(#paint1_radial_22138_52660)"/>
<g style="mix-blend-mode:overlay" opacity="0.8">
<path d="M15.2129 9.93316C15.5979 6.92987 14.8655 5.40734 13.8611 4.8609C13.8219 4.86712 13.7834 4.87548 13.745 4.8843C14.7283 5.44959 15.4359 6.97069 15.0561 9.93316C14.9286 10.9279 14.6328 11.8744 14.2057 12.743C13.8711 13.4651 13.4185 14.1937 12.8169 14.8962C12.8489 14.9209 12.8807 14.9446 12.9125 14.9684C13.5455 14.2439 14.0163 13.4899 14.3624 12.743C14.7896 11.8744 15.0853 10.9279 15.2129 9.93316Z" fill="white"/>
</g>
<path style="mix-blend-mode:overlay" opacity="0.5" d="M11.3948 16.7449C11.3004 16.673 11.2096 16.5977 11.1187 16.5224C9.63643 17.1409 7.58153 17.5286 5.54114 17.0551C5.87526 17.481 6.24814 17.8743 6.65772 18.2258C8.64872 18.4968 10.564 17.8652 11.8687 17.09C11.7138 16.982 11.5562 16.8679 11.3948 16.7449Z" fill="url(#paint2_radial_22138_52660)"/>
<path style="mix-blend-mode:overlay" opacity="0.6" d="M11.1187 16.5224C11.0734 16.4848 11.0276 16.4475 10.9831 16.4091C9.48958 17.0059 7.42534 17.3627 5.38953 16.8553C5.43913 16.9227 5.48957 16.9894 5.54114 17.0551C7.58153 17.5286 9.63643 17.1408 11.1187 16.5224Z" fill="url(#paint3_linear_22138_52660)"/>
<path style="mix-blend-mode:overlay" opacity="0.9" d="M4.59443 13.4362C4.60539 13.4678 4.61728 13.4992 4.63049 13.5305C4.69661 13.6886 4.78407 13.8311 4.88676 13.9578C4.85776 12.8147 5.81015 11.4193 8.60358 10.251C9.52878 9.86414 10.4964 9.64699 11.4622 9.58259C12.282 9.50889 13.1704 9.53969 14.1144 9.72556C14.1599 9.34833 14.1769 8.99622 14.1745 8.68424C13.0543 8.40635 12.0072 8.35198 11.0526 8.4378C10.0868 8.5022 9.11919 8.71935 8.19398 9.10624C4.86794 10.4972 4.15128 12.2105 4.59443 13.4362L4.59443 13.4362Z" fill="url(#paint4_radial_22138_52660)"/>
<g style="mix-blend-mode:overlay" opacity="0.8">
<path d="M8.60356 10.251C5.81013 11.4192 4.85775 12.8147 4.88675 13.9578C4.91175 13.9886 4.93822 14.0178 4.96507 14.0467C4.96295 12.9124 5.92647 11.5391 8.68194 10.3867C9.60714 9.99984 10.5748 9.78269 11.5406 9.71829C12.3333 9.64702 13.1905 9.67467 14.0996 9.84445C14.1051 9.80436 14.1096 9.76502 14.1144 9.72551C13.1704 9.53964 12.282 9.50884 11.4622 9.58254C10.4964 9.64694 9.52876 9.86409 8.60356 10.251Z" fill="white"/>
</g>
<path style="mix-blend-mode:overlay" opacity="0.4" d="M16.4117 10.1515C16.3966 10.2693 16.3768 10.3856 16.3571 10.5019C17.6338 11.4764 18.9971 13.0621 19.6072 15.0659C19.809 14.5636 19.9631 14.044 20.0627 13.5136C19.3019 11.6538 17.7973 10.3109 16.4736 9.5686C16.4576 9.7567 16.4375 9.95031 16.4117 10.1515Z" fill="url(#paint5_radial_22138_52660)"/>
<path style="mix-blend-mode:overlay" opacity="0.5" d="M16.3571 10.5019C16.3472 10.56 16.3378 10.6182 16.3268 10.676C17.5905 11.671 18.9316 13.2803 19.5101 15.2971C19.5436 15.2204 19.5761 15.1434 19.6073 15.0659C18.9971 13.0621 17.6339 11.4764 16.3571 10.5019Z" fill="url(#paint6_linear_22138_52660)"/>
<path style="mix-blend-mode:overlay" opacity="0.9" d="M16.9456 17.6948C16.9675 17.6695 16.9888 17.6435 17.0092 17.6164C17.1131 17.4801 17.1928 17.3331 17.2512 17.1808C16.2758 17.7775 14.591 17.6504 12.1826 15.8153C11.385 15.2075 10.7131 14.4781 10.1744 13.6739C9.70068 13.0008 9.28315 12.216 8.97213 11.3055C8.62272 11.4548 8.30924 11.6161 8.04028 11.7742C8.35973 12.8832 8.83617 13.8172 9.38781 14.601C9.92646 15.4052 10.5983 16.1346 11.396 16.7425C14.2636 18.9274 16.1057 18.6914 16.9456 17.6948Z" fill="url(#paint7_radial_22138_52660)"/>
<g style="mix-blend-mode:overlay" opacity="0.8">
<path d="M12.1827 15.8154C14.5911 17.6505 16.2758 17.7775 17.2513 17.1808C17.2655 17.1438 17.2775 17.1062 17.2891 17.0686C16.3078 17.6375 14.6367 17.4898 12.261 15.6796C11.4634 15.0718 10.7915 14.3424 10.2528 13.5382C9.79477 12.8874 9.39008 12.1311 9.08256 11.2589C9.04512 11.2742 9.00876 11.29 8.97217 11.3056C9.28319 12.216 9.70072 13.0008 10.1745 13.674C10.7131 14.4781 11.385 15.2076 12.1827 15.8154V15.8154Z" fill="white"/>
</g>
<path style="mix-blend-mode:overlay" opacity="0.3" d="M8.19242 9.1031C8.30191 9.05731 8.41253 9.01629 8.52314 8.97525C8.7287 7.38229 9.42033 5.40881 10.8506 3.87854C10.3147 3.95495 9.78768 4.08124 9.27848 4.26019C8.04831 5.84896 7.63763 7.82346 7.65663 9.34098C7.82753 9.2608 8.00524 9.18138 8.19242 9.1031Z" fill="url(#paint8_radial_22138_52660)"/>
<path style="mix-blend-mode:overlay" opacity="0.4" d="M8.52332 8.97524C8.5786 8.95474 8.63373 8.93379 8.68926 8.91446C8.91914 7.32257 9.64227 5.35649 11.0996 3.84711C11.0164 3.85638 10.9335 3.86674 10.8508 3.87853C9.4205 5.4088 8.72887 7.38228 8.52332 8.97524V8.97524Z" fill="url(#paint9_linear_22138_52660)"/>
<path style="mix-blend-mode:multiply" opacity="0.4" d="M11.2874 1.52462C8.40537 1.72065 5.87483 3.06253 4.10894 5.07473C4.0956 5.08993 4.08234 5.10517 4.06909 5.12046L4.0692 5.12032C4.41299 5.46134 5.53657 6.13377 5.99196 6.41418C6.88608 5.45259 8.01013 4.70227 9.28356 4.25516C9.37251 4.14056 9.46469 4.02749 9.56233 3.91729C10.7484 2.57893 12.3681 1.87153 14.2467 1.87153C14.4558 1.87153 14.8817 1.90481 14.8908 1.90549C13.7519 1.57829 12.5381 1.43955 11.2874 1.52462Z" fill="url(#paint10_linear_22138_52660)"/>
<path style="mix-blend-mode:multiply" opacity="0.4" d="M12.5571 20.1899C10.3236 20.3418 8.2358 19.58 6.65787 18.2258H6.65786L6.65785 18.2258C6.51098 18.2058 6.36379 18.1818 6.21634 18.1517C4.46426 17.7937 3.0418 16.7448 2.10248 15.1178C1.99793 14.9367 1.90438 14.7522 1.82007 14.5648C3.03273 19.4007 7.56364 22.8256 12.7126 22.4754C12.7354 21.9452 12.5791 20.7148 12.5571 20.1899Z" fill="url(#paint11_linear_22138_52660)"/>
<path style="mix-blend-mode:multiply" opacity="0.4" d="M22.4754 11.2875C22.1528 11.2544 20.5772 11.3788 20.1898 11.443C20.2383 12.1552 20.1935 12.8526 20.0666 13.5235C20.121 13.657 20.1725 13.7925 20.2189 13.9312C20.7849 15.6276 20.5877 17.384 19.6484 19.0109C19.5458 19.1886 19.435 19.3588 19.3174 19.5227C19.3151 19.5258 19.3125 19.5294 19.3107 19.532C19.3106 19.5321 19.3155 19.5279 19.3182 19.5253C21.4509 17.4505 22.6931 14.4887 22.4754 11.2875Z" fill="url(#paint12_linear_22138_52660)"/>
<path style="mix-blend-mode:multiply" opacity="0.5" d="M14.3552 4.23074C14.5855 4.25431 14.8313 4.31087 15.0526 4.38518C15.0628 4.3886 15.0736 4.39149 15.0836 4.39498C15.0838 4.39478 15.084 4.39452 15.0841 4.39432C15.9899 4.76331 16.818 5.29092 17.5329 5.94354C17.5344 5.94482 17.536 5.94587 17.5375 5.94715C17.8821 5.55326 18.5455 5.12043 18.5455 5.12043C18.5455 5.12043 17.5296 4.08133 15.976 3.75886C14.8884 3.53311 12.4351 3.31427 10.8879 5.94715C10.8879 5.94715 10.8941 5.94135 10.9031 5.933C11.0176 5.76 11.1393 5.59186 11.2769 5.43655C12.0262 4.59101 13.14 4.10637 14.3552 4.23074Z" fill="url(#paint13_linear_22138_52660)"/>
<path style="mix-blend-mode:multiply" opacity="0.5" d="M17.5508 17.9243C17.4152 18.112 17.2433 18.2966 17.0683 18.4511C17.0603 18.4582 17.0524 18.4661 17.0443 18.4731C17.0444 18.4733 17.0445 18.4736 17.0446 18.4738C16.2722 19.0738 15.4012 19.5271 14.4786 19.8199C14.4767 19.8206 14.475 19.8214 14.4731 19.8221C14.642 20.3174 14.6851 21.1084 14.6851 21.1084C14.6851 21.1084 16.0929 20.7482 17.149 19.564C17.8884 18.7349 19.3045 16.7198 17.7979 14.0634C17.7979 14.0634 17.7999 14.0717 17.8026 14.0837C17.8952 14.2693 17.98 14.4587 18.0456 14.6556C18.4033 15.7272 18.266 16.9342 17.5508 17.9243Z" fill="url(#paint14_linear_22138_52660)"/>
<path style="mix-blend-mode:multiply" opacity="0.5" d="M4.095 13.8473C4.00023 13.636 3.92631 13.3949 3.88003 13.1661C3.8779 13.1556 3.875 13.1448 3.873 13.1343C3.87276 13.1343 3.87243 13.1342 3.87218 13.1342C3.73885 12.1653 3.78172 11.1843 3.98947 10.2389C3.9898 10.2369 3.98995 10.2351 3.99028 10.2331C3.47688 10.1317 2.77035 9.77356 2.77035 9.77356C2.77035 9.77356 2.37837 11.1728 2.87592 12.6796C3.22423 13.7344 4.26132 15.9683 7.31507 15.9918C7.31507 15.9918 7.30696 15.9894 7.29521 15.9857C7.08816 15.9731 6.8817 15.9518 6.67839 15.9102C5.5715 15.6841 4.59485 14.9618 4.095 13.8473Z" fill="url(#paint15_linear_22138_52660)"/>
<path style="mix-blend-mode:multiply" opacity="0.6" d="M13.9134 8.33202C13.9972 8.34262 14.0801 8.34557 14.1622 8.34427C14.1622 8.34427 14.1073 7.25329 13.9734 6.69354C13.8394 6.13379 13.6418 5.76311 13.4248 5.55331C13.2693 5.40302 12.7785 5.21583 12.3968 6.36932C12.2735 7.3301 12.9527 8.20874 13.9134 8.33202Z" fill="url(#paint16_linear_22138_52660)"/>
<path style="mix-blend-mode:multiply" opacity="0.5" d="M7.86669 12.1769C7.83396 12.099 7.79506 12.0258 7.75289 11.9553C7.75289 11.9553 6.83549 12.5483 6.41772 12.9442C5.99994 13.3401 5.77772 13.6965 5.70455 13.9894C5.65213 14.1992 5.73544 14.7179 6.92524 14.4717C7.81891 14.098 8.24028 13.0706 7.86669 12.1769Z" fill="url(#paint17_linear_22138_52660)"/>
<path style="mix-blend-mode:multiply" opacity="0.6" d="M14.2194 15.4902C14.1683 15.5575 14.1243 15.6278 14.0844 15.6996C14.0844 15.6996 15.0566 16.1976 15.6083 16.3614C16.1601 16.5253 16.5799 16.5395 16.8701 16.4565C17.078 16.397 17.4855 16.0655 16.6774 15.1582C15.907 14.5711 14.8065 14.7199 14.2194 15.4902Z" fill="url(#paint18_linear_22138_52660)"/>
<path style="mix-blend-mode:multiply" opacity="0.3" d="M13.8417 10.9669C13.6207 11.7005 13.3108 12.3662 12.9321 12.9541C12.9115 12.9849 12.8928 13.0159 12.8715 13.0467C12.8707 13.0478 12.8699 13.049 12.8691 13.0501C12.6186 13.4114 12.3206 13.7677 11.9708 14.1124C12.2112 14.3681 12.4711 14.6157 12.7566 14.8506C13.1151 15.1335 13.4665 15.361 13.7843 15.5411C14.585 14.7099 15.1556 13.8303 15.5586 12.9607C15.7164 12.6398 15.856 12.3082 15.976 11.9675C15.6066 11.6956 15.2324 11.4792 14.8876 11.3322C14.531 11.1802 14.1824 11.0608 13.8417 10.9669Z" fill="url(#paint19_linear_22138_52660)"/>
<path style="mix-blend-mode:multiply" opacity="0.3" d="M6.65787 18.2257C8.64887 18.4967 10.5642 17.8651 11.8689 17.0899C11.714 16.982 11.5564 16.8678 11.395 16.7448C10.8914 16.3611 10.4382 15.9287 10.0368 15.4598C9.05515 15.8891 7.82007 16.141 6.6748 15.9071C5.56791 15.681 4.59126 14.9587 4.0914 13.8442C3.99665 13.6329 3.92277 13.3918 3.87646 13.163C4.16573 15.1928 5.18997 16.9659 6.65787 18.2257Z" fill="url(#paint20_linear_22138_52660)"/>
<path style="mix-blend-mode:multiply" opacity="0.3" d="M11.9709 14.1123C11.4466 13.5544 11.0254 12.9536 10.7058 12.3321C10.6894 12.2988 10.6719 12.2671 10.6559 12.2333C10.6553 12.232 10.6548 12.2308 10.6541 12.2296C10.4664 11.8318 10.3068 11.3954 10.1832 10.92C9.84231 11.0002 9.49869 11.1013 9.15331 11.2308C8.72998 11.3995 8.35793 11.5896 8.04346 11.7743C8.3629 12.8826 8.83549 13.82 9.38683 14.6034C9.58541 14.8999 9.80239 15.186 10.0368 15.4598C10.4577 15.2757 10.8328 15.0595 11.1329 14.8341C11.4423 14.6017 11.7196 14.3599 11.9709 14.1123Z" fill="url(#paint21_linear_22138_52660)"/>
<path style="mix-blend-mode:multiply" opacity="0.3" d="M9.27752 4.26257C8.04736 5.85133 7.63666 7.82582 7.65565 9.34332C7.8272 9.26281 8.00568 9.18304 8.19364 9.10444C8.77707 8.86047 9.37741 8.68432 9.98348 8.57107C10.1026 7.50647 10.502 6.31123 11.277 5.43654C12.0263 4.591 13.1401 4.10636 14.3553 4.23073C14.5856 4.2543 14.8314 4.31086 15.0527 4.38517C15.0629 4.38858 15.0737 4.39147 15.0837 4.39497C15.0839 4.39477 15.0841 4.3945 15.0842 4.3943C13.9647 3.93826 12.728 3.72271 11.443 3.81012C10.6883 3.86146 9.96507 4.01587 9.28367 4.25511C9.28171 4.25764 9.27949 4.26003 9.27753 4.26256L9.27752 4.26257Z" fill="url(#paint22_linear_22138_52660)"/>
<path style="mix-blend-mode:multiply" opacity="0.3" d="M20.0623 13.5118C19.3011 11.6511 17.7954 10.3078 16.4712 9.56573C16.4551 9.75449 16.435 9.94885 16.4091 10.1508C16.3287 10.7781 16.181 11.3861 15.9761 11.9676C16.8392 12.603 17.6756 13.5471 18.0459 14.6565C18.4035 15.7281 18.2663 16.9351 17.551 17.9252C17.4154 18.1129 17.2435 18.2975 17.0686 18.452C17.066 18.4542 17.0635 18.4566 17.061 18.4589C18.6025 17.2473 19.6928 15.5011 20.0667 13.5235C20.0651 13.5197 20.0639 13.5157 20.0623 13.5118V13.5118Z" fill="url(#paint23_linear_22138_52660)"/>
<path style="mix-blend-mode:multiply" opacity="0.3" d="M9.97723 9.83383C10.0238 10.2178 10.0945 10.5787 10.1832 10.92C10.9293 10.7445 11.661 10.6799 12.3598 10.7139C12.3968 10.7164 12.433 10.7171 12.4703 10.7202C12.4717 10.7203 12.4731 10.7204 12.4744 10.7205C12.9121 10.7567 13.3691 10.8365 13.8418 10.9669C13.9429 10.6313 14.0272 10.2828 14.0878 9.91872C14.1537 9.46611 14.1748 9.04758 14.1719 8.68194C13.0525 8.40454 12.0062 8.35026 11.0523 8.43603C10.6955 8.45981 10.3385 8.50476 9.98348 8.57109C9.93239 9.02788 9.93206 9.46104 9.97723 9.83383H9.97723Z" fill="url(#paint24_linear_22138_52660)"/>
<defs>
<linearGradient id="paint0_linear_22138_52660" x1="4.83437" y1="19.1661" x2="18.2236" y2="5.77687" gradientUnits="userSpaceOnUse">
<stop offset="0.001139" stop-color="#E6007A"/>
<stop offset="0.207149" stop-color="#703AC2"/>
<stop offset="0.456011" stop-color="#0070EB"/>
<stop offset="0.768132" stop-color="#0297FB"/>
<stop offset="1" stop-color="#0AE2FF"/>
</linearGradient>
<radialGradient id="paint1_radial_22138_52660" cx="0" cy="0" r="1" gradientUnits="userSpaceOnUse" gradientTransform="translate(14.993 9.87461) scale(3.99231)">
<stop stop-color="white"/>
<stop offset="1" stop-color="white" stop-opacity="0"/>
</radialGradient>
<radialGradient id="paint2_radial_22138_52660" cx="0" cy="0" r="1" gradientUnits="userSpaceOnUse" gradientTransform="translate(9.09171 17.2808) scale(2.32276)">
<stop stop-color="white"/>
<stop offset="1" stop-color="white" stop-opacity="0"/>
</radialGradient>
<linearGradient id="paint3_linear_22138_52660" x1="5.60593" y1="16.8879" x2="7.84492" y2="16.8568" gradientUnits="userSpaceOnUse">
<stop stop-color="white" stop-opacity="0"/>
<stop offset="1" stop-color="white"/>
</linearGradient>
<radialGradient id="paint4_radial_22138_52660" cx="0" cy="0" r="1" gradientUnits="userSpaceOnUse" gradientTransform="translate(8.66276 10.4708) rotate(-120) scale(3.99231)">
<stop stop-color="white"/>
<stop offset="1" stop-color="white" stop-opacity="0"/>
</radialGradient>
<radialGradient id="paint5_radial_22138_52660" cx="0" cy="0" r="1" gradientUnits="userSpaceOnUse" gradientTransform="translate(18.0274 11.8781) rotate(-120) scale(2.32276)">
<stop stop-color="white"/>
<stop offset="1" stop-color="white" stop-opacity="0"/>
</radialGradient>
<linearGradient id="paint6_linear_22138_52660" x1="19.4301" y1="15.0934" x2="18.2837" y2="13.1699" gradientUnits="userSpaceOnUse">
<stop stop-color="white" stop-opacity="0"/>
<stop offset="1" stop-color="white"/>
</linearGradient>
<radialGradient id="paint7_radial_22138_52660" cx="0" cy="0" r="1" gradientUnits="userSpaceOnUse" gradientTransform="translate(12.1548 15.4696) rotate(120) scale(3.9923)">
<stop stop-color="white"/>
<stop offset="1" stop-color="white" stop-opacity="0"/>
</radialGradient>
<radialGradient id="paint8_radial_22138_52660" cx="0" cy="0" r="1" gradientUnits="userSpaceOnUse" gradientTransform="translate(8.87985 6.84057) rotate(120) scale(2.32276)">
<stop stop-color="white"/>
<stop offset="1" stop-color="white" stop-opacity="0"/>
</radialGradient>
<linearGradient id="paint9_linear_22138_52660" x1="10.9632" y1="4.01823" x2="9.8706" y2="5.9728" gradientUnits="userSpaceOnUse">
<stop stop-color="white" stop-opacity="0"/>
<stop offset="1" stop-color="white"/>
</linearGradient>
<linearGradient id="paint10_linear_22138_52660" x1="11.4499" y1="3.0247" x2="8.02918" y2="4.01981" gradientUnits="userSpaceOnUse">
<stop stop-color="#231F20"/>
<stop offset="1" stop-color="white"/>
</linearGradient>
<linearGradient id="paint11_linear_22138_52660" x1="4.98555" y1="16.0709" x2="7.84648" y2="19.0562" gradientUnits="userSpaceOnUse">
<stop stop-color="#231F20"/>
<stop offset="1" stop-color="white"/>
</linearGradient>
<linearGradient id="paint12_linear_22138_52660" x1="20.3402" y1="15.621" x2="21.3353" y2="12.5942" gradientUnits="userSpaceOnUse">
<stop stop-color="#231F20"/>
<stop offset="1" stop-color="white"/>
</linearGradient>
<linearGradient id="paint13_linear_22138_52660" x1="13.0085" y1="4.75555" x2="17.5947" y2="5.80565" gradientUnits="userSpaceOnUse">
<stop stop-color="#231F20"/>
<stop offset="1" stop-color="white"/>
</linearGradient>
<linearGradient id="paint14_linear_22138_52660" x1="17.7696" y1="16.4957" x2="14.5671" y2="19.9424" gradientUnits="userSpaceOnUse">
<stop stop-color="#231F20"/>
<stop offset="1" stop-color="white"/>
</linearGradient>
<linearGradient id="paint15_linear_22138_52660" x1="5.22282" y1="14.7511" x2="3.83915" y2="10.2544" gradientUnits="userSpaceOnUse">
<stop stop-color="#231F20"/>
<stop offset="1" stop-color="white"/>
</linearGradient>
<linearGradient id="paint16_linear_22138_52660" x1="14.0111" y1="6.44711" x2="12.5599" y2="7.89831" gradientUnits="userSpaceOnUse">
<stop stop-color="#231F20"/>
<stop offset="1" stop-color="white"/>
</linearGradient>
<linearGradient id="paint17_linear_22138_52660" x1="6.18543" y1="13.0347" x2="8.1678" y2="13.5659" gradientUnits="userSpaceOnUse">
<stop stop-color="#231F20"/>
<stop offset="1" stop-color="white"/>
</linearGradient>
<linearGradient id="paint18_linear_22138_52660" x1="15.8029" y1="16.5173" x2="15.2717" y2="14.535" gradientUnits="userSpaceOnUse">
<stop stop-color="#231F20"/>
<stop offset="1" stop-color="white"/>
</linearGradient>
<linearGradient id="paint19_linear_22138_52660" x1="12.7854" y1="14.7546" x2="13.6561" y2="13.5522" gradientUnits="userSpaceOnUse">
<stop stop-color="#231F20"/>
<stop offset="1" stop-color="white"/>
</linearGradient>
<linearGradient id="paint20_linear_22138_52660" x1="9.78729" y1="14.234" x2="8.04585" y2="15.0632" gradientUnits="userSpaceOnUse">
<stop stop-color="#231F20"/>
<stop offset="1" stop-color="white"/>
</linearGradient>
<linearGradient id="paint21_linear_22138_52660" x1="9.15541" y1="11.3352" x2="9.69443" y2="12.4547" gradientUnits="userSpaceOnUse">
<stop stop-color="#231F20"/>
<stop offset="1" stop-color="white"/>
</linearGradient>
<linearGradient id="paint22_linear_22138_52660" x1="11.6629" y1="7.8778" x2="11.2897" y2="6.59245" gradientUnits="userSpaceOnUse">
<stop stop-color="#231F20"/>
<stop offset="1" stop-color="white"/>
</linearGradient>
<linearGradient id="paint23_linear_22138_52660" x1="15.6846" y1="13.7628" x2="16.7627" y2="14.0115" gradientUnits="userSpaceOnUse">
<stop stop-color="#231F20"/>
<stop offset="1" stop-color="white"/>
</linearGradient>
<linearGradient id="paint24_linear_22138_52660" x1="13.9928" y1="10.121" x2="12.6246" y2="9.87225" gradientUnits="userSpaceOnUse">
<stop stop-color="#231F20"/>
<stop offset="1" stop-color="white"/>
</linearGradient>
</defs>
</svg>
