<svg width="24" height="24" viewBox="0 0 24 24" fill="none" xmlns="http://www.w3.org/2000/svg">
    <path fill-rule="evenodd" clip-rule="evenodd"
          d="M17.2773 4.10079C15.7151 3.05696 13.8782 2.49989 11.9993 2.5C10.752 2.5 9.51681 2.74572 8.36407 3.22312C7.21177 3.70051 6.16431 4.40021 5.28217 5.28229C4.40003 6.16443 3.70068 7.2116 3.2231 8.36411C2.74551 9.51667 2.5 10.752 2.5 11.9994C2.5 13.8784 3.05688 15.7152 4.10076 17.2776C5.14463 18.8399 6.62846 20.0576 8.36407 20.7767C10.1001 21.4958 12.0105 21.684 13.8531 21.3175C15.6963 20.9509 17.3889 20.0461 18.7177 18.7175C20.0461 17.3888 20.951 15.6961 21.3175 13.8532C21.684 12.0104 21.4958 10.1002 20.7768 8.36422C20.0577 6.62833 18.84 5.14463 17.2773 4.10079ZM11.9993 20.3118C11.9993 20.3118 8.90034 16.5904 8.90034 11.9994C8.90034 7.4091 11.9993 3.68763 11.9993 3.68763C11.9993 3.68763 15.0986 7.40854 15.0986 11.9994C15.0986 16.5904 11.9993 20.3118 11.9993 20.3118Z"
          fill="#4FFFB0"/>
</svg>
