<svg width="24" height="24" viewBox="0 0 24 24" fill="none" xmlns="http://www.w3.org/2000/svg">
    <path d="M22 2H2V22H22V2Z" fill="#DB378A"/>
    <path d="M7.54027 8.48438C8.00427 8.48438 8.38045 8.85928 8.38045 9.32177C8.38045 9.68386 8.14981 9.99231 7.82698 10.1091L7.82702 14.447C8.42803 14.4206 8.9869 14.311 9.48344 14.1293L9.48342 10.8036C9.16059 10.6868 8.92995 10.3784 8.92995 10.0163C8.92995 9.5538 9.30613 9.17889 9.77013 9.17889C10.2341 9.17889 10.6103 9.5538 10.6103 10.0163C10.6103 10.3784 10.3797 10.6868 10.0568 10.8036L10.0569 13.8727C10.6089 13.5752 11.0512 13.1726 11.3445 12.6864C11.1455 12.5077 11.0205 12.2489 11.0205 11.9609C11.0205 11.4217 11.459 10.9846 12 10.9846C12.0444 10.9846 12.0882 10.9876 12.131 10.9933C12.8771 9.70038 14.4768 8.9173 16.3855 8.8975L16.4597 8.89712H19.5258C19.6841 8.89712 19.8125 9.02505 19.8125 9.18286C19.8125 9.33504 19.6931 9.45943 19.5426 9.46812L19.5258 9.46861H18.9763L18.9763 13.8127C19.2992 13.9296 19.5298 14.238 19.5298 14.6001C19.5298 15.0626 19.1536 15.4375 18.6896 15.4375C18.2256 15.4375 17.8494 15.0626 17.8494 14.6001C17.8494 14.2379 18.0801 13.9295 18.403 13.8127L18.4029 9.46861H16.7464L16.7465 13.8127C17.0693 13.9296 17.2999 14.238 17.2999 14.6001C17.2999 15.0626 16.9237 15.4375 16.4597 15.4375C15.9957 15.4375 15.6196 15.0626 15.6196 14.6001C15.6196 14.238 15.8502 13.9296 16.173 13.8127L16.173 9.47487C15.572 9.50132 15.0131 9.61092 14.5166 9.79259L14.5166 13.1182C14.8394 13.235 15.07 13.5435 15.07 13.9056C15.07 14.368 14.6939 14.743 14.2299 14.743C13.7659 14.743 13.3897 14.368 13.3897 13.9056C13.3897 13.5435 13.6203 13.235 13.9431 13.1182L13.9431 10.0492C13.3911 10.3467 12.9488 10.7493 12.6555 11.2355C12.8545 11.4142 12.9795 11.673 12.9795 11.9609C12.9795 12.5001 12.541 12.9372 12 12.9372C11.9556 12.9372 11.9118 12.9343 11.869 12.9286C11.1229 14.2215 9.52319 15.0046 7.61451 15.0244L7.54027 15.0248H4.4742C4.31586 15.0248 4.1875 14.8968 4.1875 14.739C4.1875 14.5868 4.30685 14.4624 4.45735 14.4538L4.4742 14.4533L5.0237 14.4532L5.0237 10.1091C4.70086 9.99232 4.47022 9.68387 4.47022 9.32177C4.47022 8.85928 4.84639 8.48438 5.3104 8.48438C5.7744 8.48438 6.15058 8.85928 6.15058 9.32177C6.15058 9.68383 5.91998 9.99226 5.59719 10.1091L5.59709 14.4532H7.25354L7.25355 10.1091C6.93072 9.99231 6.70008 9.68386 6.70008 9.32177C6.70008 8.85928 7.07626 8.48438 7.54027 8.48438Z"
          fill="white"/>
</svg>
