<svg width="24" height="24" viewBox="0 0 24 24" fill="none" xmlns="http://www.w3.org/2000/svg">
<path fill-rule="evenodd" clip-rule="evenodd" d="M8.40848 21.9998H11.975C11.975 21.9998 11.975 15.1434 11.975 14.5155C11.975 13.5438 12.5432 12.6621 13.4279 12.2608L14.1196 11.947C15.0042 11.5456 15.5724 10.6639 15.5724 9.69236C15.5724 9.04723 15.5724 2 15.5724 2C15.5837 2 12.006 2 12.006 2V9.69236C12.006 10.6639 11.4378 11.5456 10.553 11.947L9.86144 12.2608C8.97669 12.6621 8.40848 13.5438 8.40848 14.5155V21.9998ZM21.0282 2.00012C21.7119 2.00012 22.266 2.55436 22.266 3.23802V9.48455C22.266 10.4561 21.698 11.3378 20.8132 11.7392L20.1216 12.0529C19.2369 12.4543 18.6686 13.336 18.6686 14.3076V20.762C18.6686 21.4457 18.1143 22 17.4306 22H15.102C15.102 22 15.102 14.9529 15.102 14.3076C15.102 13.336 15.6702 12.4543 16.555 12.0529L17.2466 11.7392C18.1313 11.3378 18.6996 10.4561 18.6996 9.48455V2.00012C18.6996 2.00012 20.252 2.00012 21.0282 2.00012ZM8.89791 2H6.56927C5.88559 2 5.33137 2.55422 5.33137 3.2379V9.69236C5.33137 10.6639 4.76316 11.5456 3.87843 11.947L3.18682 12.2608C2.30209 12.6621 1.73389 13.5438 1.73389 14.5155V20.762C1.73389 21.4457 2.28811 21.9998 2.97179 21.9998H5.30041C5.30041 19.505 5.30041 17.0102 5.30041 14.5155C5.30041 13.5438 5.86861 12.6621 6.75336 12.2608L7.44495 11.947C8.32968 11.5456 8.89791 10.6639 8.89791 9.69236C8.89791 7.12824 8.89791 4.56412 8.89791 2Z" fill="url(#paint0_linear_31565_127010)"/>
<defs>
<linearGradient id="paint0_linear_31565_127010" x1="5.60822" y1="2.75" x2="17.9903" y2="20.7916" gradientUnits="userSpaceOnUse">
<stop stop-color="#FEE45D"/>
<stop offset="0.145" stop-color="#FEE45D"/>
<stop offset="0.775" stop-color="#AEFEC3"/>
</linearGradient>
</defs>
</svg>
