<svg width="24" height="24" viewBox="0 0 24 24" fill="none" xmlns="http://www.w3.org/2000/svg">
    <rect x="2" y="2" width="20" height="20" fill="#0D106E"/>
    <path fill-rule="evenodd" clip-rule="evenodd"
          d="M4 12.0003L12.0029 4L20 12.0024L12.0029 20L4 12.0003ZM6.94469 9.61321C6.60677 9.99354 5.89947 10.9195 5.89947 12.0003C5.89947 13.0853 6.61232 14.0143 6.94865 14.3918L8.67872 16.1232L8.68685 16.1153C9.37945 15.438 10.5308 14.5479 11.8434 14.4801C11.513 14.8485 10.7842 15.7853 10.7842 16.8815C10.7842 17.9777 11.513 18.9145 11.8434 19.2829L12.0029 19.45L12.1623 19.2829C12.4927 18.9145 13.2215 17.9777 13.2215 16.8815C13.2215 15.7853 12.4927 14.8485 12.1623 14.4801C13.48 14.5481 14.6353 15.445 15.327 16.1232L17.0979 14.351L17.102 14.3463C17.4521 13.9439 18.1122 13.0443 18.1122 12.0003C18.1122 10.9522 17.447 10.0496 17.0979 9.64961L15.3352 7.88559L15.3271 7.89356C14.6352 8.57174 13.48 9.46855 12.1623 9.53662C12.4927 9.16817 13.2215 8.23143 13.2215 7.13519C13.2215 6.03897 12.4927 5.1022 12.1623 4.73378L12.0029 4.55056L11.8434 4.73378C11.513 5.1022 10.7842 6.03897 10.7842 7.13519C10.7842 8.23143 11.513 9.16817 11.8434 9.53662C10.5205 9.46829 9.36145 8.5647 8.67046 7.88559L6.94469 9.61321ZM7.28315 9.59907C9.41904 9.71209 11.1268 12.0003 11.1268 12.0003C11.1268 12.0003 9.41904 14.2885 7.28315 14.4015C7.61563 14.03 8.3406 13.0945 8.3406 12.0003C8.3406 10.9061 7.61563 9.97057 7.28315 9.59907ZM16.7285 9.59907C16.3961 9.97057 15.6711 10.9061 15.6711 12.0003C15.6711 13.0945 16.3961 14.03 16.7285 14.4015C14.5926 14.2885 12.8849 12.0003 12.8849 12.0003C12.8849 12.0003 14.5926 9.71209 16.7285 9.59907Z"
          fill="#52B2ED"/>
</svg>
