<svg width="24" height="24" viewBox="0 0 24 24" fill="none" xmlns="http://www.w3.org/2000/svg">
<path d="M5.96191 3.17065L8.82454 2.02805L11.015 3.35274L11.1046 11.4367L11.3777 20.9696L8.94579 22.0914L6.43355 20.892L5.96191 3.17065Z" fill="#FFF85B"/>
<path d="M18.3154 15.8342L18.6517 18.8072L15.6793 20.1714L8.93711 16.2682L11.684 11.4664L18.3154 15.8342Z" fill="#FFF85B"/>
<path d="M15.7468 6.05581L18.5658 7.56112L18.5227 10.3049L10.9394 14.6249L8.94585 10.1545L15.7468 6.05581Z" fill="#FFF85B"/>
<path fill-rule="evenodd" clip-rule="evenodd" d="M18.9665 7.19939L15.9473 5.48123L11.7642 7.91325L11.7674 3.1015L8.74818 1.38333L5.72836 3.13904L5.72516 7.95079L5.72402 10.1988L5.73167 12.3074L5.74339 13.4289L5.72402 16.1767L5.72339 18.3725L5.72367 20.9019L8.74104 22.6167L11.7609 20.861L11.7605 18.3316L15.9437 20.7094L15.9737 20.6919L18.9635 18.9537L18.966 15.4831L14.7828 13.1053L18.9659 10.6732L18.9665 7.19939ZM11.0041 3.54527L11.0009 8.357L9.12771 9.4461L9.13308 2.48259L11.0041 3.54527ZM6.49096 3.57623L8.36419 2.48714L8.36082 13.8036L6.48764 14.8927L6.49096 3.57623ZM5.72339 18.3725L5.72436 15.3364L5.72407 17.4915L5.72339 18.3725ZM6.48764 14.8927L8.36082 13.8036L8.36122 18.9259L6.48804 20.015L6.48764 14.8927ZM11.0001 20.4271L8.74361 21.7391L6.87066 20.6731L9.12719 19.3611V13.3364L10.9994 14.3078L11.0001 20.4271ZM15.943 19.8337L11.7598 17.4559L11.7601 15.3008L17.8162 18.7446L15.943 19.8337ZM18.2028 15.9269L18.2006 18.0786L12.1444 14.6349L14.0176 13.5458L18.2028 15.9269ZM10.9994 14.3078L9.12719 13.3364L15.9471 9.39296L17.82 10.4589L10.9994 14.3078ZM15.9497 8.51528L15.9197 8.53276L8.36111 12.8793L8.36179 10.6508L15.9533 6.35828L18.2066 7.6412L18.203 9.7982L15.9497 8.51528Z" fill="#151515"/>
</svg>
