<svg width="24" height="24" viewBox="0 0 24 24" fill="none" xmlns="http://www.w3.org/2000/svg">
<path d="M24 12.5549L22.3911 11.0798L20.8315 12.7809C20.24 13.4263 19.3789 13.7554 18.5076 13.6693L18.0991 13.6289C17.5184 13.5715 16.9442 13.791 16.5499 14.2212L10.375 20.9567L11.9839 22.4317L19.0314 14.7444C19.4865 14.248 20.1749 14.0374 20.8299 14.1941L21.136 14.2674C21.7909 14.4241 22.4794 14.2134 22.9344 13.717L24 12.5549Z" fill="url(#paint0_linear_12600_61556)"/>
<path d="M20.5428 9.38432L18.934 7.9093L15.7356 11.398C15.1439 12.0434 14.283 12.3725 13.4117 12.2864L13.0033 12.2461C12.4224 12.1887 11.8484 12.4081 11.454 12.8383L6.91797 17.7862L8.5269 19.2611L13.9355 13.3616C14.3906 12.8652 15.079 12.6545 15.734 12.8113L16.04 12.8845C16.695 13.0412 17.3834 12.8306 17.8385 12.3342L20.5428 9.38432Z" fill="url(#paint1_linear_12600_61556)"/>
<path d="M17.082 6.21379L15.4731 4.73877L10.6358 10.0152C10.0441 10.6606 9.18311 10.9897 8.31183 10.9036L7.90341 10.8632C7.32255 10.8058 6.74855 11.0253 6.35412 11.4555L3.45703 14.6156L5.06597 16.0906L8.83561 11.9787C9.29071 11.4823 9.97917 11.2717 10.6341 11.4284L10.9402 11.5017C11.5951 11.6584 12.2836 11.4478 12.7387 10.9513L17.082 6.21379Z" fill="url(#paint2_linear_12600_61556)"/>
<path d="M13.6249 3.04326L12.016 1.56824L5.53978 8.63236C4.94814 9.27775 4.08716 9.60688 3.21586 9.52077L2.80744 9.4804C2.22658 9.42301 1.6526 9.64244 1.25816 10.0727L0 11.4451L1.60891 12.9201L3.73966 10.5959C4.19476 10.0995 4.88322 9.88885 5.53819 10.0456L5.84423 10.1188C6.49918 10.2756 7.18764 10.0649 7.64274 9.5685L13.6249 3.04326Z" fill="url(#paint3_linear_12600_61556)"/>
<defs>
<linearGradient id="paint0_linear_12600_61556" x1="22.3911" y1="11.0798" x2="11.9839" y2="22.4317" gradientUnits="userSpaceOnUse">
<stop offset="0.209652" stop-color="#0BA37B"/>
<stop offset="0.335908" stop-color="#0CFEC0"/>
</linearGradient>
<linearGradient id="paint1_linear_12600_61556" x1="18.934" y1="7.9093" x2="8.5269" y2="19.2611" gradientUnits="userSpaceOnUse">
<stop offset="0.321604" stop-color="#13936C"/>
<stop offset="0.506424" stop-color="#28D596"/>
</linearGradient>
<linearGradient id="paint2_linear_12600_61556" x1="15.473" y1="4.73877" x2="5.06597" y2="16.0906" gradientUnits="userSpaceOnUse">
<stop offset="0.501239" stop-color="#1D8C68"/>
<stop offset="0.641372" stop-color="#15B786"/>
</linearGradient>
<linearGradient id="paint3_linear_12600_61556" x1="12.016" y1="1.56824" x2="1.60891" y2="12.9201" gradientUnits="userSpaceOnUse">
<stop offset="0.649631" stop-color="#1B7E5E"/>
<stop offset="0.796711" stop-color="#13A076"/>
</linearGradient>
</defs>
</svg>
