<svg width="24" height="24" viewBox="0 0 24 24" fill="none" xmlns="http://www.w3.org/2000/svg">
<rect x="2" y="2" width="20" height="20" fill="black"/>
<g filter="url(#filter0_f_7426_41586)">
<path d="M11.9593 15.232C13.8714 15.232 15.4214 13.673 15.4214 11.7499C15.4214 9.82689 13.8714 8.26794 11.9593 8.26794C10.0471 8.26794 8.49707 9.82689 8.49707 11.7499C8.49707 13.673 10.0471 15.232 11.9593 15.232Z" fill="#2622FB"/>
</g>
<path d="M11.9593 15.232C13.8714 15.232 15.4214 13.673 15.4214 11.7499C15.4214 9.82689 13.8714 8.26794 11.9593 8.26794C10.0471 8.26794 8.49707 9.82689 8.49707 11.7499C8.49707 13.673 10.0471 15.232 11.9593 15.232Z" fill="#6822FB"/>
<g filter="url(#filter1_f_7426_41586)">
<path d="M18.2971 13.5851C17.9593 14.8283 17.2663 15.9464 16.3028 16.8027C15.3394 17.6591 14.139 18.1499 12.8636 18.3405L16.8898 14.0096C17.0369 13.8495 17.2192 13.7257 17.4224 13.648C17.6256 13.5702 17.844 13.5407 18.0606 13.5617L18.2971 13.5851ZM10.9002 5.41699L7.10236 9.55483C6.93324 9.73893 6.71798 9.87459 6.47882 9.94779C6.23967 10.021 5.98528 10.0291 5.74195 9.97122L5.69629 9.96066C6.05406 8.7943 6.7308 7.75095 7.65025 6.94816C8.5697 6.14537 9.69531 5.61506 10.9002 5.41699Z" stroke="#E2FDFF" stroke-opacity="0.8" stroke-width="0.5" stroke-miterlimit="10"/>
<path d="M10.9 5.41711C9.36642 5.66941 7.97247 6.45775 6.96677 7.6415C5.96107 8.82526 5.40905 10.3274 5.40918 11.88V11.9081L6.15145 11.0976C6.29854 10.9375 6.48085 10.8137 6.68402 10.7359C6.88718 10.6582 7.10564 10.6287 7.32218 10.6497L8.43672 10.7596C8.76148 10.7911 9.08914 10.7469 9.39388 10.6304C9.69862 10.5139 9.97212 10.3283 10.1928 10.0883L14.205 5.71769C14.9476 5.98757 15.635 6.38978 16.2339 6.90479L12.4699 11.0052C12.3008 11.1893 12.0856 11.325 11.8464 11.3982C11.6072 11.4713 11.3529 11.4794 11.1095 11.4215L10.1577 11.1877C9.91438 11.1298 9.66 11.1379 9.42084 11.2111C9.18169 11.2842 8.96643 11.4199 8.79731 11.604L5.96411 14.6647C6.34813 15.4904 6.95575 16.1991 7.63125 16.7933L11.5251 12.5548C11.6722 12.3947 11.8546 12.2709 12.0577 12.1932C12.2609 12.1155 12.4794 12.0859 12.6959 12.1069L13.8116 12.2168C14.1364 12.2484 14.464 12.2041 14.7688 12.0877C15.0735 11.9712 15.347 11.7856 15.5678 11.5455L17.8741 9.03218C18.2792 9.87254 18.4999 10.7896 18.5215 11.7221L17.8472 12.4648C17.6781 12.6489 17.4628 12.7845 17.2236 12.8577C16.9845 12.9309 16.7301 12.939 16.4868 12.8811L15.5338 12.6531C15.2905 12.5952 15.0361 12.6033 14.7969 12.6765C14.5578 12.7497 14.3425 12.8853 14.1734 13.0694L9.64376 18.0037C10.3872 18.286 11.1759 18.4302 11.9712 18.4295C12.2823 18.4299 12.593 18.4076 12.9008 18.3628V18.3628C14.17 18.1812 15.3581 17.6319 16.318 16.7827C17.2779 15.9335 17.9675 14.8218 18.3014 13.5852" stroke="#E2FDFF" stroke-opacity="0.8" stroke-width="0.5" stroke-miterlimit="10"/>
</g>
<path d="M18.2971 13.5851C17.9593 14.8283 17.2663 15.9464 16.3028 16.8027C15.3394 17.6591 14.139 18.1499 12.8636 18.3405L16.8898 14.0096C17.0369 13.8495 17.2192 13.7257 17.4224 13.648C17.6256 13.5702 17.844 13.5407 18.0606 13.5617L18.2971 13.5851ZM10.9002 5.41699L7.10236 9.55483C6.93324 9.73893 6.71798 9.87459 6.47882 9.94779C6.23967 10.021 5.98528 10.0291 5.74195 9.97122L5.69629 9.96066C6.05406 8.7943 6.7308 7.75095 7.65025 6.94816C8.5697 6.14537 9.69531 5.61506 10.9002 5.41699Z" stroke="white" stroke-width="0.234149" stroke-miterlimit="10"/>
<path d="M10.9 5.41711C9.36642 5.66941 7.97247 6.45775 6.96677 7.6415C5.96107 8.82526 5.40905 10.3274 5.40918 11.88V11.9081L6.15145 11.0976C6.29854 10.9375 6.48085 10.8137 6.68402 10.7359C6.88718 10.6582 7.10564 10.6287 7.32218 10.6497L8.43672 10.7596C8.76148 10.7911 9.08914 10.7469 9.39388 10.6304C9.69862 10.5139 9.97212 10.3283 10.1928 10.0883L14.205 5.71769C14.9476 5.98757 15.635 6.38978 16.2339 6.90479L12.4699 11.0052C12.3008 11.1893 12.0856 11.325 11.8464 11.3982C11.6072 11.4713 11.3529 11.4794 11.1095 11.4215L10.1577 11.1877C9.91438 11.1298 9.66 11.1379 9.42084 11.2111C9.18169 11.2842 8.96643 11.4199 8.79731 11.604L5.96411 14.6647C6.34813 15.4904 6.95575 16.1991 7.63125 16.7933L11.5251 12.5548C11.6722 12.3947 11.8546 12.2709 12.0577 12.1932C12.2609 12.1155 12.4794 12.0859 12.6959 12.1069L13.8116 12.2168C14.1364 12.2484 14.464 12.2041 14.7688 12.0877C15.0735 11.9712 15.347 11.7856 15.5678 11.5455L17.8741 9.03218C18.2792 9.87254 18.4999 10.7896 18.5215 11.7221L17.8472 12.4648C17.6781 12.6489 17.4628 12.7845 17.2236 12.8577C16.9845 12.9309 16.7301 12.939 16.4868 12.8811L15.5338 12.6531C15.2905 12.5952 15.0361 12.6033 14.7969 12.6765C14.5578 12.7497 14.3425 12.8853 14.1734 13.0694L9.64376 18.0037C10.3872 18.286 11.1759 18.4302 11.9712 18.4295C12.2823 18.4299 12.593 18.4076 12.9008 18.3628C14.17 18.1812 15.3581 17.6319 16.318 16.7827C17.2779 15.9335 17.9675 14.8218 18.3014 13.5852" stroke="white" stroke-width="0.244069" stroke-miterlimit="10"/>
<defs>
<filter id="filter0_f_7426_41586" x="6.49707" y="6.26794" width="10.9248" height="10.964" filterUnits="userSpaceOnUse" color-interpolation-filters="sRGB">
<feFlood flood-opacity="0" result="BackgroundImageFix"/>
<feBlend mode="normal" in="SourceGraphic" in2="BackgroundImageFix" result="shape"/>
<feGaussianBlur stdDeviation="1" result="effect1_foregroundBlur_7426_41586"/>
</filter>
<filter id="filter1_f_7426_41586" x="4.15918" y="4.05298" width="15.6143" height="15.6403" filterUnits="userSpaceOnUse" color-interpolation-filters="sRGB">
<feFlood flood-opacity="0" result="BackgroundImageFix"/>
<feBlend mode="normal" in="SourceGraphic" in2="BackgroundImageFix" result="shape"/>
<feGaussianBlur stdDeviation="0.5" result="effect1_foregroundBlur_7426_41586"/>
</filter>
</defs>
</svg>
