<svg width="25" height="24" viewBox="0 0 25 24" fill="none" xmlns="http://www.w3.org/2000/svg">
<path d="M12.0637 22.5C17.8627 22.5 22.5637 17.799 22.5637 12C22.5637 6.20101 17.8627 1.5 12.0637 1.5C6.26473 1.5 1.56372 6.20101 1.56372 12C1.56372 17.799 6.26473 22.5 12.0637 22.5Z" fill="#321D47"/>
<path d="M16.7153 15.0294H14.1631L13.6836 13.8061H10.4442L9.96479 15.0294H7.4126L10.4669 7.75671H13.6572L16.7153 15.0294ZM12.0677 9.64688L11.222 11.8173H12.9096L12.0677 9.64688Z" fill="white"/>
<path d="M13.7647 4.4405C13.7647 5.37994 13.0032 6.1415 12.0637 6.1415C11.1243 6.1415 10.3627 5.37994 10.3627 4.4405C10.3627 3.50107 11.1243 2.7395 12.0637 2.7395C13.0032 2.7395 13.7647 3.50107 13.7647 4.4405Z" fill="#E40B7B"/>
<path d="M13.7647 19.5605C13.7647 20.4999 13.0032 21.2615 12.0637 21.2615C11.1243 21.2615 10.3627 20.4999 10.3627 19.5605C10.3627 18.6211 11.1243 17.8595 12.0637 17.8595C13.0032 17.8595 13.7647 18.6211 13.7647 19.5605Z" fill="#E40B7B"/>
<path d="M19.4613 9.6941C18.6477 10.1638 17.6074 9.88507 17.1377 9.07149C16.668 8.25792 16.9467 7.2176 17.7603 6.74788C18.5739 6.27817 19.6142 6.55692 20.0839 7.37049C20.5536 8.18407 20.2749 9.22439 19.4613 9.6941Z" fill="#E40B7B"/>
<path d="M6.36697 17.2541C5.5534 17.7238 4.51308 17.4451 4.04336 16.6315C3.57365 15.8179 3.8524 14.7776 4.66597 14.3079C5.47955 13.8382 6.51986 14.1169 6.98958 14.9305C7.4593 15.7441 7.18055 16.7844 6.36697 17.2541Z" fill="#E40B7B"/>
<path d="M4.66597 9.6941C5.47955 10.1638 6.51986 9.88506 6.98958 9.07149C7.4593 8.25791 7.18055 7.21759 6.36697 6.74788C5.55339 6.27816 4.51308 6.55691 4.04336 7.37049C3.57364 8.18406 3.85239 9.22438 4.66597 9.6941Z" fill="#E40B7B"/>
<path d="M17.7603 17.2541C18.5738 17.7238 19.6142 17.4451 20.0839 16.6315C20.5536 15.8179 20.2748 14.7776 19.4613 14.3079C18.6477 13.8382 17.6074 14.1169 17.1377 14.9305C16.6679 15.7441 16.9467 16.7844 17.7603 17.2541Z" fill="#E40B7B"/>
</svg>
