<svg width="24" height="24" viewBox="0 0 24 24" fill="none" xmlns="http://www.w3.org/2000/svg">
<path d="M21.1101 18.5737V16.1023L16.8758 11.8281H14.3257L21.1101 18.5737Z" fill="#1C1C26"/>
<path d="M2.89062 5.63379V8.10549L7.12492 12.3793H9.67503L2.89062 5.63379Z" fill="#1C1C26"/>
<path d="M5.11426 2.99414H7.58564L11.8598 7.22845L16.096 2.99414H18.6785L11.8598 9.77855L5.11426 2.99414Z" fill="#1C1C26"/>
<path d="M5.53027 21.0056H8.00165L12.2755 16.7713L16.5111 21.0056H19.0936L12.2755 14.2212L5.53027 21.0056Z" fill="#1C1C26"/>
<path d="M12.0215 13.1636C12.6477 13.1636 13.1553 12.656 13.1553 12.0298C13.1553 11.4036 12.6477 10.896 12.0215 10.896C11.3953 10.896 10.8877 11.4036 10.8877 12.0298C10.8877 12.656 11.3953 13.1636 12.0215 13.1636Z" fill="#E6007A"/>
</svg>
