<svg width="130" height="40" viewBox="0 0 130 40" fill="none" xmlns="http://www.w3.org/2000/svg">
<path d="M25.3863 22.5295C24.5941 22.5295 23.8237 22.5973 23.0784 22.7266L24.2262 20.6899C24.6137 20.6637 25.0016 20.6505 25.3863 20.6505C26.2876 20.6505 27.2046 20.7267 28.0912 20.8725L23.6345 12.9636L16.2153 26.1293L15.155 24.2478L23.6178 9.23018L23.6352 9.26118L23.6519 9.23155L33.8647 27.3547H31.7442L29.3572 23.119C28.1136 22.7347 26.784 22.5295 25.3863 22.5295Z"
      fill="white" />
<path d="M34.5247 26.161L24.637 8.61483H26.7576L35.585 24.2795L34.5247 26.161Z" fill="white" />
<path d="M24.711 17.2714L20.651 24.4761C22.1037 24.0271 23.8138 23.8265 25.4271 23.8265C25.5575 23.8265 25.6883 23.8282 25.8192 23.8314C26.7358 23.8535 27.6617 23.9529 28.5488 24.1225L29.9034 26.5264C28.5168 26.0096 27.016 25.7056 25.4271 25.7056C23.0773 25.7056 20.9192 26.3011 19.0398 27.337L19.0694 27.2828L19.0288 27.3547H16.9083L23.6507 15.3898L24.711 17.2714Z"
      fill="white" />
<path fill-rule="evenodd" clip-rule="evenodd"
      d="M25.521 36.7347C34.542 36.7347 41.8548 29.2424 41.8548 20C41.8548 10.7577 34.542 3.26531 25.521 3.26531C16.5 3.26531 9.1871 10.7577 9.1871 20C9.1871 29.2424 16.5 36.7347 25.521 36.7347ZM25.5608 34.6939C33.5037 34.6939 39.9426 28.0969 39.9426 19.9592C39.9426 11.8215 33.5037 5.22449 25.5608 5.22449C17.618 5.22449 11.179 11.8215 11.179 19.9592C11.179 28.0969 17.618 34.6939 25.5608 34.6939Z"
      fill="white" />
<path fill-rule="evenodd" clip-rule="evenodd"
      d="M25.521 40C36.3021 40 45.042 31.0457 45.042 20C45.042 8.95431 36.3021 0 25.521 0C14.7398 0 6 8.95431 6 20C6 31.0457 14.7398 40 25.521 40ZM25.6007 38.1225C35.3697 38.1225 43.2891 30.0087 43.2891 20C43.2891 9.99127 35.3697 1.87755 25.6007 1.87755C15.8316 1.87755 7.91226 9.99127 7.91226 20C7.91226 30.0087 15.8316 38.1225 25.6007 38.1225Z"
      fill="white" />
<path fill-rule="evenodd" clip-rule="evenodd"
      d="M56.1699 22.4676H60.9873L58.5666 15.2288L56.1699 22.4676ZM62.9481 28.4129L61.8588 25.1542H55.2742L54.1848 28.4129H50.5778L56.5572 11H60.6L66.5551 28.4129H62.9481Z"
      fill="white" />
<path fill-rule="evenodd" clip-rule="evenodd"
      d="M70.7911 26.6716C69.5645 25.3782 68.9514 23.6617 68.9514 21.5225C68.9514 19.3832 69.5645 17.6666 70.7911 16.3733C72.0176 15.0796 73.6072 14.433 75.5602 14.433C77.1901 14.433 78.5537 14.8394 79.6514 15.6517C80.7487 16.4645 81.4828 17.6171 81.8544 19.1095H78.1746C77.7388 17.9653 76.8674 17.393 75.5602 17.393C74.5755 17.393 73.8052 17.7623 73.2483 18.5001C72.6915 19.2383 72.4132 20.2456 72.4132 21.5225C72.4132 22.7995 72.6915 23.8071 73.2483 24.5447C73.8052 25.2829 74.5755 25.6517 75.5602 25.6517C76.8512 25.6517 77.7226 25.0714 78.1746 23.9105H81.8544C81.4671 25.3533 80.7204 26.4975 79.6152 27.3434C78.5095 28.189 77.158 28.6119 75.5602 28.6119C73.6072 28.6119 72.0176 27.9653 70.7911 26.6716Z"
      fill="white" />
<path fill-rule="evenodd" clip-rule="evenodd"
      d="M94.2109 24.495C94.9209 23.7736 95.2759 22.7829 95.2759 21.5225C95.2759 20.2624 94.9209 19.2713 94.2109 18.5497C93.5006 17.8285 92.6694 17.4677 91.7174 17.4677C90.765 17.4677 89.9382 17.8245 89.2362 18.5374C88.5341 19.2506 88.1831 20.2375 88.1831 21.4975C88.1831 22.758 88.538 23.7531 89.2483 24.4826C89.9582 25.2125 90.7856 25.5771 91.7295 25.5771C92.6738 25.5771 93.5006 25.2165 94.2109 24.495ZM86.5248 26.6094C85.3224 25.2747 84.7213 23.5707 84.7213 21.4975C84.7213 19.4247 85.3182 17.7288 86.5127 16.4105C87.7069 15.092 89.2241 14.4328 91.064 14.4328C92.9037 14.4328 94.3076 15.2125 95.276 16.7713V14.6318H98.6649V28.4129H95.276V26.0995C94.2594 27.7747 92.8469 28.6119 91.0396 28.6119C89.2319 28.6119 87.7269 27.9445 86.5248 26.6094Z"
      fill="white" />
<path fill-rule="evenodd" clip-rule="evenodd"
      d="M119.545 24.495C120.256 23.7736 120.611 22.7829 120.611 21.5225C120.611 20.2624 120.256 19.2713 119.545 18.5497C118.836 17.8285 118.004 17.4677 117.052 17.4677C116.1 17.4677 115.273 17.8245 114.571 18.5374C113.869 19.2506 113.518 20.2375 113.518 21.4975C113.518 22.758 113.873 23.7531 114.583 24.4826C115.293 25.2125 116.12 25.5771 117.065 25.5771C118.009 25.5771 118.836 25.2165 119.545 24.495ZM111.859 26.6094C110.657 25.2747 110.056 23.5707 110.056 21.4975C110.056 19.4247 110.653 17.7288 111.848 16.4105C113.042 15.092 114.559 14.4328 116.399 14.4328C118.239 14.4328 119.643 15.2125 120.611 16.7713V14.6318H124V28.4129H120.611V26.0995C119.595 27.7747 118.182 28.6119 116.375 28.6119C114.567 28.6119 113.062 27.9445 111.859 26.6094Z"
      fill="white" />
<path fill-rule="evenodd" clip-rule="evenodd" d="M102.988 28.4128H106.401V11.0259H102.988V28.4128Z" fill="white" />
</svg>
