<svg width="130" height="40" viewBox="0 0 130 40" fill="none" xmlns="http://www.w3.org/2000/svg">
    <path fill-rule="evenodd" clip-rule="evenodd"
          d="M29.3137 10H13V19.5011H17.0797V23.3021H13V29H17.0772V25.2014H17.0797V23.3021H29.3137V19.5011H33.3933V13.8009H29.3137V10ZM29.3137 13.8009V19.5011H17.0797V13.8009H29.3137Z"
          fill="white"/>
    <path d="M40.0353 10.0023V19.5011H49.2643V10.0023H53.8677V29H49.2643V23.3021H40.0353V29H35.4319V10.0023H40.0353Z"
          fill="white"/>
    <path fill-rule="evenodd" clip-rule="evenodd"
          d="M71.5781 25.2014H62.2335L60.5761 29H55.8349L64.6877 10.0023H69.4288L78.1414 29H73.2232L71.5781 25.2014ZM69.9379 21.4005L66.9329 14.4791L63.9033 21.4005H69.9379Z"
          fill="white"/>
    <path fill-rule="evenodd" clip-rule="evenodd"
          d="M101.087 25.2014H110.432L112.082 29H117L108.29 10.0023H103.541L94.6886 29H99.4298L101.087 25.2014ZM105.789 14.4791L108.794 21.4005H102.757L105.789 14.4791Z"
          fill="white"/>
    <path d="M84.9014 10.0023V25.2564H93.6411V29H80.298V10.0023H84.9014Z" fill="white"/>
</svg>
