<svg width="130" height="40" viewBox="0 0 130 40" fill="none" xmlns="http://www.w3.org/2000/svg">
<path fill-rule="evenodd" clip-rule="evenodd" d="M16.8105 5.56786C13.8168 7.00133 11.0787 9.65903 9.65269 12.5161C8.54652 14.7322 8.12748 16.4102 8.02847 19.0216C7.963 20.7461 7.99854 21.2865 8.26131 22.5704C8.92368 25.8062 10.1398 28.0948 12.4411 30.4363C14.6251 32.6584 16.7099 33.8676 19.7177 34.6568C20.7872 34.9374 21.3779 34.9951 23.2337 34.9999C24.6194 35.0034 25.7639 34.9322 26.2556 34.8118C31.2485 33.5902 34.9138 30.7361 37.0275 26.4233C37.8716 24.7011 37.9045 24.4115 37.14 25.4342C35.2909 27.9076 32.4638 29.8142 29.4214 30.6396C27.9964 31.0261 24.7433 31.1092 23.2219 30.7978C20.6145 30.2644 18.3524 29.0743 16.4017 27.2097C15.0084 25.8781 14.1607 24.7518 13.4102 23.2355C10.4298 17.2136 12.0522 9.98263 17.3337 5.75066C17.6899 5.46527 18.0427 5.17945 18.118 5.11551C18.4145 4.86326 17.9367 5.02862 16.8105 5.56786ZM24.2466 5.305C19.7789 5.99463 16.0762 9.26626 14.8236 13.6309C14.3529 15.2706 14.2247 16.9428 14.4478 18.5296C14.6619 20.0521 14.8127 20.3507 14.9452 19.514C15.1946 17.9392 16.5123 15.6676 17.9154 14.3938C20.0893 12.4202 23.2407 11.4446 25.5388 12.034C27.5498 12.5498 28.7573 13.8295 29.1912 15.9048C29.2493 16.1831 29.479 16.3771 30.1116 16.6824C30.5751 16.9062 31.3055 17.31 31.7348 17.5798L32.5153 18.0705L31.6355 18.0737C28.2339 18.0865 26.0402 19.8317 25.8557 22.6719C25.7334 24.553 26.5035 25.9631 28.0777 26.7408C28.7446 27.0704 29.0773 27.1397 29.989 27.1397C31.4591 27.1397 32.6527 26.5925 33.9801 25.3095C36.3287 23.0399 37.5023 20.2426 37.5023 16.9146C37.5023 12.4017 35.0969 8.45704 31.1107 6.43332C29.0876 5.40613 26.426 4.96861 24.2466 5.305ZM114.059 8.91752C111.501 9.61762 109.532 11.441 108.698 13.8795C108.296 15.0552 108.26 17.165 108.622 18.3834C109.309 20.6996 111.136 22.5806 113.517 23.4234C115.851 24.2493 119.379 23.6837 121.527 22.1392L121.95 21.8353V16.3334H119.368L119.288 20.4735L118.424 20.8343C117.152 21.3657 115.299 21.3565 114.151 20.8132C111.96 19.7763 110.776 17.3332 111.356 15.0466C111.621 14.0051 111.855 13.5876 112.658 12.7248C114.434 10.8161 117.678 10.6859 119.843 12.4362C120.148 12.6829 120.44 12.8227 120.49 12.7468C120.541 12.6708 120.902 12.1945 121.291 11.6884L122 10.768L121.657 10.4873C119.746 8.92522 116.489 8.2523 114.059 8.91752ZM41.5704 8.97085C41.5293 9.07925 41.5149 9.65206 41.5383 10.244L41.5811 11.3202L46.114 11.4003V23.5988H48.992V11.4003L53.5249 11.3202V8.84995L47.5851 8.81203C42.6953 8.78078 41.632 8.80883 41.5704 8.97085ZM55.3236 13.7599C55.3236 19.2719 55.3967 19.885 56.2066 21.1594C57.0985 22.5627 58.6115 23.4735 60.5041 23.7463C63.4341 24.1684 65.9798 23.1229 67.2322 20.9832C67.9893 19.6897 68.0575 19.0961 68.0582 13.7905L68.0589 8.84995L65.2698 8.76698L65.2253 13.8217C65.1826 18.6738 65.1685 18.8995 64.8711 19.4575C64.1956 20.7249 63.3221 21.1983 61.6553 21.1999C60.5783 21.2011 60.3515 21.1534 59.758 20.801C59.3873 20.581 58.9423 20.2002 58.7695 19.955C58.1196 19.0333 58.0578 18.4707 58.0578 13.4767V8.7773H55.3236V13.7599ZM71.4406 23.5988H74.1747V19.2395H78.0018L80.5361 23.5988H82.1093C83.5645 23.5988 83.6719 23.5798 83.543 23.3445C83.4664 23.2046 82.7624 22.1094 81.9786 20.9106L80.5534 18.731L81.0307 18.4746C81.7259 18.1013 82.4647 17.3033 82.9167 16.4375C83.2818 15.7379 83.3123 15.5506 83.3124 14.0084C83.3124 12.4651 83.2811 12.2728 82.9022 11.4936C82.3827 10.4255 81.407 9.62343 80.1014 9.19128C79.2331 8.90401 78.7637 8.86695 75.2899 8.81115L71.4406 8.7494V23.5988ZM86.5502 23.5988H89.2843V8.7773H86.5502V23.5988ZM92.8819 23.5988H95.6122L95.6879 13.4998L103.171 23.5862L105.833 23.5988V8.7664L103.171 8.84995L103.027 18.8561L95.5472 8.7773H92.8819V23.5988ZM79.2113 11.568C80.6785 12.2236 81.2092 14.1196 80.3327 15.575C79.7791 16.4944 79.1502 16.6869 76.5131 16.7439L74.1747 16.7943V11.2128L76.4412 11.2778C78.0572 11.3241 78.8521 11.4074 79.2113 11.568ZM25.6182 14.2367C25.3152 14.5429 25.3335 14.821 25.68 15.1709C26.0265 15.5208 26.3019 15.5392 26.6051 15.2332C26.8735 14.9622 26.9007 14.4273 26.6585 14.1828C26.4163 13.9382 25.8866 13.9657 25.6182 14.2367ZM46.042 31.2275L46.8235 31.3185L46.9054 28.189L47.9847 29.6711C49.0003 31.0661 49.4756 31.4645 49.8472 31.2326C49.9435 31.1726 49.9993 30.3135 49.9993 28.894V26.6503H49.1457L49.0639 29.7173L47.9349 28.1839C46.9487 26.8444 46.7524 26.6503 46.3843 26.6503H45.9627L46.042 31.2275ZM51.7981 31.2275H55.1078V30.8642C55.1078 30.5074 55.0852 30.5002 53.8403 30.4588L52.5728 30.4167L52.6615 29.3385L53.7047 29.2958C54.7052 29.2548 54.748 29.2385 54.748 28.8962C54.748 28.5489 54.719 28.5393 53.6688 28.5393H52.5895V27.5221H55.0358V26.6503H51.7188L51.7981 31.2275ZM56.187 27.0862C56.187 27.5056 56.2115 27.5221 56.8303 27.5221H57.4735L57.5541 31.2275L58.3456 31.3195V27.5221H59.0651C59.7686 27.5221 59.7846 27.5124 59.7846 27.0862V26.6503H56.187V27.0862ZM61.2822 28.9389C62.0248 31.1864 62.0461 31.2282 62.475 31.2715C62.9048 31.315 62.9176 31.2965 63.2817 30.1091C63.485 29.4454 63.6952 28.7221 63.7486 28.5017C63.802 28.2811 63.8905 28.0727 63.9453 28.0384C64 28.0043 64.23 28.6098 64.4561 29.384C64.9991 31.2429 65.0465 31.3272 65.5143 31.2726C65.8748 31.2306 65.95 31.0825 66.6458 29.0479C67.0558 27.8491 67.3957 26.8191 67.4013 26.7593C67.4067 26.6994 67.2198 26.6503 66.9857 26.6503C66.5812 26.6503 66.5452 26.7023 66.2575 27.7038C65.6923 29.6717 65.4941 30.2134 65.4202 29.9924C65.38 29.8725 65.1471 29.0878 64.9023 28.2487C64.4706 26.7684 64.4442 26.7216 64.0184 26.6793L63.5795 26.6359L63.0861 28.3806C62.8148 29.3402 62.5509 30.0791 62.4998 30.0226C62.4488 29.9659 62.1951 29.1842 61.936 28.285L61.4651 26.6503H60.5258L61.2822 28.9389ZM69.4041 26.9352C68.5787 27.3885 68.2286 28.0868 68.3032 29.1303C68.3565 29.8727 68.4341 30.0674 68.8494 30.4998C70.4575 32.1752 73.235 30.9716 72.9825 28.7087C72.85 27.5216 72.0163 26.7662 70.7589 26.6942C70.1374 26.6586 69.7979 26.719 69.4041 26.9352ZM74.4625 31.3195L74.8582 31.2734C75.2206 31.2314 75.2577 31.1694 75.2979 30.5373L75.3417 29.8471H75.8878C76.3878 29.8471 76.4721 29.9087 76.8813 30.5736C77.2591 31.1873 77.3967 31.3002 77.7663 31.3002C78.0069 31.3002 78.2039 31.263 78.2039 31.2173C78.2039 31.1719 78.0054 30.8432 77.7627 30.4869L77.3214 29.8394L77.6908 29.3962C78.2134 28.7689 78.2172 27.6554 77.6983 27.1696C77.2654 26.7646 76.7708 26.6503 75.4518 26.6503H74.4625V31.3195ZM79.7869 31.3195L80.1826 31.2734C80.5382 31.2322 80.5862 31.1585 80.6559 30.5463C80.6986 30.1716 80.8517 29.7332 80.9962 29.5719C81.2562 29.2817 81.2666 29.2887 82.0029 30.2531C82.6116 31.0505 82.8308 31.2358 83.2095 31.273C83.464 31.2981 83.671 31.2654 83.6696 31.2003C83.6683 31.1354 83.2789 30.5376 82.8046 29.8718L81.9422 28.6614L82.2191 28.2734C82.3713 28.0601 82.7282 27.66 83.0121 27.3847C83.6378 26.7776 83.6546 26.6503 83.1085 26.6503C82.7699 26.6503 82.4933 26.8646 81.6763 27.76L80.6636 28.8697L80.621 27.7963C80.5792 26.7456 80.57 26.7219 80.1826 26.677L79.7869 26.631V31.3195ZM71.3014 27.5973C71.7562 27.8347 72.1601 28.4829 72.1601 28.9752C72.1601 29.5191 71.7261 30.1535 71.2029 30.3743C69.8001 30.9661 68.5057 29.2451 69.4458 28.0383C69.9603 27.3778 70.5931 27.2275 71.3014 27.5973ZM77.1145 27.7504C77.7181 28.3601 77.1248 29.1205 76.0454 29.1205H75.3259V27.5221H76.1071C76.6253 27.5221 76.9644 27.599 77.1145 27.7504Z" fill="white"/>
</svg>
