<svg width="130" height="40" viewBox="0 0 130 40" fill="none" xmlns="http://www.w3.org/2000/svg">
<g opacity="1">
<path fill-rule="evenodd" clip-rule="evenodd" d="M7.51932 14.5398L17.0936 4L16.2986 4.13205C15.0396 4.34115 13.8164 4.70171 12.6537 5.20194C6.47931 7.76527 2.29374 13.9012 2.99934 20.7951L5.2679 18.2923C5.58717 17.9412 5.98311 17.6694 6.4241 17.4989C6.86511 17.3284 7.33933 17.2636 7.8094 17.3096L10.459 17.5737C11.2758 17.6538 12.1003 17.5415 12.8667 17.2455C13.6332 16.9495 14.3211 16.4778 14.8763 15.8678L24.2836 5.51348C25.8534 6.11275 27.3141 6.96949 28.607 8.04889L19.8628 17.6737C19.4957 18.0775 19.0284 18.3751 18.5092 18.5356C17.9902 18.6961 17.4382 18.7139 16.9102 18.5872L14.6463 18.0251C14.0176 17.874 13.3603 17.8951 12.7423 18.0862C12.1246 18.2772 11.5686 18.6312 11.1316 19.1116L4.26365 26.6082L4.34576 26.7866C5.28086 28.818 6.75538 30.5518 8.38086 31.9964L8.59405 32.1859L18.0439 21.7929C18.3632 21.4417 18.7591 21.1701 19.2002 20.9996C19.6413 20.8291 20.1156 20.7643 20.5858 20.8103L23.2379 21.0744C24.0547 21.1545 24.8792 21.0422 25.6456 20.7461C26.4121 20.4501 27.1 19.9785 27.6552 19.3684L32.8451 13.654C33.659 15.4906 34.1098 17.4712 34.171 19.4843L32.6473 21.1799C32.2802 21.5834 31.8126 21.8813 31.2936 22.0418C30.0378 22.4301 28.6482 21.8404 27.4284 21.5455C26.7996 21.3944 26.142 21.4154 25.524 21.6065C24.9061 21.7976 24.3498 22.1517 23.9128 22.6324L12.8539 34.8046L13.2543 34.9582C15.0546 35.6488 16.9647 36.0018 18.8907 36C19.644 36.0009 20.3964 35.9463 21.1419 35.8368C24.2157 35.3925 27.0929 34.0483 29.4176 31.9705C31.7422 29.8926 33.4123 27.1723 34.221 24.1462L34.1896 24.1376C34.1925 24.1267 34.1955 24.1158 34.1984 24.1049L34.2847 23.784L33.3944 23.6951C32.8367 23.6405 32.274 23.7173 31.7508 23.9196C31.2278 24.1218 30.7579 24.4443 30.3791 24.8608L20.7785 35.295C20.1527 35.3747 19.522 35.4144 18.8911 35.4137C17.1792 35.4153 15.4798 35.126 13.865 34.5587L24.3401 23.0291C24.7073 22.6253 25.1746 22.3277 25.6938 22.1671C26.6886 21.8595 27.7674 22.1657 28.7792 22.4528C29.0447 22.5282 29.3055 22.6022 29.5591 22.6635C30.1878 22.8146 30.8454 22.7935 31.4634 22.6025C32.0781 22.4124 32.6421 22.0553 33.0758 21.5753L34.7569 19.7045L34.7543 19.5874C34.702 17.3056 34.1674 15.0614 33.1864 13.0051L33.0006 12.6156L27.228 18.9716C25.4313 20.7319 23.3881 20.5159 21.1949 20.2841C21.0115 20.2647 20.8271 20.2452 20.6418 20.2268C20.0822 20.172 19.5178 20.2491 18.9928 20.452C18.4678 20.655 17.9967 20.9782 17.6166 21.3963L8.55217 31.3653C7.10008 30.04 5.80838 28.4911 4.95523 26.7164L11.5577 19.5096C11.9247 19.1074 12.3942 18.807 12.9122 18.6468C13.4311 18.4864 13.984 18.4688 14.512 18.5955L16.7729 19.1568C17.3997 19.3077 18.0628 19.2868 18.679 19.0963C19.2969 18.9052 19.8532 18.5509 20.2902 18.0702L29.4418 7.99704L29.2145 7.7996C27.7641 6.53931 26.0992 5.55506 24.3008 4.89464L24.1188 4.82783L14.449 15.4711C13.9546 16.0143 13.3421 16.4342 12.6595 16.6978C11.977 16.9615 11.2429 17.0615 10.5155 16.9902L7.86566 16.7261C7.30616 16.6713 6.7417 16.7484 6.21674 16.9513C5.69178 17.1543 5.22037 17.4778 4.84026 17.896L3.59547 19.2693C3.65095 18.0401 3.85146 16.8291 4.18819 15.6605C4.76175 15.7688 5.35368 15.7356 5.91326 15.5625C6.5292 15.372 7.0837 15.0189 7.51932 14.5398ZM4.35495 15.1191C4.82011 15.1965 5.29773 15.1646 5.75033 15.0247C6.27154 14.8635 6.74064 14.5648 7.10919 14.1594L15.5108 4.91057C12.2813 5.64576 9.36636 7.42139 7.21378 9.98142C5.93304 11.5046 4.96765 13.2514 4.35495 15.1191ZM31.9497 24.445C32.3925 24.2738 32.8687 24.2087 33.3406 24.255L33.5713 24.278C32.753 27.0834 31.1715 29.6036 29.0036 31.5505C26.9632 33.3829 24.4614 34.5085 21.7763 35.0367L30.7879 25.2426C31.1092 24.8911 31.5072 24.6161 31.9497 24.445Z" fill="white"/>
<path d="M45.0215 10.5744V29.0557H56.949V26.0723H48.6574V10.5744H45.0215ZM59.3243 12.9241H62.8293V9.70312H59.3243V12.9241ZM59.3243 29.0292H62.8293V15.3004H59.3243V29.0292ZM65.145 17.9404H67.2375V24.5409C67.2375 27.6564 68.65 29.2933 71.6581 29.2933C72.469 29.2933 73.0967 29.1876 73.6983 28.9765V26.3363C73.306 26.4155 72.809 26.4683 72.469 26.4683C71.2134 26.4683 70.7426 25.6235 70.7426 24.3562V17.9404H73.6983V15.3004H70.7426V11.7361L67.2375 12.1586V15.3004H65.145V17.9404ZM90.4382 17.7557C92.1645 17.7557 92.7923 18.6798 92.7923 21.0031V29.0557H96.2973V20.8447C96.2973 17.0165 94.9634 15.0627 91.5368 15.0627C89.1041 15.0627 87.9795 16.0924 87.4039 17.6765C86.9332 16.0659 85.6777 15.0627 83.402 15.0627C81.2309 15.0627 80.08 16.0396 79.5307 17.5972L79.3477 15.3267H76.1564V29.0557H79.6616V20.9766C79.6616 18.8117 80.4723 17.7557 82.1203 17.7557C83.8466 17.7557 84.4744 18.6798 84.4744 21.0031V29.0557H87.9794V21.0031C87.9794 18.7326 88.7903 17.7557 90.4382 17.7557ZM112.185 29.0557V15.3267H108.68V22.9833C108.68 25.5179 107.686 26.6267 105.803 26.6267C103.998 26.6267 103.161 25.6498 103.161 23.4056V15.3267H99.6557V23.4849C99.6557 27.4715 101.434 29.3197 104.678 29.3197C106.901 29.3197 108.209 28.422 108.811 26.6795L109.02 29.0557H112.185ZM121.611 20.8712C119.676 20.5278 118.499 20.2903 118.499 19.2077C118.499 18.0989 119.44 17.5972 121.088 17.5972C122.71 17.5972 123.704 18.2045 123.704 19.5774L127.026 19.2077C127.026 16.5149 124.855 15.0627 121.088 15.0627C117.269 15.0627 115.02 16.4356 115.02 19.2342C115.02 22.112 117.505 22.8777 120.591 23.4321C122.474 23.7753 123.599 24.0393 123.599 25.1482C123.599 26.257 122.762 26.7587 121.036 26.7587C119.309 26.7587 118.342 26.0986 118.342 24.7522L115.02 25.1219C115.02 27.7884 117.034 29.3197 121.01 29.3197C124.933 29.3197 127.078 28.0788 127.078 25.1747C127.078 22.2439 124.855 21.5047 121.611 20.8712Z" fill="white"/>
</g>
</svg>

