<svg width="130" height="40" viewBox="0 0 130 40" fill="none" xmlns="http://www.w3.org/2000/svg">
<path d="M49.4129 10.2424C48.4748 10.2424 47.7144 11.0022 47.7144 11.9394C47.7144 12.2661 47.8068 12.5712 47.9669 12.8301L45.9833 15.804L45.912 15.8964C45.7581 16.0698 45.5385 16.1738 45.3041 16.1814L41.7695 16.181C40.2201 14.1206 37.7535 12.7879 34.9754 12.7879C32.1972 12.7879 29.7307 14.1206 28.1812 16.181L24.7044 16.1814C24.4309 16.1726 24.1776 16.0324 24.0252 15.804L22.0409 12.8312C22.2015 12.5721 22.2941 12.2665 22.2941 11.9394C22.2941 11.0022 21.5337 10.2424 20.5956 10.2424C19.6575 10.2424 18.8971 11.0022 18.8971 11.9394C18.8971 12.8245 19.5754 13.5514 20.441 13.6294L20.535 13.6332L22.6119 16.7453L22.6347 16.7788C23.1097 17.4668 23.8935 17.8788 24.7318 17.8788L27.1897 17.8781C26.9539 18.4173 26.7725 18.9856 26.6525 19.5762L21.362 19.5758L21.3346 19.5753C21.061 19.5665 20.8078 19.4264 20.6553 19.1979L18.6573 16.203C18.8096 15.9487 18.8971 15.6512 18.8971 15.3333C18.8971 14.3961 18.1366 13.6364 17.1985 13.6364C16.2605 13.6364 15.5 14.3961 15.5 15.3333C15.5 16.2185 16.1783 16.9453 17.0439 17.0234L17.1662 17.0288L19.2421 20.1392L19.2648 20.1727C19.7399 20.8608 20.5236 21.2727 21.362 21.2727H26.4827C26.4827 21.8541 26.5413 22.4218 26.6528 22.9703L21.362 22.9697L21.1696 22.9769C20.4049 23.0347 19.7033 23.4346 19.2648 24.0697L19.2421 24.1032L17.1662 27.2122L17.1985 27.2121C16.2605 27.2121 15.5 27.9719 15.5 28.9091C15.5 29.8463 16.2605 30.6061 17.1985 30.6061C18.1366 30.6061 18.8971 29.8463 18.8971 28.9091C18.8971 28.5912 18.8096 28.2937 18.6573 28.0394L20.6553 25.0445L20.7266 24.9521C20.8805 24.7787 21.1001 24.6747 21.3346 24.6671L27.1897 24.6673C27.4547 25.2732 27.7885 25.8422 28.1812 26.3644L24.759 26.3636L24.5667 26.3709C23.8019 26.4286 23.1004 26.8285 22.6619 27.4636L22.6391 27.4971L20.5636 30.6066L20.5956 30.6061C19.6575 30.6061 18.8971 31.3658 18.8971 32.303C18.8971 33.2402 19.6575 34 20.5956 34C21.5337 34 22.2941 33.2402 22.2941 32.303C22.2941 31.9851 22.2066 31.6876 22.0543 31.4332L24.0524 28.4384L24.1237 28.3461C24.2776 28.1726 24.4972 28.0686 24.7316 28.061L24.759 28.0606L29.8792 28.0608C31.2987 29.1262 33.0633 29.7576 34.9754 29.7576C36.8875 29.7576 38.652 29.1262 40.0715 28.0608L45.2494 28.0606L45.2769 28.061C45.5504 28.0699 45.8036 28.21 45.9561 28.4384L47.9535 31.4343C47.8016 31.6884 47.7144 31.9856 47.7144 32.303C47.7144 33.2402 48.4748 34 49.4129 34C50.351 34 51.1114 33.2402 51.1114 32.303C51.1114 31.4179 50.4331 30.691 49.5675 30.613L49.4446 30.6066L47.3693 27.4971L47.3466 27.4636C46.8715 26.7756 46.0878 26.3636 45.2494 26.3636L41.7695 26.3644C42.1623 25.8422 42.4961 25.2732 42.7611 24.6673L48.6739 24.6671C48.9474 24.6759 49.2007 24.8161 49.3531 25.0445L51.3518 28.0383C51.1992 28.2929 51.1114 28.5908 51.1114 28.9091C51.1114 29.8463 51.8719 30.6061 52.8099 30.6061C53.748 30.6061 54.5085 29.8463 54.5085 28.9091C54.5085 28.0239 53.8302 27.2971 52.9645 27.2191L52.8409 27.2122L50.7664 24.1032L50.7436 24.0697C50.2686 23.3816 49.4848 22.9697 48.6465 22.9697L43.298 22.9703C43.4095 22.4218 43.468 21.8541 43.468 21.2727H48.6465L48.8389 21.2655C49.6036 21.2077 50.3051 20.8078 50.7436 20.1727L50.7664 20.1392L52.8099 17.0303C53.748 17.0303 54.5085 16.2705 54.5085 15.3333C54.5085 14.3961 53.748 13.6364 52.8099 13.6364C51.8719 13.6364 51.1114 14.3961 51.1114 15.3333C51.1114 15.6517 51.1992 15.9495 51.3518 16.2041L49.3531 19.1979L49.2819 19.2903C49.1279 19.4637 48.9084 19.5678 48.6739 19.5753L48.6465 19.5758L43.2982 19.5762C43.1783 18.9856 42.9969 18.4173 42.7611 17.8781L45.2767 17.8788L45.469 17.8715C46.2337 17.8138 46.9353 17.4139 47.3738 16.7788L47.3965 16.7453L49.4733 13.6332L49.4129 13.6364C50.351 13.6364 51.1114 12.8766 51.1114 11.9394C51.1114 11.0022 50.351 10.2424 49.4129 10.2424ZM106.162 12.1865H103.624V29.0175H106.162V27.0615H106.279C106.675 28.1077 106.675 28.1077 107.571 28.6991C108.468 29.2905 108.468 29.2905 109.679 29.2905C111.985 29.2905 111.985 29.2905 113.242 27.6642C114.5 26.038 114.5 26.038 114.5 23.1039C114.5 20.1699 114.5 20.1699 113.242 18.5436C111.985 16.9174 111.985 16.9174 109.679 16.9174C108.468 16.9174 108.468 16.9174 107.571 17.4974C106.774 18.0129 106.774 18.0129 106.373 18.9148L106.279 19.1464H106.162V12.1865ZM94.9837 16.9174C93.2137 16.9174 93.2137 16.9174 92.1191 17.5656C91.1614 18.1328 91.1614 18.1328 90.578 18.9699L90.419 19.2146L91.9328 20.5565C92.3986 19.8515 92.3986 19.8515 93.074 19.3966C93.7494 18.9417 93.7494 18.9417 94.8207 18.9417C96.1016 18.9417 96.1016 18.9417 96.7071 19.533C97.2453 20.0587 97.2453 20.0587 97.3051 20.9797L97.3126 21.2161V22.2169H95.1234C92.5849 22.2169 92.5849 22.2169 91.2691 23.1039C89.9532 23.991 89.9532 23.991 89.9532 25.7651C89.9532 27.3799 89.9532 27.3799 90.9663 28.3352C91.9794 29.2905 91.9794 29.2905 93.8658 29.2905C95.1933 29.2905 95.1933 29.2905 96.1249 28.7218C96.9529 28.2164 96.9529 28.2164 97.3209 27.2797L97.4058 27.0387H97.5222C97.6386 27.903 97.6387 27.903 98.1743 28.4603C98.6504 28.9556 98.6504 28.9556 99.4946 29.0107L99.7114 29.0175H101.132V26.9933H99.8511V21.0569C99.8511 19.0554 99.8511 19.0554 98.5935 17.9864C97.3359 16.9174 97.3359 16.9174 94.9837 16.9174ZM73.4412 12.8689C71.8576 12.8689 71.8576 12.8689 70.5883 13.4034C69.319 13.9379 69.319 13.9379 68.4341 14.9841C67.5491 16.0304 67.5491 16.0304 67.0833 17.5542C66.6175 19.0781 66.6175 19.0781 66.6175 21.0797C66.6175 25.0827 66.6175 25.0827 68.4341 27.1866C70.2506 29.2905 70.2506 29.2905 73.4412 29.2905C75.5605 29.2905 75.5605 29.2905 77.0278 28.3124C78.3616 27.4233 78.3616 27.4233 79.1565 25.9139L79.3101 25.6058L77.1908 24.3549C76.7483 25.5149 76.7483 25.5149 75.8284 26.2541C74.9084 26.9933 74.9084 26.9933 73.4412 26.9933C71.5548 26.9933 71.5548 26.9933 70.4835 25.7423C69.4887 24.5807 69.4887 24.5807 69.4177 22.5954L69.4122 22.2851V19.8742C69.4122 17.668 69.4122 17.668 70.4835 16.417C71.5548 15.1661 71.5548 15.1661 73.4412 15.1661C74.8619 15.1661 74.8619 15.1661 75.7352 15.837C76.5115 16.4334 76.5115 16.4334 76.929 17.3983L77.0278 17.6452L79.2402 16.4625C78.4251 14.6884 78.4251 14.6884 76.9928 13.7786C75.5605 12.8689 75.5605 12.8689 73.4412 12.8689ZM84.457 17.1903H81.9185V29.0175H84.457V21.4663C84.457 20.5338 84.457 20.5338 85.2605 20.0562C85.9836 19.6263 85.9836 19.6263 87.2821 19.5833L87.5777 19.5785H88.5792V17.1903H87.9038C86.4599 17.1903 86.4599 17.1903 85.6447 17.8727C84.9315 18.4697 84.9315 18.4697 84.6462 19.2409L84.5734 19.4648H84.457V17.1903ZM34.9754 14.4848C38.7277 14.4848 41.7695 17.5239 41.7695 21.2727C41.7695 25.0216 38.7277 28.0606 34.9754 28.0606C31.2231 28.0606 28.1813 25.0216 28.1813 21.2727C28.1813 17.5239 31.2231 14.4848 34.9754 14.4848ZM97.3126 23.809V25.5149C97.3126 26.3792 97.3126 26.3792 96.5441 26.8909C95.7755 27.4027 95.7755 27.4027 94.5878 27.4027C93.6329 27.4027 93.6329 27.4027 93.0856 27.0046C92.5991 26.6508 92.5991 26.6508 92.5451 25.9825L92.5383 25.8105V25.4011C92.5383 23.8814 92.5383 23.8814 94.9362 23.8123L95.17 23.809H97.3126ZM108.911 19.0554C110.238 19.0554 110.238 19.0554 111.03 19.8856C111.75 20.6403 111.75 20.6403 111.815 21.8367L111.822 22.0804V24.1274C111.822 25.4921 111.822 25.4921 111.03 26.3223C110.238 27.1525 110.238 27.1525 108.911 27.1525C107.746 27.1525 107.746 27.1525 106.954 26.5952C106.242 26.0937 106.242 26.0937 106.17 25.3066L106.162 25.1282V21.0797C106.162 20.1699 106.162 20.1699 106.954 19.6126C107.746 19.0554 107.746 19.0554 108.911 19.0554ZM34.9754 16.1818C32.1612 16.1818 29.8798 18.4611 29.8798 21.2727C29.8798 24.0844 32.1612 26.3636 34.9754 26.3636C37.7896 26.3636 40.071 24.0844 40.071 21.2727C40.071 18.4611 37.7896 16.1818 34.9754 16.1818ZM40.9202 6V9.39394L38.5182 6.99406L38.3694 7.1524C37.8427 7.75027 37.5232 8.53483 37.5232 9.39394C37.5232 11.2684 39.0441 12.7879 40.9202 12.7879C42.7964 12.7879 44.3173 11.2684 44.3173 9.39394C44.3173 7.58415 42.8995 6.10522 41.113 6.00537L40.9202 6ZM29.0305 6C27.1544 6 25.6335 7.51952 25.6335 9.39394C25.6335 11.2684 27.1544 12.7879 29.0305 12.7879C30.9067 12.7879 32.4276 11.2684 32.4276 9.39394C32.4276 8.21606 31.827 7.17833 30.9151 6.56973L29.0305 9.39394V6Z" fill="white"/>
</svg>
