<svg version="1.1" id="Layer_1" xmlns="http://www.w3.org/2000/svg" x="0" y="0" viewBox="0 0 350 75" style="enable-background:new 0 0 350 75" xml:space="preserve"><style>.st0{fill:#fff}</style><path class="st0" d="m100.1 23.9-11 27.3h6.6l2.8-7h15.9l2.8 7h6.6l-11-27.3h-12.7zm.8 14.7 3.2-8.6c.5-1.3 1.9-1.9 3.2-1.4.7.2 1.2.8 1.4 1.4l3.2 8.6h-11zM140 51.5h15.4V46h-15.5c-3.9 0-9.4-2.6-9.4-8.5s5.5-8.5 9.4-8.5h15.4v-5.5H140c-9.4 0-15.8 5.6-15.8 14s6.3 14 15.8 14zM176.1 46c-4.4 0-9.4-2.2-9.4-8.5V23.9h-6.3v13.6c0 8.4 6.3 14 15.8 14h2.9c9.4 0 16-5.8 16-14V23.9h-6.3v13.6c0 6.3-5.1 8.5-9.4 8.5h-3.3zM223.9 43.3c3.2-1.7 5.2-5.2 5.1-8.8 0-6.7-5-10.6-13.3-10.6H200v27.3h6.3v-6h.6c9.3 0 9.9 0 10.4-.1h.4l4.3 6.1h6.2l-4.8-7.5.5-.4zm-8-3.7h-9.6V29.4h9.6c2.9 0 6.8.5 6.8 5.1s-3.9 5.1-6.8 5.1zM242.5 23.9l-10.9 27.3h6.5l2.8-7h15.9l2.8 7h6.5l-10.9-27.3h-12.7zm.8 14.7 3.2-8.6c.5-1.3 1.9-1.9 3.1-1.5.7.2 1.2.8 1.5 1.5l3.2 8.6h-11zM287.3 34.2h-7.1c-2.9 0-5.6 0-5.6-2.4s2.7-2.5 5.6-2.5h17.4v-5.5h-17.4c-10.7 0-11.9 4.6-11.9 8.1 0 6.9 6.4 7.8 11.9 7.8h8c1.3 0 5.4 0 5.4 3.2 0 2.5-2.5 2.7-5.4 2.7h-18.8v5.5h17.9c10.9 0 12.6-5.3 12.6-8.5 0-7.3-7.9-8.4-12.6-8.4zM316 51.2h6.2l.1-21.8H336v-5.5h-33.4v5.5H316zM55 17H31.1L14 51.2h23.9zM48.2 37.5h20.5L78.9 58H58.4z"/></svg>