<svg width="130" height="40" viewBox="0 0 130 40" fill="none" xmlns="http://www.w3.org/2000/svg">
<path fill-rule="evenodd" clip-rule="evenodd" d="M14.2981 28.1296C13.3082 26.0104 12.7553 23.646 12.7553 21.1526C12.7553 12.0373 20.1447 4.64788 29.26 4.64788C34.3356 4.64788 38.8759 6.93909 41.9034 10.5435L43.7098 9.02788C40.2496 4.90856 35.0608 2.29004 29.26 2.29004C18.8425 2.29004 10.3975 10.7351 10.3975 21.1526C10.3975 24.0022 11.0294 26.7043 12.1607 29.1261L14.2981 28.1296Z" fill="white"/>
<path fill-rule="evenodd" clip-rule="evenodd" d="M29.2596 32.3519C23.0742 32.3519 18.06 27.3375 18.06 21.1522C18.06 14.9668 23.0742 9.95253 29.2596 9.95253C32.7038 9.95253 35.7842 11.5077 37.8387 13.9535L39.6454 12.4375C37.1585 9.47682 33.4288 7.59473 29.2596 7.59473C21.772 7.59473 15.7021 13.6646 15.7021 21.1522C15.7021 28.6398 21.772 34.7096 29.2596 34.7096V32.3519Z" fill="white"/>
<path fill-rule="evenodd" clip-rule="evenodd" d="M33.3242 24.563C32.3511 25.7214 30.8918 26.4581 29.2604 26.4581C26.3305 26.4581 23.9553 24.083 23.9553 21.153C23.9553 18.2231 26.3305 15.8479 29.2604 15.8479C30.8918 15.8479 32.3511 16.5845 33.3242 17.7431L35.356 16.0381C33.8963 14.3003 31.7077 13.1953 29.2604 13.1953C24.8655 13.1953 21.3027 16.7581 21.3027 21.153C21.3027 25.5478 24.8655 29.1107 29.2604 29.1107C31.5032 29.1107 33.5283 28.1821 34.9747 26.6894L33.3242 24.563Z" fill="white"/>
<path fill-rule="evenodd" clip-rule="evenodd" d="M47.668 18.5702H50.0922V20.2076H50.1348C50.3614 19.6973 50.7548 19.2473 51.3149 18.8572C51.8747 18.4676 52.5377 18.2725 53.3031 18.2725C53.9694 18.2725 54.5399 18.3894 55.0151 18.6234C55.49 18.8572 55.8796 19.1657 56.1846 19.5484C56.4892 19.9312 56.7127 20.3708 56.8545 20.8668C56.996 21.3632 57.0672 21.8736 57.0672 22.3979V28.7776H54.5153V23.121C54.5153 22.8232 54.494 22.5115 54.4516 22.1852C54.409 21.8595 54.3167 21.5653 54.1751 21.3029C54.0332 21.0407 53.838 20.8243 53.5901 20.6543C53.342 20.4841 53.0124 20.399 52.6014 20.399C52.19 20.399 51.836 20.4808 51.5382 20.6437C51.2404 20.8067 50.9958 21.0157 50.8046 21.271C50.6132 21.5261 50.4677 21.8206 50.3686 22.1533C50.2693 22.4867 50.2198 22.8232 50.2198 23.1636V28.7776H47.668V18.5702Z" fill="white"/>
<path fill-rule="evenodd" clip-rule="evenodd" d="M58.1514 20.6117V18.5702H59.9376V15.6143H62.447V18.5702H64.9987V20.6117H62.447V25.3537C62.447 25.8077 62.5284 26.1831 62.6916 26.4808C62.8543 26.7786 63.2195 26.9274 63.7867 26.9274C63.9568 26.9274 64.141 26.9098 64.3396 26.8742C64.5379 26.839 64.715 26.7858 64.8712 26.7147L64.9563 28.7136C64.7293 28.7987 64.4599 28.8659 64.1482 28.9158C63.8362 28.9653 63.5386 28.9901 63.2551 28.9901C62.5745 28.9901 62.0216 28.8945 61.5964 28.7031C61.1711 28.5117 60.8342 28.2495 60.5863 27.9161C60.3382 27.5834 60.1679 27.2005 60.076 26.7679C59.9835 26.3358 59.9376 25.8714 59.9376 25.375V20.6117H58.1514Z" fill="white"/>
<path fill-rule="evenodd" clip-rule="evenodd" d="M66.5293 18.5702H68.9748V20.2714H69.0174C69.3007 19.676 69.6978 19.1943 70.2083 18.8254C70.7186 18.4569 71.314 18.2725 71.9945 18.2725C72.0935 18.2725 72.1998 18.2761 72.3134 18.2831C72.4268 18.2904 72.5261 18.308 72.6112 18.3363V20.6755C72.4409 20.633 72.2954 20.6047 72.1752 20.5905C72.0546 20.5764 71.9376 20.5692 71.8242 20.5692C71.243 20.5692 70.7749 20.6755 70.4208 20.8881C70.0664 21.1008 69.7899 21.3559 69.5915 21.6537C69.3928 21.9514 69.2583 22.2564 69.1875 22.5682C69.1164 22.8801 69.0812 23.1282 69.0812 23.3124V28.7776H66.5293V18.5702Z" fill="white"/>
<path fill-rule="evenodd" clip-rule="evenodd" d="M73.7814 28.7769H76.3333V18.5696H73.7814V28.7769ZM73.4199 15.1033C73.4199 14.6924 73.572 14.3344 73.877 14.0294C74.1818 13.7247 74.5682 13.5723 75.0361 13.5723C75.5039 13.5723 75.8973 13.7177 76.2164 14.0082C76.5353 14.2988 76.6948 14.6641 76.6948 15.1033C76.6948 15.5428 76.5353 15.9081 76.2164 16.1984C75.8973 16.4892 75.5039 16.6344 75.0361 16.6344C74.5682 16.6344 74.1818 16.4823 73.877 16.1772C73.572 15.8725 73.4199 15.5146 73.4199 15.1033Z" fill="white"/>
<path fill-rule="evenodd" clip-rule="evenodd" d="M79.6294 20.6118H77.6943V18.5703H79.6294V17.807C79.6294 17.1976 79.6964 16.6128 79.8315 16.0526C79.966 15.4927 80.1928 14.9999 80.5119 14.5746C80.8308 14.1494 81.2525 13.8127 81.7773 13.5646C82.3015 13.3167 82.9607 13.1924 83.7549 13.1924C84.0382 13.1924 84.2758 13.203 84.4674 13.2243C84.6586 13.2455 84.8533 13.2848 85.0522 13.3412L84.8819 15.5103C84.7399 15.4678 84.5876 15.4326 84.4248 15.404C84.2615 15.3758 84.0877 15.3615 83.9037 15.3615C83.535 15.3615 83.2372 15.4326 83.0106 15.5742C82.7836 15.716 82.61 15.9004 82.4896 16.1271C82.3689 16.3539 82.2876 16.6022 82.245 16.8714C82.2025 17.1408 82.1812 17.4029 82.1812 17.6581V18.5703H84.5417V20.6118H82.1812V28.7777H79.6294V20.6118Z" fill="white"/>
<path fill-rule="evenodd" clip-rule="evenodd" d="M95.2176 28.7777H92.7934V27.1402H92.7508C92.524 27.6505 92.1304 28.1008 91.5706 28.4905C91.0105 28.8803 90.3479 29.0755 89.5822 29.0755C88.9157 29.0755 88.3452 28.9583 87.8705 28.7245C87.3954 28.4905 87.0055 28.1822 86.7007 27.7995C86.3957 27.4165 86.1724 26.9774 86.0309 26.481C85.8891 25.9848 85.8184 25.4745 85.8184 24.9499V18.5703H88.3702V24.2269C88.3702 24.5246 88.3915 24.8365 88.434 25.1626C88.4766 25.4889 88.5685 25.783 88.7104 26.045C88.852 26.3075 89.0469 26.5234 89.2952 26.6935C89.5431 26.8638 89.8728 26.9488 90.2841 26.9488C90.6806 26.9488 91.0316 26.8675 91.3366 26.7042C91.6414 26.5414 91.8895 26.3322 92.0809 26.0768C92.2723 25.8217 92.4176 25.5276 92.5169 25.1945C92.616 24.8615 92.6657 24.5246 92.6657 24.1842V18.5703H95.2176V28.7777Z" fill="white"/>
<path fill-rule="evenodd" clip-rule="evenodd" d="M39.152 20.8775C39.6836 20.417 40.3321 20.1863 41.0978 20.1863C41.5089 20.1863 41.8665 20.2538 42.1717 20.3884C42.4764 20.5233 42.728 20.704 42.9266 20.9306C43.1249 21.1576 43.2701 21.4197 43.3626 21.7175C43.4545 22.0151 43.5009 22.3272 43.5009 22.6531H38.2696C38.326 21.9301 38.6204 21.3383 39.152 20.8775ZM43.8835 25.6728C43.5998 26.0842 43.2383 26.4066 42.7992 26.6402C42.3594 26.8743 41.8208 26.9912 41.1828 26.9912C40.8141 26.9912 40.4598 26.9274 40.1196 26.7998C39.7792 26.6723 39.4744 26.4987 39.2052 26.2789C38.9358 26.0592 38.7193 25.797 38.5567 25.492C38.3936 25.1874 38.2978 24.8509 38.2696 24.4819H46.0314C46.0453 24.3687 46.0527 24.2553 46.0527 24.1417V23.8015C46.0527 22.8801 45.9284 22.0755 45.6805 21.3878C45.4324 20.7004 45.0882 20.1262 44.6491 19.6654C44.2096 19.2049 43.6886 18.8572 43.0862 18.6234C42.4834 18.3894 41.8278 18.2725 41.1191 18.2725C40.3534 18.2725 39.641 18.4038 38.9819 18.666C38.3228 18.9284 37.7519 19.2969 37.27 19.7717C36.788 20.2469 36.4087 20.821 36.1325 21.4941C35.8558 22.1676 35.7178 22.9157 35.7178 23.7376C35.7178 24.5742 35.8558 25.3219 36.1325 25.9812C36.4087 26.6402 36.7915 27.1969 37.2807 27.6505C37.7697 28.1044 38.3473 28.4552 39.0138 28.7031C39.6801 28.951 40.4101 29.0754 41.2041 29.0754C42.9178 29.0754 44.2673 28.5293 45.2537 27.4381L43.8835 25.6728Z" fill="white"/>
<path fill-rule="evenodd" clip-rule="evenodd" d="M112.702 20.8775C113.233 20.417 113.882 20.1863 114.647 20.1863C115.059 20.1863 115.416 20.2538 115.722 20.3884C116.026 20.5233 116.278 20.704 116.476 20.9306C116.675 21.1576 116.82 21.4197 116.912 21.7175C117.004 22.0151 117.05 22.3272 117.05 22.6531H111.819C111.876 21.9301 112.17 21.3383 112.702 20.8775ZM117.433 25.6728C117.15 26.0842 116.788 26.4066 116.349 26.6402C115.909 26.8743 115.371 26.9912 114.733 26.9912C114.364 26.9912 114.01 26.9274 113.669 26.7998C113.329 26.6723 113.024 26.4987 112.755 26.2789C112.486 26.0592 112.269 25.797 112.106 25.492C111.943 25.1874 111.848 24.8509 111.819 24.4819H119.581C119.595 24.3687 119.602 24.2553 119.602 24.1417V23.8015C119.602 22.8801 119.478 22.0755 119.23 21.3878C118.982 20.7004 118.638 20.1262 118.199 19.6654C117.759 19.2049 117.238 18.8572 116.636 18.6234C116.033 18.3894 115.377 18.2725 114.669 18.2725C113.903 18.2725 113.191 18.4038 112.532 18.666C111.872 18.9284 111.302 19.2969 110.82 19.7717C110.338 20.2469 109.959 20.821 109.682 21.4941C109.406 22.1676 109.268 22.9157 109.268 23.7376C109.268 24.5742 109.406 25.3219 109.682 25.9812C109.959 26.6402 110.341 27.1969 110.83 27.6505C111.32 28.1044 111.897 28.4552 112.563 28.7031C113.23 28.951 113.96 29.0754 114.754 29.0754C116.468 29.0754 117.817 28.5293 118.803 27.4381L117.433 25.6728Z" fill="white"/>
<path fill-rule="evenodd" clip-rule="evenodd" d="M105.061 24.8182C104.92 25.2069 104.717 25.5496 104.455 25.8462C104.193 26.1428 103.874 26.3796 103.498 26.5563C103.123 26.7331 102.701 26.8211 102.233 26.8211C101.779 26.8211 101.372 26.7296 101.01 26.5456C100.649 26.362 100.344 26.118 100.096 25.8144C99.8478 25.5107 99.6564 25.1678 99.5219 24.7863C99.3869 24.4049 99.3199 24.0096 99.3199 23.5994C99.3199 23.1475 99.3869 22.7236 99.5219 22.3279C99.6564 21.932 99.8478 21.5895 100.096 21.2998C100.344 21.01 100.649 20.7805 101.01 20.611C101.372 20.4415 101.787 20.3565 102.254 20.3565C102.722 20.3565 103.14 20.4415 103.509 20.611C103.878 20.7805 104.193 21.0137 104.455 21.3104C104.717 21.6072 104.92 21.9533 105.061 22.3486C105.203 22.7446 105.274 23.1616 105.274 23.5994C105.274 24.0234 105.203 24.4299 105.061 24.8182ZM105.274 18.5703V20.1012H105.231C104.863 19.4776 104.367 19.0167 103.743 18.7191C103.119 18.4213 102.446 18.2725 101.723 18.2725C100.957 18.2725 100.266 18.4144 99.6493 18.6979C99.0327 18.9816 98.5081 19.3643 98.0756 19.8461C97.6431 20.3282 97.3104 20.8954 97.0763 21.5473C96.8423 22.1997 96.7256 22.8943 96.7256 23.6314C96.7256 24.3544 96.8458 25.0386 97.0869 25.6834C97.328 26.3288 97.6644 26.8922 98.0969 27.374C98.5292 27.8561 99.0573 28.2389 99.6812 28.5222C100.305 28.8057 101 28.9477 101.765 28.9477C102.474 28.9477 103.116 28.8151 103.69 28.5502C104.264 28.2855 104.735 27.9023 105.104 27.401H105.146V28.1478C105.146 28.6603 105.093 29.1297 104.987 29.5567C104.881 29.9833 104.703 30.3534 104.455 30.6665C104.207 30.9795 103.874 31.2247 103.456 31.4028C103.038 31.5805 102.524 31.6697 101.914 31.6697C101.276 31.6697 100.645 31.5453 100.022 31.2974C99.4139 31.0557 98.8673 30.7099 98.381 30.26L96.8742 32.2013C97.2003 32.4705 97.5688 32.7116 97.9802 32.9243C98.391 33.1368 98.8199 33.3139 99.2667 33.4559C99.7133 33.5974 100.167 33.7038 100.628 33.7748C101.088 33.8456 101.524 33.8811 101.935 33.8811C102.928 33.8811 103.785 33.7392 104.508 33.4559C105.231 33.172 105.83 32.7718 106.305 32.2544C106.78 31.7367 107.131 31.106 107.358 30.3619C107.585 29.6175 107.698 28.7844 107.698 27.863V18.5703H105.274Z" fill="white"/>
</svg>
