<svg width="130" height="40" viewBox="0 0 130 40" fill="none" xmlns="http://www.w3.org/2000/svg">
    <path fill-rule="evenodd" clip-rule="evenodd"
          d="M32.5903 7.52757C30.07 5.87941 27.1066 4.99982 24.0752 5C22.063 5 20.0703 5.38798 18.2105 6.14176C16.3515 6.89554 14.6617 8.00033 13.2385 9.39309C11.8153 10.7859 10.6871 12.4394 9.91657 14.2591C9.14609 16.0789 8.75 18.0294 8.75 19.9991C8.75 22.9659 9.64842 25.8661 11.3325 28.333C13.0166 30.7998 15.4105 32.7225 18.2105 33.8579C21.0113 34.9934 24.0933 35.2906 27.0661 34.7118C30.0396 34.1331 32.7703 32.7044 34.9141 30.6065C37.0571 28.5087 38.5172 25.8359 39.1084 22.9261C39.6996 20.0164 39.3961 17.0003 38.236 14.2593C37.0759 11.5184 35.1114 9.17572 32.5903 7.52757ZM24.0752 33.1239C24.0752 33.1239 19.0757 27.248 19.0757 19.9991C19.0757 12.7512 24.0752 6.87521 24.0752 6.87521C24.0752 6.87521 29.0754 12.7503 29.0754 19.9991C29.0754 27.248 24.0752 33.1239 24.0752 33.1239Z"
          fill="white"/>
    <path fill-rule="evenodd" clip-rule="evenodd"
          d="M49.7305 10.0002V21.667H58.2441V19.9999H59.9477V16.6667H58.2441V14.9996H59.9477V11.6672H58.2441V10.0002H49.7305ZM56.5405 14.9996H53.1348V11.6672H56.5405V14.9996ZM53.1348 16.6667H56.5405V19.9999H53.1348V16.6667Z"
          fill="white"/>
    <path fill-rule="evenodd" clip-rule="evenodd"
          d="M63.3535 19.9998H61.6513V14.9995H63.3535V13.3333H71.8679V21.6669H63.3535V19.9998ZM65.0564 19.9998H68.4629V14.9995H65.0564V19.9998Z"
          fill="white"/>
    <path d="M73.5701 21.6669H83.7873L83.7866 16.6666H76.9751V14.9995H83.7866V13.3333H73.5693V18.3337H80.3809V19.9998H73.5701V21.6669Z"
          fill="white"/>
    <path d="M85.4895 11.6672V10.0002H88.8953V11.6672H85.4895Z" fill="white"/>
    <path d="M85.4895 21.667V13.3334H88.8953V21.667H85.4895Z" fill="white"/>
    <path d="M90.5989 21.667H94.0032V10.0002H90.5989V21.667Z" fill="white"/>
    <path d="M95.7075 11.6672V10.0002H99.1126V11.6672H95.7075Z" fill="white"/>
    <path d="M95.7075 21.667V13.3334H99.1126V21.667H95.7075Z" fill="white"/>
    <path d="M100.815 21.6669H111.032V16.6666H104.22V14.9995H111.032V13.3333H100.815V18.3337H107.627V19.9998H100.815V21.6669Z"
          fill="white"/>
    <path d="M119.548 19.9999H121.25V21.667H117.844V19.9999H116.141V21.667H112.736V10.0002H116.141V14.9996H117.844V13.3334H121.25V14.9996H119.548V16.6667H117.844V18.3337H119.548V19.9999Z"
          fill="white"/>
    <path d="M55.0458 26.2492H58.8773V27.499L60.1545 27.499V28.7489H56.3223L56.323 27.499H55.0458V26.2492Z"
          fill="white"/>
    <path d="M55.0458 27.499V28.7489H51.2143V27.499H49.9372V26.2492H53.7687V27.499H55.0458Z" fill="white"/>
    <path d="M65.2631 27.499V28.7489H61.4316V27.499L60.1545 27.499V26.2492H63.9859V27.499L65.2631 27.499Z"
          fill="white"/>
    <path d="M70.371 27.499V28.7489H66.5395L66.5403 27.499L65.2631 27.499V26.2492H69.0939V27.499L70.371 27.499Z"
          fill="white"/>
    <path d="M75.4804 27.499V28.7489H71.6489V27.499L70.371 27.499L70.3717 26.2492H74.2032V27.499L75.4804 27.499Z"
          fill="white"/>
    <path d="M80.5883 27.499V28.7489H76.7568L76.7575 27.499L75.4804 27.499V26.2492H79.3111V27.499L80.5883 27.499Z"
          fill="white"/>
    <path d="M80.5883 27.499V26.2492H83.1419V28.7489H81.8655V27.499L80.5883 27.499Z" fill="white"/>
    <path d="M83.1434 26.2492H84.4198V27.499L85.6969 27.499V28.7489H83.1434V26.2492Z" fill="white"/>
    <path d="M90.8049 27.499V28.7489H86.9748L86.9741 27.499L85.6969 27.499V26.2492H89.5284V27.499L90.8049 27.499Z"
          fill="white"/>
    <path d="M95.9135 27.499V28.7489H92.0828V27.499L90.8049 27.499L90.8056 26.2492H94.6371V27.499L95.9135 27.499Z"
          fill="white"/>
    <path d="M101.023 27.499V28.7489H97.1921L97.1914 27.499L95.9135 27.499L95.9142 26.2492H99.745V27.499L101.023 27.499Z"
          fill="white"/>
    <path fill-rule="evenodd" clip-rule="evenodd"
          d="M103.577 26.2492H101.023V27.499L102.299 27.499L102.3 28.7489H107.408V26.2492H104.854V24.9994H103.577V26.2492ZM103.577 26.2492H104.854V27.499H103.577V26.2492Z"
          fill="white"/>
    <path d="M115.071 24.9994H113.794V26.2493L112.517 26.2491V28.7489H113.794V26.2493H115.071V24.9994Z" fill="white"/>
    <path d="M116.349 26.2492H115.072V24.9993H116.349V26.2492Z" fill="white"/>
    <path d="M116.349 26.2492L117.625 26.2484V27.4983H116.348L116.349 26.2492Z" fill="white"/>
    <path d="M116.348 29.9991V28.7491L113.794 28.7489V29.9991H116.348Z" fill="white"/>
</svg>
