<svg width="130" height="40" viewBox="0 0 130 40" fill="none" xmlns="http://www.w3.org/2000/svg">
    <path fill-rule="evenodd" clip-rule="evenodd"
          d="M5 8.29984C5 8.13424 5.1339 8 5.29907 8H124.701C124.866 8 125 8.13424 125 8.29984V31.7002C125 31.8658 124.866 32 124.701 32H5.29907C5.1339 32 5 31.8658 5 31.7002V8.29984ZM5.59814 8.59967V31.4003H26.9373V8.59967H5.59814ZM27.5354 8.59967V31.4003H105.907V8.59967H27.5354ZM106.506 8.59967V31.4003H124.402V8.59967H106.506Z"
          fill="white"/>
    <path fill-rule="evenodd" clip-rule="evenodd"
          d="M8.35889 19.9995L16.2714 12.0742L24.1782 20.0015L16.2714 27.9242L8.35889 19.9995V19.9995ZM11.2703 17.6348C10.9362 18.0116 10.2369 18.9289 10.2369 19.9995C10.2369 21.0743 10.9417 21.9946 11.2742 22.3686L12.9848 24.0838L12.9928 24.0759C13.6776 23.405 14.816 22.5232 16.1137 22.456C15.787 22.821 15.0665 23.749 15.0665 24.8349C15.0665 25.9209 15.787 26.8488 16.1137 27.2138L16.2714 27.3794L16.429 27.2138C16.7557 26.8488 17.4762 25.9209 17.4762 24.8349C17.4762 23.749 16.7557 22.821 16.429 22.456C17.7319 22.5234 18.8741 23.4119 19.558 24.0838L21.3089 22.3281L21.3129 22.3235C21.6591 21.9249 22.3117 21.0337 22.3117 19.9995C22.3117 18.9612 21.654 18.0671 21.3089 17.6709L19.5661 15.9234L19.5581 15.9313C18.874 16.6031 17.7318 17.4915 16.429 17.5589C16.7557 17.1939 17.4762 16.266 17.4762 15.18C17.4762 14.0941 16.7557 13.1661 16.429 12.8011L16.2714 12.6196L16.1137 12.8011C15.787 13.1661 15.0665 14.0941 15.0665 15.18C15.0665 16.266 15.787 17.1939 16.1137 17.5589C14.8058 17.4912 13.6598 16.5961 12.9766 15.9234L11.2703 17.6348V17.6348ZM83.7634 21.5443L83.4981 21.0655C85.6918 20.7994 86.824 19.682 86.824 17.7842C86.824 15.5672 85.3733 14.4853 82.3482 14.503L77.3593 14.5385L75.8732 14.503L76.0678 21.5798L75.8732 26.0139L76.6339 25.9784L77.3947 26.0139L77.2177 21.1364H82.1536L82.7727 22.1296L84.8603 26.0671L86.6117 26.0139L83.7634 21.5443V21.5443ZM97.8103 20.4802L94.9974 14.503L94.1306 14.5385L93.2283 14.503L90.6101 20.1077L87.691 26.0139H89.3894L90.6808 23.0519H97.8103L99.1372 26.0139H100.588L97.8103 20.4802V20.4802ZM54.5909 26.0139L54.4494 21.5798V21.5443L56.3777 18.7775L59.8628 14.4853H57.6868L55.4401 17.8906L53.8302 20.0368L52.2203 17.9261L49.9204 14.4853H47.939L51.2827 18.7243L53.1756 21.5443V21.5798L53.0694 26.0139L53.8302 25.9784L54.5909 26.0139V26.0139ZM61.4373 26.0139L62.9411 25.9784L66.7447 26.0139C70.6367 26.0139 73.4142 24.2935 73.4142 20.1077C73.4142 16.2944 70.7605 14.503 67.1869 14.503L62.9411 14.5385L61.4373 14.503L61.632 21.5798L61.4373 26.0139ZM35.8029 26.0139L35.6083 21.5798L35.626 20.7639H44.9492L44.9669 21.5798L44.7723 26.0139L45.533 25.9784L46.2937 26.0139L46.0991 21.5798L46.2937 14.503L45.533 14.5385L44.7723 14.503L44.8961 19.2209H35.6791L35.8029 14.503L35.0422 14.5385L34.2815 14.503L34.4761 21.5798L34.2815 26.0139L35.0422 25.9784L35.8029 26.0139V26.0139ZM67.1869 16.0106C70.4421 16.0106 72.3173 17.4472 72.3173 20.0722C72.3173 22.9633 70.4244 24.4886 66.9569 24.4886H62.888L62.7641 21.5798L62.9234 16.0106H67.1869ZM114.619 22.0651V17.8771H114.202V17.4583H113.784V17.0395H110.442V22.9027H113.784V22.4839H114.202V22.0651H114.619ZM116.708 19.1335H117.126V19.5523H117.543V20.3899H117.126V20.8087H116.708V21.6463H116.29V22.9027H117.126V22.0651H117.543V21.2275H117.961V20.8087H118.797V21.2275H119.214V22.0651H119.632V22.9027H120.467V21.6463H120.05V20.8087H119.632V20.3899H119.214V19.5523H119.632V19.1335H120.05V18.2959H120.467V17.0395H119.632V17.8771H119.214V18.7147H118.797V19.1335H117.961V18.7147H117.543V17.8771H117.126V17.0395H116.29V18.2959H116.708V19.1335ZM11.605 17.6208C13.7167 17.7327 15.4052 19.9995 15.4052 19.9995C15.4052 19.9995 13.7167 22.2662 11.605 22.3782C11.9337 22.0102 12.6505 21.0834 12.6505 19.9995C12.6505 18.9156 11.9337 17.9888 11.605 17.6208V17.6208ZM20.9437 17.6208C20.615 17.9888 19.8982 18.9156 19.8982 19.9995C19.8982 21.0834 20.615 22.0102 20.9437 22.3782C18.8319 22.2662 17.1434 19.9995 17.1434 19.9995C17.1434 19.9995 18.8319 17.7327 20.9437 17.6208V17.6208ZM113.366 18.2959H113.784V21.6463H113.366V22.0651H111.278V17.8771H113.366V18.2959V18.2959ZM97.1382 21.5621H91.3355L91.7247 20.6753L94.1307 15.78L96.8197 20.8704L97.1382 21.5621V21.5621ZM85.7627 17.802C85.7627 18.4937 85.4973 18.9726 84.9489 19.2563C84.4004 19.5579 83.392 19.6998 81.9591 19.6998H77.2532L77.3594 15.9929H81.9591C83.4628 15.9929 84.4889 16.117 85.0019 16.383C85.515 16.6491 85.7627 17.128 85.7627 17.802Z"
          fill="white"/>
</svg>
