<svg width="130" height="40" viewBox="0 0 130 40" fill="none" xmlns="http://www.w3.org/2000/svg">
<path d="M25.2292 11.2208C24.9522 10.99 24.6324 10.816 24.2881 10.7088C23.9438 10.6016 23.5818 10.5633 23.2227 10.5961C22.8636 10.6288 22.5145 10.732 22.1953 10.8997C21.8761 11.0675 21.5931 11.2965 21.3624 11.5736L15.8244 18.2159C15.4128 18.7093 15.1874 19.3315 15.1874 19.9741C15.1874 20.6166 15.4128 21.2388 15.8244 21.7323L21.3624 28.371C21.8285 28.9303 22.4977 29.2814 23.2228 29.3473C23.9479 29.4131 24.6694 29.1882 25.2286 28.7221C25.7879 28.2559 26.139 27.5867 26.2049 26.8616C26.2707 26.1366 26.0458 25.4151 25.5797 24.8558L21.507 19.9741L25.5797 15.0876C25.8106 14.8107 25.9848 14.4911 26.0922 14.1469C26.1996 13.8027 26.2381 13.4407 26.2055 13.0816C26.173 12.7225 26.07 12.3734 25.9025 12.0541C25.735 11.7348 25.5062 11.4516 25.2292 11.2208V11.2208ZM11.8435 10.5846C11.483 10.5846 11.1259 10.6556 10.7928 10.7936C10.4597 10.9316 10.1571 11.1339 9.90217 11.3889C9.64727 11.6439 9.44511 11.9467 9.30724 12.2798C9.16936 12.613 9.09848 12.9701 9.09863 13.3306V26.6199C9.1135 27.3382 9.40929 28.0221 9.92254 28.5248C10.4358 29.0275 11.1256 29.3091 11.8441 29.3091C12.5626 29.3091 13.2524 29.0275 13.7657 28.5248C14.2789 28.0221 14.5747 27.3382 14.5896 26.6199V13.3306C14.5896 12.6023 14.3003 11.9038 13.7853 11.3889C13.2703 10.8739 12.5718 10.5846 11.8435 10.5846ZM41.742 10.5846C41.3815 10.5846 41.0244 10.6556 40.6913 10.7936C40.3582 10.9316 40.0556 11.1339 39.8007 11.3889C39.5458 11.6439 39.3436 11.9467 39.2057 12.2798C39.0679 12.613 38.997 12.9701 38.9971 13.3306V23.8727H32.8606V13.3306C32.8681 12.9653 32.8027 12.6021 32.6681 12.2624C32.5335 11.9227 32.3325 11.6133 32.0768 11.3522C31.8211 11.0912 31.5159 10.8838 31.1791 10.7422C30.8422 10.6007 30.4805 10.5277 30.1151 10.5277C29.7497 10.5277 29.388 10.6007 29.0511 10.7422C28.7142 10.8838 28.409 11.0912 28.1533 11.3522C27.8977 11.6133 27.6966 11.9227 27.5621 12.2624C27.4275 12.6021 27.3621 12.9653 27.3696 13.3306V26.6199C27.3696 26.9804 27.4407 27.3375 27.5787 27.6706C27.7167 28.0037 27.919 28.3063 28.174 28.5612C28.429 28.8161 28.7317 29.0183 29.0649 29.1562C29.3981 29.294 29.7551 29.3649 30.1157 29.3648H41.742C42.1026 29.3649 42.4596 29.294 42.7928 29.1562C43.126 29.0183 43.4287 28.8161 43.6837 28.5612C43.9387 28.3063 44.141 28.0037 44.279 27.6706C44.417 27.3375 44.4881 26.9804 44.4881 26.6199V13.3306C44.4882 12.97 44.4173 12.6128 44.2794 12.2796C44.1414 11.9463 43.9391 11.6435 43.6841 11.3885C43.4291 11.1335 43.1263 10.9312 42.7931 10.7933C42.4598 10.6553 42.1027 10.5844 41.742 10.5846V10.5846ZM99.3681 10.8362C98.8912 10.6169 98.3615 10.5388 97.8416 10.6114C97.3218 10.6839 96.8336 10.904 96.435 11.2455L92.4071 14.6984L88.3756 11.2443C87.9769 10.9029 87.4886 10.683 86.9687 10.6106C86.4487 10.5383 85.919 10.6166 85.4422 10.8362C84.9654 11.0557 84.5615 11.4074 84.2785 11.8496C83.9955 12.2917 83.8452 12.8057 83.8455 13.3306V26.6199C83.8604 27.3382 84.1561 28.0221 84.6694 28.5248C85.1827 29.0275 85.8725 29.3091 86.591 29.3091C87.3094 29.3091 87.9993 29.0275 88.5125 28.5248C89.0258 28.0221 89.3216 27.3382 89.3364 26.6199V19.2943L90.6301 20.3986C91.1277 20.8249 91.7613 21.0591 92.4165 21.0591C93.0717 21.0591 93.7053 20.8249 94.2029 20.3986L95.4836 19.3002V26.6187C95.4836 27.347 95.7729 28.0455 96.2879 28.5605C96.8029 29.0754 97.5014 29.3648 98.2297 29.3648C98.958 29.3648 99.6564 29.0754 100.171 28.5605C100.686 28.0455 100.976 27.347 100.976 26.6187V13.3294C100.975 12.8039 100.824 12.2896 100.539 11.8476C100.255 11.4057 99.8496 11.0546 99.3716 10.8362H99.3681ZM120.263 21.5382L111.961 11.5724C111.704 11.2632 111.381 11.0144 111.017 10.8437C110.652 10.673 110.255 10.5845 109.852 10.5846H104.868C104.508 10.5844 104.151 10.6553 103.817 10.7933C103.484 10.9312 103.181 11.1335 102.926 11.3885C102.671 11.6435 102.469 11.9463 102.331 12.2796C102.193 12.6128 102.122 12.97 102.122 13.3306V26.6199C102.123 26.9803 102.194 27.3373 102.332 27.6702C102.47 28.0032 102.672 28.3057 102.927 28.5605C103.182 28.8152 103.485 29.0173 103.818 29.1551C104.151 29.2929 104.508 29.3637 104.868 29.3636H111.741C112.459 29.3487 113.143 29.0529 113.646 28.5397C114.149 28.0264 114.43 27.3366 114.43 26.6181C114.43 25.8997 114.149 25.2098 113.646 24.6966C113.143 24.1833 112.459 23.8875 111.741 23.8727H107.613V16.0755H108.565L115.41 24.2901V26.6187C115.425 27.337 115.721 28.0209 116.234 28.5236C116.748 29.0264 117.437 29.3079 118.156 29.3079C118.874 29.3079 119.564 29.0264 120.077 28.5236C120.591 28.0209 120.887 27.337 120.901 26.6187V23.2964C120.902 22.6541 120.677 22.032 120.266 21.5382H120.263ZM73.7503 11.5724C73.4927 11.2633 73.1703 11.0146 72.8059 10.8439C72.4415 10.6732 72.0441 10.5847 71.6417 10.5846H66.6576C66.2971 10.5846 65.94 10.6556 65.6069 10.7936C65.2738 10.9316 64.9712 11.1339 64.7163 11.3889C64.4614 11.6439 64.2592 11.9467 64.1214 12.2798C63.9835 12.613 63.9126 12.9701 63.9128 13.3306V26.6199C63.9128 27.3479 64.2019 28.046 64.7167 28.5608C65.2315 29.0756 65.9296 29.3648 66.6576 29.3648H73.5316C74.2499 29.3499 74.9338 29.0541 75.4365 28.5409C75.9393 28.0276 76.2208 27.3378 76.2208 26.6193C76.2208 25.9008 75.9393 25.211 75.4365 24.6977C74.9338 24.1845 74.2499 23.8887 73.5316 23.8738H69.4037V16.0767H70.3551L77.2009 24.2913V26.6199C77.2157 27.3382 77.5115 28.0221 78.0248 28.5248C78.538 29.0275 79.2279 29.3091 79.9463 29.3091C80.6648 29.3091 81.3546 29.0275 81.8679 28.5248C82.3811 28.0221 82.6769 27.3382 82.6918 26.6199V23.2964C82.6912 22.6537 82.4653 22.0315 82.0532 21.5382L73.7503 11.5724ZM60.0142 16.0755C60.7325 16.0606 61.4164 15.7648 61.9191 15.2516C62.4218 14.7383 62.7034 14.0485 62.7034 13.33C62.7034 12.6116 62.4218 11.9217 61.9191 11.4085C61.4164 10.8952 60.7325 10.5994 60.0142 10.5846H48.3867C47.6584 10.5846 46.9599 10.8739 46.4449 11.3889C45.9299 11.9038 45.6406 12.6023 45.6406 13.3306V18.3135C45.6409 18.9102 45.8354 19.4907 46.1949 19.967C46.5543 20.4434 47.0591 20.7897 47.6328 20.9537L57.2681 23.7068V23.8727H48.3867C48.0213 23.8651 47.6582 23.9305 47.3185 24.0651C46.9787 24.1997 46.6693 24.4007 46.4083 24.6564C46.1472 24.9121 45.9398 25.2173 45.7983 25.5541C45.6567 25.891 45.5838 26.2527 45.5838 26.6181C45.5838 26.9835 45.6567 27.3452 45.7983 27.6821C45.9398 28.019 46.1472 28.3242 46.4083 28.5799C46.6693 28.8356 46.9787 29.0366 47.3185 29.1712C47.6582 29.3057 48.0213 29.3712 48.3867 29.3636H60.0142C60.7422 29.3636 61.4403 29.0744 61.9551 28.5596C62.4699 28.0449 62.7591 27.3467 62.7591 26.6187V21.6358C62.7592 21.039 62.5648 20.4584 62.2053 19.982C61.8458 19.5055 61.3408 19.1593 60.7668 18.9956L51.1315 16.2425V16.0755H60.0142ZM80.1245 9.33325V9.43674C80.1245 9.43674 83.9055 7.94317 84.6405 8.32891L84.1971 8.45945C84.2359 8.45945 84.9545 8.50649 84.9545 8.50649C84.9713 8.65487 85.0209 8.79766 85.0996 8.92456C85.1783 9.05147 85.2842 9.15932 85.4096 9.24034C85.8424 9.52612 85.8506 9.68136 85.8506 9.68136C85.8506 9.68136 85.626 9.77309 85.626 9.88952C85.8349 9.82973 86.0509 9.79848 86.2681 9.79661C86.4641 9.8036 86.6584 9.83481 86.8467 9.88952C86.8467 9.88952 86.8244 9.77191 86.5222 9.68136C86.2199 9.5908 85.9283 9.27092 85.7813 9.09334C85.6931 8.97983 85.6359 8.84537 85.6153 8.70313C85.5947 8.56089 85.6113 8.41574 85.6636 8.28187C85.7683 8.01373 86.1341 7.86437 86.8761 7.47863C87.757 7.0235 87.9581 6.68245 88.0816 6.42019C88.2051 6.15794 88.3909 5.63225 88.4932 5.38528C88.5783 5.15444 88.7246 4.95115 88.9166 4.79726C89.0471 4.69729 89.6422 4.47267 89.6422 4.47267C89.6422 4.47267 89.1882 4.08575 89.0401 3.96932C88.8549 3.79392 88.6206 3.67906 88.3685 3.64003C88.0534 3.59887 87.7335 3.80821 87.5171 3.94815C87.3007 4.0881 86.882 4.49737 86.7127 4.61497C86.5433 4.73257 86.1094 4.85018 85.419 5.27238C84.7287 5.69458 81.9885 7.44335 81.9885 7.44335L82.6941 7.45041L79.5271 9.09334H79.8434L79.3871 9.44615C79.6398 9.50401 79.9051 9.46365 80.1292 9.33325H80.1245Z" fill="white"/>
</svg>
