<svg width="130" height="40" viewBox="0 0 130 40" fill="none" xmlns="http://www.w3.org/2000/svg">
<path d="M73.9378 12.2988C73.7987 12.6606 67.9561 9.02904 62.6204 11.5067C58.741 13.308 57.1384 16.8003 57.1384 19.7781C57.1384 22.1244 57.9621 23.8972 58.8624 25.0523C60.3267 26.9312 61.689 27.638 62.8655 28.2662C64.7605 29.2778 67.9835 29.3116 68.962 29.2614C70.784 29.1678 72.9246 28.6465 74.7299 27.813C75.419 27.4949 76.5382 26.8045 77.5186 26.0324C79.1926 24.714 80.7345 23.0556 80.7076 23.1839C80.665 23.3875 80.6822 23.5484 79.8451 25.0016C77.3647 29.3073 73.2411 31.1855 73.2411 31.1855C67.4318 34.2258 62.2765 32.6488 61.2743 32.2704C56.8755 30.6087 54.5814 27.4935 54.0454 26.5029C53.1713 24.8871 51.6041 18.9527 53.7039 14.2357C55.2599 10.7401 58.8674 9.02264 59.2658 8.85826C65.6934 6.20445 74.0642 11.9701 73.9378 12.2988Z" fill="url(#paint0_linear_8589_42664)"/>
<path d="M74.1236 12.0016C73.8624 12.241 71.9861 10.0134 68.9736 8.40464C68.1123 7.94482 64.8264 6.29209 60.8131 6.37694C54.1601 6.51695 49.7389 11.3444 48.9505 12.239C45.0099 16.7104 43.1546 23.5958 45.371 28.9538C48.2515 35.9164 57.8894 39.9211 57.1565 40.0001L56.3133 39.7334C55.2961 39.3365 42.8114 33.7751 42.3642 22.6928C42.1121 16.448 44.142 11.3908 45.371 10.0103C47.5185 7.59812 49.2404 6.43684 50.692 5.66986C53.6088 4.12971 59.0943 2.80995 63.1656 3.41621C67.7336 4.09668 70.601 7.2509 71.9992 8.78909C73.2606 10.1763 74.3346 11.8081 74.1236 12.0016Z" fill="url(#paint1_linear_8589_42664)"/>
<path d="M74.0898 12.2936C74.3984 12.158 73.9864 8.01133 71.2618 4.85794C70.1631 3.58369 68.9548 2.42505 67.4716 1.61417C61.3392 -1.67167 53.7992 0.970664 52.1671 1.61417C50.4952 2.27306 46.9278 4.0735 43.9329 7.76762C40.557 11.9322 40.057 16.4 39.8648 18.3557C39.0435 26.7066 43.4357 33.2649 43.7484 33.166C43.9305 33.1085 41.9379 28.9356 42.3635 22.6897C42.5256 20.312 42.8586 15.9568 45.9086 11.7766C47.7561 9.31122 49.8934 7.25907 52.6816 5.90421C54.2951 5.11622 60.0679 2.57646 65.849 4.59349C67.6105 5.22063 69.2322 6.17789 70.6249 7.41252C73.1417 9.68662 73.8373 12.4047 74.0898 12.2936Z" fill="url(#paint2_linear_8589_42664)"/>
<path d="M65.2061 35.6854C65.0614 35.9289 55.0592 33.1071 51.3017 26.1527C50.7362 25.1065 48.1247 19.5298 49.838 15.1883C50.5546 13.3723 51.9653 11.3393 52.5351 10.7079C53.4555 9.68802 55.017 8.77115 56.9997 7.94031C57.8906 7.57578 59.5182 7.19634 60.4743 7.07067C61.4221 6.95532 62.8778 6.98007 63.8282 7.07067C65.6761 7.24678 68.1733 9.37983 68.1031 9.37983C68.0842 9.37983 66.1212 8.75762 64.0912 8.61972C62.4086 8.50542 60.5835 8.89166 59.9363 9.11789C58.508 9.61706 56.5505 10.7079 55.4186 12.086C54.2867 13.4642 53.3206 15.4121 53.1148 18.0234C52.9639 19.9375 53.1709 22.7296 54.0102 24.9065C54.4126 25.9499 55.1055 27.2778 56.4373 29.0265C59.2721 32.7488 65.3108 35.5108 65.2061 35.6854Z" fill="url(#paint3_linear_8589_42664)"/>
<path d="M59.787 6.19711C61.5222 5.94983 63.0073 5.86457 64.7278 6.19711C66.7022 6.58914 67.7943 6.99322 69.1391 7.67312C71.4359 8.8344 74.3429 11.8121 74.1214 12.259C73.7272 13.0557 67.6065 6.65431 59.198 8.85731C56.8201 9.65966 55.3535 10.4089 53.8348 11.5533C51.2483 13.5023 49.9666 16.0661 49.5616 17.1145C48.8662 18.9146 48.6774 19.9274 48.5932 21.843C48.5932 24.4221 49.0815 25.9181 49.672 27.5579C50.5121 29.892 52.0788 32.5602 51.8271 32.3874C48.9488 30.4106 47.1501 24.3117 46.9514 23.0476C46.7526 21.7836 45.904 16.3083 49.5615 11.7492C52.896 7.59303 58.4936 6.38334 59.787 6.19711Z" fill="url(#paint4_linear_8589_42664)"/>
<path d="M68.1152 16.7958L67.9634 17.126C67.6118 16.8351 67.1562 16.6699 66.6447 16.6699C65.3259 16.6699 64.3828 17.6059 64.3828 18.9193C64.3828 20.2406 65.3259 21.1845 66.6447 21.1845C67.1482 21.1845 67.5958 21.0272 67.9474 20.7441L68.0753 21.0429H69.2262V16.7958H68.1152ZM66.8444 19.8946C66.285 19.8946 65.8774 19.4777 65.8774 18.9193C65.8774 18.3688 66.285 17.9598 66.8444 17.9598C67.404 17.9598 67.8116 18.3688 67.8116 18.9193C67.8116 19.4777 67.404 19.8946 66.8444 19.8946Z" fill="white"/>
<path d="M70.708 21.0386H72.1946V15.2578H70.708V21.0386Z" fill="white"/>
<path d="M76.2207 19.7655C75.9089 19.7655 75.7172 19.5768 75.7172 19.2778V17.9251H76.7643V16.7925H75.6853V15.5576H75.3735L73.4395 17.5789V17.9251H74.2306V19.5217C74.2306 20.4655 74.814 21.0396 75.7652 21.0396H76.7882V19.7655H76.2207Z" fill="white"/>
<path d="M81.8681 16.7958L81.7162 17.126C81.3646 16.8351 80.909 16.6699 80.3976 16.6699C79.0788 16.6699 78.1357 17.6059 78.1357 18.9193C78.1357 20.2406 79.0788 21.1845 80.3976 21.1845C80.901 21.1845 81.3485 21.0272 81.7003 20.7441L81.8282 21.0429H82.9791V16.7958H81.8681ZM80.5974 19.8946C80.0378 19.8946 79.6302 19.4777 79.6302 18.9193C79.6302 18.3688 80.0378 17.9598 80.5974 17.9598C81.1568 17.9598 81.5644 18.3688 81.5644 18.9193C81.5644 19.4777 81.1568 19.8946 80.5974 19.8946Z" fill="white"/>
<path d="M84.4678 16.2632H85.9385V15.0205H84.4678V16.2632ZM84.46 21.0373H85.9464V16.7902H84.46V21.0373Z" fill="white"/>
<path d="M89.8376 16.7754C89.3261 16.7754 88.9584 16.917 88.6546 17.263L88.4229 16.7912H87.4238V21.0383H88.9104V18.8833C88.9104 18.3405 89.1343 18.1125 89.6537 18.1125H90.2372V16.7754H89.8376Z" fill="white"/>
<defs>
<linearGradient id="paint0_linear_8589_42664" x1="70.2778" y1="8.29641" x2="70.2778" y2="33.1211" gradientUnits="userSpaceOnUse">
<stop stop-color="white"/>
<stop offset="1" stop-color="#1E2134"/>
</linearGradient>
<linearGradient id="paint1_linear_8589_42664" x1="58.2465" y1="3.26562" x2="58.2465" y2="40.0616" gradientUnits="userSpaceOnUse">
<stop stop-color="white"/>
<stop offset="1" stop-color="#1E2134"/>
</linearGradient>
<linearGradient id="paint2_linear_8589_42664" x1="56.9755" y1="0.206249" x2="56.9755" y2="33.1679" gradientUnits="userSpaceOnUse">
<stop stop-color="#1E2134"/>
<stop offset="0.414296" stop-color="white"/>
</linearGradient>
<linearGradient id="paint3_linear_8589_42664" x1="57.375" y1="8.2024" x2="57.375" y2="35.0067" gradientUnits="userSpaceOnUse">
<stop stop-color="#1E2134"/>
<stop offset="1" stop-color="white"/>
</linearGradient>
<linearGradient id="paint4_linear_8589_42664" x1="60.4286" y1="6.62388" x2="60.4286" y2="32.3951" gradientUnits="userSpaceOnUse">
<stop stop-color="#1E2134"/>
<stop offset="1" stop-color="white"/>
</linearGradient>
</defs>
</svg>
