<svg width="130" height="40" viewBox="0 0 130 40" fill="none" xmlns="http://www.w3.org/2000/svg">
<g clip-path="url(#clip0_31658_158967)">
<path fill-rule="evenodd" clip-rule="evenodd" d="M13.2112 31.8918H10.6339C10.1348 31.8918 9.73022 31.4864 9.73022 30.9878V22.0141C9.73022 21.3047 10.1449 20.6601 10.791 20.3682L13.0448 19.3445C13.6908 19.0526 14.1056 18.408 14.1056 17.6985V15.2397V8.47151C14.1056 7.97286 14.5102 7.56747 15.0092 7.56747H18.4584C18.4501 7.56747 18.4434 7.57354 18.4434 7.58164V15.2397V17.6985C18.4434 18.408 18.0285 19.0526 17.3827 19.3445L15.1286 20.3682C14.4828 20.6601 14.0679 21.3047 14.0679 22.0141V31.8776C14.0679 31.8857 14.0747 31.8918 14.0831 31.8918H13.2112ZM21.3291 31.8918H17.8479V22.0141C17.8479 21.3047 18.2628 20.6601 18.9086 20.3682L21.1627 19.3445C21.8085 19.0526 22.2232 18.408 22.2232 17.6985V15.2397V7.56747H26.576C26.5677 7.56747 26.561 7.57354 26.561 7.58164V15.2397V17.6985C26.561 18.408 26.1461 19.0526 25.5003 19.3445L23.2462 20.3682C22.6004 20.6601 22.1857 21.3047 22.1857 22.0141V31.8776C22.1857 31.8857 22.1924 31.8918 22.2007 31.8918H21.3291ZM25.9744 31.8918H27.7262H27.9937H29.4234C29.9225 31.8918 30.3271 31.4864 30.3271 30.9878V24.2195V21.7607C30.3271 21.0513 30.742 20.4067 31.3878 20.1148L33.6419 19.0911C34.2877 18.7992 34.7024 18.1546 34.7024 17.4451V8.47151C34.7024 7.97286 34.2978 7.56747 33.7988 7.56747H32.3036H32.036H31.2214H30.3498C30.3581 7.56747 30.3648 7.57354 30.3648 7.58164V17.4451C30.3648 18.1546 29.95 18.7992 29.304 19.0911L27.0502 20.1148C26.4042 20.4067 25.9894 21.0513 25.9894 21.7607V24.2195V31.8776C25.9894 31.8857 25.9827 31.8918 25.9744 31.8918ZM76.396 13.3101C75.7921 13.3101 75.2862 13.1216 74.8781 12.7466C74.4865 12.3554 74.2907 11.873 74.2907 11.3034C74.2907 10.7318 74.4865 10.2574 74.8781 9.88244C75.2862 9.49122 75.7921 9.2946 76.396 9.2946C76.9998 9.2946 77.498 9.49122 77.8892 9.88244C78.2973 10.2574 78.5014 10.7318 78.5014 11.3034C78.5014 11.873 78.2973 12.3554 77.8892 12.7466C77.498 13.1216 76.9998 13.3101 76.396 13.3101ZM78.0852 14.9257V28.4885H74.658V14.9257H78.0852ZM107.05 18.0087C106.511 19.0709 106.241 20.2871 106.241 21.6574C106.241 23.0438 106.511 24.2762 107.05 25.3526C107.603 26.4147 108.347 27.2377 109.278 27.8255C110.224 28.4134 111.268 28.7074 112.409 28.7074C113.423 28.7074 114.311 28.5026 115.079 28.0952C115.862 27.6716 116.474 27.1405 116.916 26.504V28.4863H120.366V14.9256H116.916V16.8593C116.457 16.2391 115.845 15.7242 115.079 15.3168C114.327 14.9093 113.447 14.7046 112.436 14.7046C111.276 14.7046 110.224 14.9904 109.278 15.562C108.347 16.1336 107.603 16.9486 107.05 18.0087ZM116.425 19.5755C116.751 20.1634 116.916 20.8729 116.916 21.706C116.916 22.5391 116.751 23.2567 116.425 23.8607C116.099 24.4486 115.659 24.9047 115.103 25.231C114.548 25.5411 113.952 25.6972 113.316 25.6972C112.695 25.6972 112.109 25.533 111.554 25.2067C111.015 24.8803 110.575 24.4161 110.232 23.8121C109.906 23.1918 109.742 22.4722 109.742 21.6574C109.742 20.8405 109.906 20.1391 110.232 19.5513C110.575 18.9472 111.015 18.4911 111.554 18.1809C112.091 17.8708 112.679 17.7168 113.316 17.7168C113.952 17.7168 114.548 17.8789 115.103 18.2053C115.659 18.5154 116.099 18.9715 116.425 19.5755ZM102.328 16.2736C101.315 15.2459 99.9771 14.7311 98.3129 14.7311C97.3338 14.7311 96.4203 14.9682 95.5717 15.4426C94.7392 15.9149 94.1027 16.5432 93.6622 17.3277C93.2048 16.4946 92.5602 15.8581 91.7277 15.4182C90.8953 14.9601 89.9494 14.7311 88.8886 14.7311C88.0561 14.7311 87.2892 14.8953 86.5872 15.2216C85.9021 15.548 85.3385 15.9959 84.898 16.5676V14.9278H81.471V28.4905H84.898V20.9986C84.898 19.9385 85.1676 19.1298 85.7061 18.5744C86.2608 18.0048 87.0115 17.7189 87.9581 17.7189C88.8885 17.7189 89.6223 18.0048 90.1615 18.5744C90.7 19.1298 90.969 19.9385 90.969 20.9986V28.4905H94.396V20.9986C94.396 19.9385 94.6656 19.1298 95.2041 18.5744C95.7588 18.0048 96.5014 17.7189 97.4318 17.7189C98.3622 17.7189 99.0967 18.0048 99.6345 18.5744C100.174 19.1298 100.443 19.9385 100.443 20.9986V28.4905H103.869V20.5345C103.869 18.7061 103.356 17.2851 102.328 16.2736ZM72.0584 22.7336C72.1237 22.3424 72.1563 21.9026 72.1563 21.4121C72.1563 20.0905 71.8707 18.9229 71.2995 17.9114C70.7445 16.8837 69.9531 16.0911 68.9248 15.5377C67.9131 14.9823 66.7626 14.7046 65.4732 14.7046C64.135 14.7046 62.9518 14.9904 61.9237 15.562C60.8956 16.1336 60.0959 16.9486 59.5247 18.0087C58.9535 19.0709 58.6679 20.3033 58.6679 21.706C58.6679 23.0925 58.9535 24.3168 59.5247 25.379C60.1121 26.4391 60.9199 27.2621 61.9482 27.8499C62.9925 28.4216 64.1676 28.7074 65.4732 28.7074C67.089 28.7074 68.4517 28.2918 69.5613 27.4587C70.6711 26.6094 71.4219 25.533 71.8135 24.2276H68.1171C67.5785 25.3201 66.6728 25.8675 65.3998 25.8675C64.5185 25.8675 63.776 25.5898 63.1721 25.0344C62.5683 24.481 62.2255 23.7127 62.144 22.7336H72.0584ZM67.6519 18.3269C68.2721 18.8499 68.5904 19.5512 68.6066 20.433H62.1685C62.2991 19.5188 62.65 18.8093 63.2212 18.3026C63.8086 17.7816 64.5266 17.5201 65.3753 17.5201C66.2729 17.5201 67.0318 17.7897 67.6519 18.3269ZM56.1756 11.4008V28.4866H52.7485V21.2157H45.429V28.4866H42.0018V11.4008H45.429V18.4265H52.7485V11.4008H56.1756Z" fill="white"/>
</g>
<defs>
<clipPath id="clip0_31658_158967">
<rect width="110.811" height="25" fill="white" transform="translate(9.59448 7.5)"/>
</clipPath>
</defs>`
</svg>
