<svg width="130" height="40" viewBox="0 0 130 40" fill="none" xmlns="http://www.w3.org/2000/svg">
<path d="M26.5621 29.4893V25.9218L20.3888 19.752H16.671L26.5621 29.4893Z" fill="white"/>
<path d="M0 10.8103V14.3782L6.17321 20.5476H9.89102L0 10.8103Z" fill="white"/>
<path d="M3.24216 7H6.8452L13.0765 13.1123L19.2526 7H23.0176L13.0765 16.7934L3.24216 7Z" fill="white"/>
<path d="M3.84875 33H7.45178L13.6826 26.8877L19.8577 33H23.6228L13.6826 23.2066L3.84875 33Z" fill="white"/>
<path d="M13.3116 21.6803C14.2245 21.6803 14.9646 20.9475 14.9646 20.0436C14.9646 19.1397 14.2245 18.4069 13.3116 18.4069C12.3987 18.4069 11.6586 19.1397 11.6586 20.0436C11.6586 20.9475 12.3987 21.6803 13.3116 21.6803Z" fill="white"/>
<path d="M128.129 23.0295C128.41 23.016 128.69 23.0683 128.946 23.1821C129.202 23.2958 129.427 23.4679 129.603 23.6842C129.779 23.9059 129.901 24.1645 129.96 24.4401C130.019 24.7157 130.013 25.001 129.943 25.2741C129.802 25.9063 129.441 26.4693 128.923 26.864C128.433 27.2619 127.819 27.4799 127.185 27.4813C126.91 27.4971 126.637 27.4495 126.384 27.3424C126.132 27.2352 125.908 27.0715 125.73 26.864C125.558 26.6406 125.443 26.3797 125.394 26.1031C125.344 25.8266 125.363 25.5423 125.447 25.2741C125.573 24.65 125.914 24.0883 126.41 23.6842C126.883 23.2644 127.495 23.0314 128.129 23.0295Z" fill="white"/>
<path d="M40.3973 22.9251H39.4112C39.2406 22.9409 39.0686 22.9145 38.9108 22.8482C38.753 22.7819 38.6144 22.6778 38.5073 22.5454C38.4165 22.4166 38.3569 22.2689 38.3332 22.1137C38.3094 21.9584 38.3221 21.7999 38.3703 21.6503C38.4394 21.318 38.6176 21.0176 38.8771 20.796C39.1627 20.5327 39.5416 20.3914 39.9317 20.4027H40.9178L41.9313 15.792C42.0015 15.4078 42.2222 15.0665 42.5453 14.8427C42.8365 14.6341 43.1857 14.5197 43.5451 14.5154C43.8428 14.5106 44.1313 14.6172 44.3532 14.8137C44.4735 14.9428 44.5561 15.1018 44.5923 15.2737C44.6285 15.4457 44.6169 15.6241 44.5586 15.7901L43.5451 20.4008H44.5312C45.0004 20.4061 45.4644 20.304 45.8872 20.1025C46.2908 19.9086 46.6607 19.6522 46.9829 19.3431C47.3031 19.0348 47.5713 18.6777 47.7772 18.2853C47.9827 17.9004 48.1348 17.4898 48.2292 17.0648C48.3015 16.6804 48.3246 16.2886 48.2977 15.8986C48.2755 15.5395 48.1777 15.189 48.0101 14.8698C47.8452 14.5619 47.5992 14.3041 47.2979 14.124C46.9398 13.922 46.5318 13.8234 46.12 13.8392H40.8904C40.5271 13.8408 40.1647 13.8771 39.8084 13.9477C39.4349 14.0197 39.0746 14.1477 38.7401 14.3274C38.4081 14.5036 38.1111 14.7379 37.8635 15.019C37.6075 15.3186 37.433 15.678 37.3568 16.0632C37.2615 16.4468 37.3102 16.8516 37.4937 17.2023C37.6622 17.5239 37.8545 17.8328 38.069 18.1263C38.198 18.2561 38.2909 18.4167 38.3389 18.5925C38.3869 18.7683 38.3883 18.9534 38.3429 19.1298C38.2622 19.4676 38.0752 19.7712 37.8088 19.9968C37.5458 20.2421 37.1977 20.3781 36.8363 20.3765C36.5267 20.3771 36.2264 20.2717 35.9862 20.0782C35.4711 19.6015 35.0852 19.0043 34.8641 18.3414C34.6236 17.6052 34.5855 16.8189 34.7535 16.0632C34.9047 15.3331 35.213 14.6439 35.6575 14.0426C36.0915 13.4589 36.6245 12.9542 37.2326 12.5509C37.8508 12.141 38.5302 11.8299 39.2459 11.6287C39.958 11.4234 40.6957 11.3184 41.4373 11.3168H46.5049C47.3257 11.2874 48.1409 11.4643 48.8744 11.8312C49.4704 12.143 49.9715 12.6064 50.3261 13.1737C50.6686 13.739 50.8749 14.3747 50.9288 15.0316C50.9921 15.73 50.9505 16.4337 50.8055 17.12C50.6336 17.8639 50.3573 18.5804 49.9847 19.2486C49.6054 19.939 49.1195 20.5664 48.5442 21.1079C47.9558 21.6591 47.2743 22.1043 46.5309 22.4233C45.7356 22.7635 44.877 22.9345 44.0108 22.9251H43.027L42.7531 24.1998C42.648 24.6392 42.4965 25.0665 42.3011 25.4745C42.1168 25.862 41.8666 26.2152 41.5615 26.5187C41.2483 26.8248 40.8755 27.0647 40.4658 27.2239C39.9805 27.4055 39.4643 27.493 38.9455 27.4816C38.5235 27.4732 38.1043 27.4093 37.6992 27.2917C37.4626 27.2239 37.2435 27.1064 37.0568 26.9473C36.8701 26.7881 36.7201 26.5911 36.6172 26.3696C36.4589 26.1293 36.4001 25.8379 36.4528 25.5559C36.5422 25.1971 36.7554 24.8805 37.0555 24.6609C37.3435 24.4336 37.7006 24.3093 38.069 24.3083C38.2341 24.3055 38.3978 24.338 38.5491 24.4035C38.7003 24.469 38.8355 24.5661 38.9455 24.688C39.0016 24.7733 39.0788 24.843 39.1697 24.8904C39.2606 24.9379 39.3623 24.9616 39.465 24.9592C39.5608 24.9551 39.6533 24.9234 39.7312 24.868C39.809 24.8126 39.8689 24.7359 39.9033 24.6473C40.0774 24.2327 40.206 23.8008 40.2868 23.359L40.3973 22.9251ZM50.2586 22.1385C50.4234 21.3964 50.72 20.6892 51.1352 20.0501C51.5494 19.4058 52.0623 18.8294 52.6555 18.3414C53.2477 17.8538 53.9131 17.4604 54.6277 17.1752C55.3272 16.8901 56.0762 16.7427 56.8328 16.7412C57.5422 16.7288 58.2449 16.8773 58.8872 17.1752C59.4653 17.4449 59.9716 17.8442 60.3664 18.3414C60.757 18.8449 61.0286 19.4288 61.1608 20.0501C61.3067 20.7398 61.2973 21.4528 61.1334 22.1385C60.9705 22.8769 60.6734 23.5799 60.2569 24.2134C59.8403 24.8516 59.3274 25.4233 58.7366 25.9085C58.1453 26.3953 57.4784 26.7845 56.762 27.0612C56.0512 27.3396 55.2936 27.4824 54.5295 27.4821C53.8305 27.4924 53.1381 27.3486 52.5024 27.0612C51.9234 26.7994 51.4162 26.4042 51.0232 25.9085C50.6346 25.409 50.363 24.8299 50.2289 24.2134C50.0839 23.5281 50.0943 22.8195 50.2586 22.1385ZM58.5859 22.1385C58.6766 21.765 58.686 21.3767 58.6133 20.9994C58.5477 20.6547 58.4022 20.3297 58.1883 20.0501C57.9781 19.7786 57.7056 19.5602 57.3939 19.4128C57.0557 19.255 56.6854 19.1761 56.3119 19.1822C55.9081 19.1826 55.5076 19.2609 55.134 19.4128C54.7496 19.5669 54.3935 19.7822 54.0794 20.0501C53.7582 20.3232 53.481 20.6434 53.2576 20.9994C53.0342 21.3497 52.8722 21.7348 52.7782 22.1385C52.6781 22.4882 52.6606 22.856 52.7272 23.2135C52.7938 23.5709 52.9426 23.9084 53.1617 24.1998C53.3851 24.4798 53.6737 24.7025 54.0024 24.849C54.3311 24.9955 54.691 25.0615 55.0509 25.0415C55.4547 25.0411 55.8552 24.9628 56.2287 24.811C56.6108 24.6582 56.9665 24.4477 57.2834 24.1872C57.604 23.9239 57.8813 23.6128 58.1051 23.265C58.3304 22.9202 58.4933 22.539 58.5859 22.1385ZM68.0911 11.8602C68.0363 11.8602 67.9952 11.9144 67.9678 12.0229L67.8734 12.4026L65.3518 24.1727C65.3155 24.3173 65.2786 24.4665 65.2423 24.6202C65.2144 24.7447 65.178 24.867 65.1327 24.9863C65.2824 24.8278 65.4642 24.7029 65.6669 24.6202C65.8288 24.5595 66.0003 24.5278 66.1736 24.5267C66.3162 24.5223 66.4584 24.5478 66.5906 24.6016C66.7229 24.6553 66.8419 24.7361 66.9406 24.8386C67.0407 24.9486 67.1092 25.0836 67.138 25.229C67.1668 25.3744 67.1555 25.5249 67.105 25.6644C67.0469 25.9598 66.9042 26.2324 66.6941 26.45C66.3946 26.8194 66.0027 27.1049 65.5573 27.2782C65.1927 27.4088 64.8082 27.4776 64.4205 27.4816C64.1206 27.5118 63.8179 27.4668 63.5402 27.3507C63.2625 27.2345 63.0188 27.051 62.8317 26.8171C62.5215 26.3741 62.4657 25.6463 62.6655 24.6338L65.2952 12.4831C65.3887 11.9394 65.5545 11.4104 65.7882 10.91C65.9564 10.5556 66.1939 10.2378 66.4867 9.97472C66.7541 9.74742 67.0743 9.58903 67.4181 9.51365C67.8186 9.4277 68.2276 9.38676 68.637 9.3916H68.8562C69.0045 9.38435 69.1523 9.41556 69.285 9.48215C69.4173 9.54874 69.5301 9.64841 69.6118 9.77131C69.6968 9.89246 69.7545 10.0305 69.7804 10.1758C69.8064 10.3211 69.8003 10.4703 69.7625 10.613C69.685 10.9415 69.5027 11.2365 69.243 11.4548C68.9983 11.7057 68.664 11.8518 68.3116 11.8616L68.0911 11.8602ZM73.1861 25.1491C73.0038 24.7999 72.8479 24.4375 72.7204 24.0651C72.5749 23.6559 72.5461 23.2147 72.6382 22.7904C72.7313 22.426 72.949 22.1049 73.2546 21.8818C73.6239 21.6048 74.0131 21.3548 74.4187 21.1336C74.7763 20.9374 75.096 20.6803 75.3633 20.3742C75.5735 20.1502 75.7279 19.8809 75.8153 19.5876C75.8701 19.3164 75.6599 19.1808 75.1853 19.1808C74.8093 19.1829 74.4372 19.2566 74.0896 19.3978C73.7056 19.5548 73.3566 19.7852 73.0623 20.0758C72.7166 20.4172 72.4215 20.8053 72.1858 21.2285C71.9024 21.7409 71.7036 22.2949 71.5968 22.8694L70.8832 26.263C70.8502 26.4499 70.7789 26.6282 70.6731 26.7865C70.5677 26.9449 70.4298 27.0799 70.2693 27.1832C69.9807 27.3729 69.643 27.4764 69.2964 27.4816C69.1528 27.4854 69.0097 27.461 68.876 27.4098C68.7419 27.3586 68.6196 27.2816 68.5157 27.1832C68.4066 27.0591 68.3324 26.9086 68.3012 26.7469C68.2701 26.5852 68.2824 26.4182 68.3376 26.263L71.2686 12.5934C71.3635 12.0458 71.5293 11.5126 71.7617 11.0068C71.9274 10.6469 72.165 10.324 72.4602 10.0575C72.7237 9.83215 73.0387 9.67388 73.3778 9.59642C73.7736 9.50994 74.1779 9.46899 74.5831 9.47437H74.8296C74.9784 9.46333 75.1272 9.49289 75.2599 9.55985C75.3926 9.6268 75.5045 9.72858 75.5829 9.85408C75.7383 10.106 75.7921 10.4064 75.7336 10.6958C75.6443 11.0111 75.4696 11.2962 75.2282 11.5202C75.1106 11.6443 74.9685 11.7432 74.8107 11.8108C74.6525 11.8785 74.4825 11.9134 74.3106 11.9135H74.0641C74.0093 11.9135 73.9682 11.9677 73.9408 12.0762C73.9134 12.1847 73.8818 12.3203 73.8463 12.4831L72.5834 18.2601C73.1015 17.809 73.6829 17.4345 74.3092 17.1481C74.8306 16.8961 75.4001 16.7574 75.9801 16.7412C76.3419 16.724 76.7032 16.7799 77.0423 16.9054C77.3814 17.031 77.6907 17.2237 77.9524 17.4717C78.1975 17.7217 78.3699 18.0324 78.452 18.3713C78.5337 18.7101 78.5219 19.0645 78.418 19.3973C78.2329 20.1948 77.8305 20.9266 77.2539 21.5129C76.6739 22.1429 75.9574 22.6349 75.1583 22.9522C75.2131 23.0426 75.2953 23.2008 75.4049 23.4268C75.5144 23.6528 75.6287 23.8834 75.7477 24.1184C75.8535 24.3311 75.9773 24.5344 76.1175 24.7264C76.2455 24.8981 76.3641 24.984 76.4736 24.984C76.6304 24.8691 76.7948 24.7652 76.9662 24.673C77.1424 24.5757 77.3408 24.5248 77.5424 24.5253C77.6836 24.5197 77.8244 24.5447 77.9552 24.5986C78.0855 24.6525 78.2027 24.7339 78.2981 24.8372C78.3944 24.9497 78.4591 25.0854 78.4856 25.2307C78.512 25.376 78.4993 25.5256 78.4487 25.6644C78.3925 25.9568 78.2494 26.2259 78.0378 26.4374C77.8253 26.6574 77.5849 26.8488 77.3223 27.0069C77.0815 27.1538 76.8241 27.2722 76.5553 27.3595C76.3527 27.4311 76.1402 27.4722 75.9253 27.4816C75.5853 27.4908 75.2476 27.4211 74.9392 27.2782C74.6681 27.1447 74.4225 26.9657 74.2133 26.7493C73.997 26.5237 73.8081 26.2733 73.6518 26.0034C73.4874 25.7231 73.332 25.4384 73.1861 25.1491ZM88.7998 24.1456C88.7634 24.3083 88.7223 24.4755 88.6765 24.6473C88.6467 24.7728 88.6057 24.8954 88.5532 25.0135L88.6902 24.905C88.9608 24.6843 89.2985 24.5601 89.6489 24.5524C89.7878 24.5463 89.9266 24.5711 90.0546 24.6251C90.1826 24.6791 90.2969 24.7608 90.3885 24.8643C90.4801 24.974 90.543 25.1044 90.5718 25.244C90.6006 25.3835 90.594 25.5279 90.5529 25.6644C90.4674 25.9775 90.3078 26.266 90.0872 26.5061C89.7665 26.8199 89.3906 27.0727 88.9778 27.252C88.6359 27.3988 88.2684 27.4772 87.8958 27.4825C86.8549 27.4825 86.2523 27.0214 86.0879 26.0993C85.6213 26.5098 85.0952 26.8481 84.5265 27.1028C83.9584 27.3564 83.3421 27.4859 82.7187 27.4825C82.1259 27.5051 81.537 27.3792 81.0066 27.1164C80.5768 26.8891 80.2203 26.5458 79.9794 26.1264C79.7343 25.6842 79.594 25.1927 79.5685 24.6889C79.5359 24.1054 79.5912 23.5204 79.7329 22.9531C79.8939 22.1877 80.1612 21.448 80.5273 20.7553C80.9041 20.0232 81.384 19.3475 81.9517 18.7483C82.5075 18.1599 83.1607 17.6696 83.8828 17.2986C84.5969 16.9297 85.3913 16.7388 86.197 16.7426C86.8275 16.7203 87.4434 16.9333 87.9227 17.3393C88.0772 17.1482 88.2741 16.9951 88.498 16.8918C88.7034 16.7954 88.9278 16.7445 89.1554 16.7426C89.2999 16.7391 89.444 16.7649 89.5786 16.8186C89.7127 16.8722 89.8345 16.9525 89.9361 17.0545C90.0452 17.1818 90.1189 17.3349 90.15 17.4988C90.1812 17.6628 90.1689 17.832 90.1141 17.9898L88.7998 24.1456ZM85.677 19.1822C85.243 19.1809 84.8184 19.3084 84.4581 19.5484C84.0741 19.8016 83.7326 20.1128 83.446 20.4705C83.1442 20.8401 82.8906 21.2456 82.6903 21.6775C82.5014 22.0747 82.3635 22.4939 82.2794 22.9251C82.2261 23.1839 82.1982 23.4474 82.1973 23.7116C82.193 23.9447 82.2398 24.176 82.3342 24.3897C82.4216 24.5841 82.5642 24.749 82.7451 24.8643C82.96 24.9903 83.2075 25.0515 83.4573 25.0406C83.8644 25.0392 84.2649 24.9366 84.6215 24.7423C84.9993 24.5408 85.3379 24.2744 85.6213 23.9557C85.9217 23.6196 86.1758 23.2457 86.3769 22.8437C86.5829 22.4399 86.7345 22.0114 86.8289 21.569C86.9777 21.0206 86.9635 20.4414 86.7878 19.901C86.7128 19.6739 86.5621 19.4789 86.36 19.3482C86.1583 19.2176 85.9169 19.159 85.677 19.1822ZM101.209 24.1727C101.172 24.3173 101.135 24.4665 101.099 24.6202C101.071 24.7447 101.035 24.867 100.989 24.9863C101.157 24.8436 101.346 24.7291 101.551 24.6473C101.713 24.5866 101.884 24.555 102.058 24.5538C102.197 24.5477 102.335 24.5726 102.463 24.6265C102.591 24.6805 102.706 24.7622 102.797 24.8657C102.889 24.9754 102.952 25.1058 102.981 25.2454C103.009 25.385 103.003 25.5293 102.962 25.6658C102.871 25.9716 102.723 26.2573 102.523 26.5075C102.212 26.8511 101.823 27.1161 101.387 27.2805C101.04 27.4067 100.675 27.4747 100.306 27.4816C99.8196 27.5123 99.3383 27.3679 98.9506 27.0748C98.782 26.9182 98.6478 26.7291 98.5557 26.5192C98.4641 26.3093 98.4164 26.083 98.4164 25.8543C97.9366 26.3329 97.3816 26.7314 96.7729 27.0341C96.1693 27.3326 95.5029 27.486 94.828 27.4816C94.231 27.503 93.6378 27.3772 93.1023 27.1154C92.6687 26.8934 92.3112 26.5488 92.075 26.1255C91.8384 25.6806 91.7029 25.19 91.6779 24.688C91.6453 24.1045 91.7005 23.5195 91.8422 22.9522C92.0042 22.1851 92.2762 21.445 92.6503 20.7544C93.0328 20.0266 93.5113 19.352 94.0723 18.7483C94.6216 18.1582 95.2701 17.6676 95.9898 17.2986C96.6954 16.9318 97.4803 16.741 98.2771 16.7426C98.6304 16.7213 98.9831 16.7959 99.2967 16.9584C99.6108 17.1209 99.8739 17.3651 100.058 17.6648L101.646 10.2876C101.717 9.92091 101.928 9.59546 102.235 9.37897C102.51 9.17991 102.84 9.07084 103.18 9.06707C103.331 9.06257 103.481 9.08784 103.622 9.14138C103.764 9.19492 103.893 9.27568 104.002 9.37897C104.114 9.499 104.191 9.64693 104.225 9.80697C104.259 9.96701 104.248 10.1331 104.193 10.2876L101.209 24.1727ZM97.7562 19.1822C97.3221 19.1809 96.8975 19.3084 96.5372 19.5484C96.1528 19.8015 95.8108 20.1126 95.5237 20.4705C95.2219 20.8401 94.9683 21.2456 94.768 21.6775C94.5791 22.0747 94.4412 22.4939 94.3571 22.9251C94.3038 23.1839 94.2759 23.4474 94.2749 23.7116C94.2707 23.9447 94.3175 24.176 94.4119 24.3897C94.4993 24.5841 94.6419 24.749 94.8228 24.8643C95.0471 24.9924 95.3041 25.0536 95.5624 25.0406C95.9761 25.0422 96.3828 24.9346 96.7403 24.7287C97.1129 24.5146 97.4463 24.2394 97.7264 23.915C98.0216 23.5776 98.2714 23.2037 98.4693 22.8026C98.6653 22.4102 98.8122 21.9958 98.9076 21.5685C99.0564 21.0202 99.0422 20.4409 98.8665 19.9005C98.7914 19.6736 98.6407 19.4788 98.4386 19.3482C98.2369 19.2176 97.9961 19.1591 97.7562 19.1822ZM108.166 27.4816C107.476 27.4979 106.791 27.3537 106.167 27.0607C105.62 26.7965 105.148 26.4001 104.797 25.908C104.441 25.3972 104.207 24.8129 104.112 24.1993C104.004 23.5135 104.032 22.8133 104.194 22.1381C104.354 21.3902 104.632 20.6718 105.016 20.009C105.384 19.3676 105.856 18.7904 106.413 18.3003C106.968 17.8169 107.603 17.4315 108.289 17.1612C109.008 16.8778 109.776 16.7348 110.549 16.7403C111.203 16.7209 111.854 16.8269 112.467 17.0522C112.931 17.2279 113.347 17.5062 113.686 17.8659C113.98 18.1859 114.179 18.5801 114.261 19.005C114.343 19.431 114.338 19.869 114.247 20.2933C114.147 20.7311 113.972 21.1486 113.728 21.5273C113.469 21.9376 113.146 22.3039 112.769 22.6122C112.364 22.9405 111.906 23.1974 111.413 23.3717C110.873 23.5648 110.303 23.6612 109.729 23.6564C109.495 23.6556 109.262 23.642 109.03 23.6157C108.8 23.5926 108.574 23.5378 108.359 23.453C108.167 23.3788 108.004 23.2458 107.893 23.0733C107.777 22.8521 107.747 22.5959 107.811 22.3546C107.897 22.0258 108.077 21.7289 108.331 21.5002C108.456 21.3747 108.605 21.2752 108.77 21.2076C108.935 21.1401 109.111 21.1059 109.289 21.107C109.469 21.1026 109.646 21.1397 109.809 21.2154C110 21.2928 110.205 21.3297 110.411 21.3239C110.577 21.3296 110.743 21.3026 110.898 21.2443C111.053 21.1861 111.195 21.0979 111.315 20.9849C111.515 20.8194 111.659 20.5968 111.726 20.3475C111.752 20.2021 111.741 20.0525 111.693 19.9127C111.645 19.7728 111.562 19.6472 111.452 19.5474C111.051 19.2533 110.551 19.1223 110.055 19.1813C109.654 19.1753 109.256 19.2491 108.885 19.3982C108.513 19.5472 108.175 19.7686 107.891 20.0492C107.297 20.6132 106.887 21.3406 106.713 22.1376C106.516 22.8284 106.599 23.5684 106.946 24.1989C107.122 24.4793 107.371 24.7063 107.669 24.8549C107.966 25.0034 108.299 25.0677 108.631 25.0406C109.054 25.0487 109.476 24.9845 109.877 24.8507C110.299 24.6866 110.692 24.4578 111.041 24.1727C111.305 23.9375 111.645 23.8029 112 23.793C112.146 23.7894 112.29 23.818 112.422 23.8767C112.555 23.9353 112.673 24.0225 112.767 24.132C112.867 24.248 112.937 24.3865 112.971 24.5355C113.004 24.6845 113 24.8393 112.959 24.9863C112.917 25.1438 112.852 25.2945 112.767 25.4339C112.668 25.5973 112.549 25.7477 112.411 25.8814C111.84 26.4408 111.147 26.8631 110.385 27.1154C109.67 27.354 108.921 27.4776 108.166 27.4816ZM121.178 21.9487L123.205 25.5026C123.288 25.6087 123.34 25.7353 123.355 25.8688C123.364 25.9923 123.35 26.1163 123.314 26.2349C123.228 26.5802 123.026 26.8861 122.74 27.1019C122.476 27.337 122.136 27.4716 121.781 27.4816C121.618 27.4819 121.457 27.4398 121.316 27.3595C121.17 27.2784 121.047 27.1616 120.959 27.0205L119.179 23.981L116.166 27.0205C116.023 27.1863 115.838 27.312 115.631 27.3853C115.468 27.4428 115.297 27.4744 115.124 27.4788C114.975 27.4807 114.827 27.4472 114.694 27.3811C114.56 27.3151 114.445 27.2184 114.357 27.0991C114.259 26.9791 114.191 26.8382 114.157 26.6876C114.124 26.5369 114.127 26.3806 114.165 26.2312C114.199 26.1114 114.24 25.9936 114.288 25.8786C114.36 25.7354 114.457 25.6066 114.576 25.4989L118.082 21.973L116.247 18.7726C116.156 18.5392 116.137 18.2843 116.192 18.0403C116.271 17.6877 116.475 17.3749 116.767 17.1588C117.035 16.9309 117.373 16.8015 117.726 16.7927C117.885 16.7959 118.04 16.8378 118.178 16.9147C118.33 16.9929 118.458 17.11 118.548 17.2537L120.082 19.9388L122.766 17.2537C122.912 17.1096 123.084 16.9944 123.273 16.9147C123.432 16.8409 123.605 16.7994 123.78 16.7927C123.936 16.79 124.092 16.8242 124.232 16.8926C124.373 16.961 124.494 17.0616 124.588 17.1859C124.69 17.3067 124.761 17.4494 124.797 17.6025C124.833 17.7556 124.831 17.9148 124.793 18.0674C124.717 18.3384 124.565 18.5828 124.355 18.7726L121.178 21.9487Z" fill="white"/>
</svg>
