<svg width="130" height="40" viewBox="0 0 130 40" fill="none" xmlns="http://www.w3.org/2000/svg">
<path d="M51.0939 16.0679L48.1681 5.00195H46.1017L51.0939 23.8837V31.0896L44.1973 5.00195H42.1309L50.0607 34.9975H51.0939H52.1265H53.1597V5.00195H51.0939V16.0679Z"
      fill="white" />
<path d="M87.8712 34.9975L79.9414 5.00195H78.9082H77.875H76.8418V34.9969H78.9082L84.3621 29.5404L85.8048 34.9969L87.8712 34.9975ZM82.5288 22.6035L78.9089 26.2235V8.90985L82.5288 22.6035ZM78.9082 32.073V29.1455L83.1393 24.9144L83.7516 27.2296L78.9082 32.073Z"
      fill="white" />
<path d="M57.5137 5.00195H56.4805H55.4473V34.9969H57.5137L62.9676 29.5404L64.4103 34.9969H66.4767L58.5463 5.00195H57.5137ZM61.1336 22.6035L57.5137 26.2235V8.90984L61.1336 22.6035ZM57.5137 32.073V29.1455L61.7447 24.9144L62.3571 27.2296L57.5137 32.073Z"
      fill="white" />
<path d="M75.0538 23.5353L70.1543 5.00195H69.1211H68.0879H67.0547V34.9969H69.1211V29.4346L71.0193 27.5364L72.9918 34.9969L75.0538 34.9818L72.6535 25.9022L73.4127 25.143L75.0538 23.5353ZM69.1211 26.5127V8.90984L72.8015 22.8322L69.1211 26.5127Z"
      fill="white" />
</svg>
