<svg width="130" height="40" viewBox="0 0 130 40" fill="none" xmlns="http://www.w3.org/2000/svg">
<path d="M41.971 10.8792C40.5477 10.8792 39.176 11.058 38.6173 11.2092C37.8043 11.4378 37.6014 11.7936 37.4484 12.5311L34.2219 27.4191C34.1703 27.7233 34.1205 27.9777 34.1205 28.2322C34.1205 28.9696 34.6036 29.4509 35.3908 29.4509C36.2555 29.4509 36.6114 28.8922 36.7884 28.0275L37.7028 23.7851C38.3371 23.8607 39.176 23.9382 40.3707 23.9382C45.6308 23.9382 48.9071 21.0933 48.9071 16.7993C48.9071 13.0382 46.289 10.8792 41.971 10.8792ZM40.2435 21.4989C39.4304 21.4989 38.7943 21.4731 38.2117 21.3975L39.9135 13.4954C40.4463 13.4198 41.2354 13.3166 42.0485 13.3166C44.8435 13.3166 46.2669 14.6385 46.2669 16.8233C46.265 19.6184 44.2314 21.4989 40.2435 21.4989Z" fill="white"/>
<path d="M124.744 24.5466C124.313 24.5466 124.033 24.801 123.5 25.3855C122.56 26.3516 121.975 26.8844 121.24 26.8844C120.579 26.8844 120.224 26.3516 120.224 25.4869C120.224 25.0038 120.325 24.4194 120.452 23.7851L121.393 19.3639H124.213C125.102 19.3639 125.637 18.8551 125.637 17.9406C125.637 17.4317 125.307 17.0519 124.545 17.0519H121.9L122.357 14.9943C122.408 14.6901 122.458 14.4099 122.458 14.1554C122.458 13.4438 121.975 12.9349 121.188 12.9349C120.349 12.9349 119.969 13.4935 119.79 14.3582L119.206 17.0519H118.011C117.097 17.0519 116.564 17.5608 116.564 18.4753C116.564 18.9841 116.92 19.3639 117.681 19.3639H118.723L117.783 23.7335C117.681 24.2166 117.554 25.0038 117.554 25.8169C117.554 27.8745 118.621 29.3734 120.908 29.3734C122.23 29.3734 123.397 28.7134 124.287 27.9243C125.152 27.1628 125.786 26.2225 125.786 25.6123C125.786 25.0296 125.329 24.5466 124.744 24.5466Z" fill="white"/>
<path d="M66.3099 12.3781C66.3099 11.6406 65.801 11.1576 65.0137 11.1576C64.1748 11.1576 63.795 11.7162 63.6162 12.5809L60.4413 27.3417C60.3657 27.6459 60.3141 27.9003 60.3141 28.1547C60.3141 28.8922 60.823 29.3734 61.5844 29.3734C62.4491 29.3734 62.8289 28.8148 63.0078 27.9501L66.1826 13.1912C66.2343 12.8851 66.3099 12.6325 66.3099 12.3781Z" fill="white"/>
<path d="M111.66 16.7975C107.594 16.7975 104.825 20.837 104.825 24.6738C104.825 24.7457 104.827 24.8176 104.829 24.8877C104.191 25.8556 103.376 26.8586 102.817 26.8586C102.412 26.8586 102.259 26.477 102.259 25.8925C102.259 25.1808 102.461 23.9861 102.69 22.9444L104.799 13.1875C104.851 12.8833 104.901 12.6288 104.901 12.3744C104.901 11.6369 104.418 11.1539 103.63 11.1539C102.766 11.1539 102.412 11.7125 102.233 12.5772L101.09 17.8613C100.479 17.2271 99.5888 16.7938 98.2429 16.7938C95.5437 16.7938 92.8279 18.8717 91.7697 22.0594C90.6044 25.072 89.5627 26.8549 88.7404 26.8549C88.4362 26.8549 88.2574 26.6005 88.2574 26.1691C88.2574 24.8987 88.9691 21.7995 89.2733 20.3005C89.3747 19.7419 89.4263 19.5133 89.4263 19.1832C89.4263 18.0659 87.5715 16.744 85.1581 16.744C82.3667 16.744 79.839 18.5121 78.5724 21.1376C76.6899 24.4636 74.9624 26.8549 74.1069 26.8549C73.7253 26.8549 73.598 26.3719 73.4966 25.9146L72.8642 22.4134L76.7508 19.2385C77.1066 18.9343 77.5639 18.5011 77.5639 17.9424C77.5639 17.2566 77.1066 16.7993 76.4208 16.7993C75.9119 16.7993 75.4805 17.1035 75.049 17.4594L69.2063 22.2862L71.1625 13.1912C71.2141 12.887 71.2897 12.6325 71.2897 12.3781C71.2897 11.6406 70.7809 11.1576 69.9936 11.1576C69.1547 11.1576 68.7749 11.7162 68.5961 12.5809L65.4212 27.3417C65.3456 27.6459 65.294 27.9003 65.294 28.1547C65.294 28.8922 65.8028 29.3734 66.5643 29.3734C67.429 29.3734 67.8088 28.8148 67.9876 27.9501L68.3951 26.0455L70.7827 24.1152L71.3672 27.0614C71.5958 28.2303 72.206 29.3734 73.7806 29.3734C75.3477 29.3734 76.5812 27.9427 77.8165 26.0087C78.1907 28.0349 79.6325 29.3734 81.6329 29.3734C83.6407 29.3734 85.0125 28.1787 85.9011 26.5784V26.63C85.9011 28.2819 86.74 29.3734 88.2131 29.3734C89.5461 29.3734 90.6524 28.5696 91.6406 26.8623C92.2011 28.3502 93.4548 29.3734 95.199 29.3734C97.2565 29.3734 98.7297 28.1289 99.6699 26.4014V26.5544C99.6699 28.3834 100.584 29.3753 102.083 29.3753C103.407 29.3753 104.532 28.6064 105.492 27.3564C106.223 28.6064 107.532 29.3753 109.3 29.3753C113.365 29.3753 116.134 25.3357 116.134 21.4731C116.132 18.7537 114.48 16.7975 111.66 16.7975ZM86.3307 21.9562C85.5932 25.131 84.0187 26.936 82.2395 26.936C81.0448 26.936 80.3847 26.0216 80.3847 24.6498C80.3847 21.9562 82.3409 19.0597 84.9571 19.0597C85.7444 19.0597 86.3547 19.2883 86.8875 19.6184L86.3307 21.9562ZM100.481 20.6103C99.6681 24.3456 97.8133 26.936 95.7816 26.936C94.6643 26.936 94.0024 26.0713 94.0024 24.6498C94.0024 21.9322 95.883 19.1113 98.3978 19.1113C99.3639 19.1113 100.1 19.4414 100.634 19.8728L100.481 20.6103ZM109.602 26.936C108.129 26.936 107.519 25.8685 107.519 24.5226C107.519 22.0576 109.22 19.2385 111.355 19.2385C112.829 19.2385 113.439 20.3061 113.439 21.652C113.439 24.141 111.737 26.936 109.602 26.936Z" fill="white"/>
<path d="M55.2329 16.7975C51.1675 16.7975 48.3982 20.837 48.3982 24.6738C48.3982 27.4172 50.0502 29.3734 52.8692 29.3734C56.9346 29.3734 59.7038 25.3339 59.7038 21.4713C59.7038 18.7537 58.0519 16.7975 55.2329 16.7975ZM53.1753 26.936C51.7021 26.936 51.0919 25.8685 51.0919 24.5226C51.0919 22.0576 52.7936 19.2385 54.9286 19.2385C56.4018 19.2385 57.012 20.3061 57.012 21.652C57.0102 24.141 55.3084 26.936 53.1753 26.936Z" fill="white"/>
<path d="M16.4393 12.4537C19.0288 12.4537 21.1279 11.2328 21.1279 9.72685C21.1279 8.22085 19.0288 7 16.4393 7C13.8499 7 11.7508 8.22085 11.7508 9.72685C11.7508 11.2328 13.8499 12.4537 16.4393 12.4537Z" fill="white"/>
<path d="M16.4393 33C19.0288 33 21.1279 31.7792 21.1279 30.2732C21.1279 28.7672 19.0288 27.5463 16.4393 27.5463C13.8499 27.5463 11.7508 28.7672 11.7508 30.2732C11.7508 31.7792 13.8499 33 16.4393 33Z" fill="white"/>
<path d="M9.90552 16.2283C11.2002 13.9859 11.1918 11.5572 9.88675 10.8037C8.58168 10.0502 6.47414 11.2572 5.17943 13.4996C3.88472 15.742 3.89312 18.1707 5.1982 18.9242C6.50327 19.6777 8.61081 18.4707 9.90552 16.2283Z" fill="white"/>
<path d="M27.6972 26.5002C28.9919 24.2578 28.9842 21.8295 27.6801 21.0765C26.3759 20.3235 24.269 21.5309 22.9743 23.7734C21.6796 26.0158 21.6873 28.4441 22.9915 29.1971C24.2957 29.9501 26.4025 28.7427 27.6972 26.5002Z" fill="white"/>
<path d="M9.88741 29.1965C11.1925 28.443 11.2009 26.0143 9.90617 23.7718C8.61147 21.5294 6.50393 20.3224 5.19885 21.0759C3.89378 21.8294 3.88537 24.2581 5.18008 26.5005C6.47479 28.743 8.58233 29.95 9.88741 29.1965Z" fill="white"/>
<path d="M27.6812 18.9248C28.9854 18.1718 28.993 15.7436 27.6983 13.5011C26.4036 11.2587 24.2968 10.0513 22.9926 10.8043C21.6884 11.5573 21.6807 13.9855 22.9754 16.228C24.2701 18.4704 26.377 19.6778 27.6812 18.9248Z" fill="white"/>
</svg>
