<svg width="130" height="40" viewBox="0 0 130 40" fill="none" xmlns="http://www.w3.org/2000/svg">
<path d="M35.5207 27.721V7.40901H42.663C45.02 7.40901 46.8139 7.86937 48.0448 8.79011C49.2758 9.71085 49.8913 11.0826 49.8913 12.9055C49.8913 13.8356 49.6336 14.6726 49.1184 15.4166C48.6031 16.1606 47.8492 16.7373 46.8569 17.1465C47.9828 17.4441 48.8512 18.0068 49.4619 18.8345C50.0821 19.6529 50.3922 20.6388 50.3922 21.792C50.3922 23.6986 49.7625 25.1634 48.5028 26.1864C47.2528 27.2095 45.4589 27.721 43.1211 27.721H35.5207ZM39.142 18.5555V24.903H43.164C44.2996 24.903 45.1869 24.6286 45.8263 24.0799C46.4656 23.5312 46.7853 22.7685 46.7853 21.792C46.7853 19.6809 45.6785 18.6019 43.4646 18.5555H39.142ZM39.142 15.9607H42.6917C43.8177 15.9607 44.6955 15.7142 45.3254 15.2213C45.9646 14.7191 46.2843 14.0123 46.2843 13.1008C46.2843 12.0964 45.9885 11.371 45.3969 10.9245C44.8148 10.4781 43.9036 10.2549 42.663 10.2549H39.142V15.9607Z" fill="white"/>
<path d="M57.0275 27.721H53.5493V12.6265H57.0275V27.721Z" fill="white"/>
<path d="M80.512 20.0342C80.512 18.5555 80.8125 17.2255 81.4137 16.0444C82.0149 14.8539 82.8593 13.9425 83.9471 13.3101C85.035 12.6684 86.285 12.3475 87.6972 12.3475C89.7869 12.3475 91.4806 13.0032 92.7784 14.3145C94.0857 15.6259 94.7919 17.365 94.8968 19.532L94.9111 20.3272C94.9111 21.8153 94.6153 23.1452 94.0237 24.317C93.4416 25.4889 92.6019 26.3957 91.5045 27.0374C90.4168 27.6792 89.1572 28 87.7258 28C85.5407 28 83.7897 27.2932 82.4729 25.8795C81.1656 24.4566 80.512 22.5639 80.512 20.2016V20.0342ZM83.9901 20.3272C83.9901 21.8804 84.3193 23.0987 84.9777 23.9822C85.636 24.8565 86.5522 25.2936 87.7258 25.2936C88.8996 25.2936 89.8108 24.8471 90.4597 23.9543C91.1181 23.0615 91.4473 21.7548 91.4473 20.0342C91.4473 18.509 91.1085 17.2999 90.4311 16.4071C89.7631 15.5143 88.8518 15.0678 87.6972 15.0678C86.5617 15.0678 85.6599 15.5096 84.992 16.3931C84.3241 17.2674 83.9901 18.5788 83.9901 20.3272Z" fill="white"/>
<path d="M106.533 23.6196C106.533 23.015 106.276 22.5547 105.761 22.2384C105.255 21.9222 104.41 21.6433 103.227 21.4014C102.044 21.1596 101.056 20.8526 100.264 20.4806C98.5276 19.6623 97.6592 18.4765 97.6592 16.9233C97.6592 15.6212 98.2222 14.5331 99.3482 13.6588C100.474 12.7846 101.906 12.3475 103.642 12.3475C105.493 12.3475 106.987 12.7939 108.122 13.6867C109.267 14.5796 109.84 15.7375 109.84 17.1604H106.362C106.362 16.5094 106.114 15.97 105.617 15.5422C105.121 15.105 104.463 14.8865 103.642 14.8865C102.879 14.8865 102.254 15.0585 101.767 15.4027C101.29 15.7468 101.051 16.2071 101.051 16.7838C101.051 17.3046 101.276 17.7091 101.724 17.9974C102.173 18.2858 103.079 18.5788 104.444 18.8763C105.808 19.1647 106.877 19.5134 107.65 19.9227C108.432 20.3225 109.01 20.8061 109.382 21.3735C109.763 21.9408 109.954 22.629 109.954 23.4382C109.954 24.796 109.377 25.8981 108.222 26.7445C107.068 27.5814 105.555 28 103.685 28C102.416 28 101.285 27.7768 100.293 27.3304C99.3005 26.884 98.5276 26.2701 97.9741 25.4889C97.4207 24.7076 97.1439 23.866 97.1439 22.9639H100.522C100.57 23.7637 100.88 24.3821 101.452 24.8193C102.025 25.2471 102.783 25.4609 103.728 25.4609C104.644 25.4609 105.341 25.2936 105.818 24.9588C106.295 24.6147 106.533 24.1683 106.533 23.6196Z" fill="white"/>
<path d="M116.18 8.95752V12.6265H119V15.1376H116.18V23.5637C116.18 24.1403 116.295 24.5589 116.524 24.8193C116.762 25.0704 117.182 25.1959 117.783 25.1959C118.184 25.1959 118.59 25.1495 119 25.0564V27.6792C118.208 27.893 117.445 28 116.71 28C114.038 28 112.702 26.563 112.702 23.6892V8.95752H116.18Z" fill="white"/>
<path d="M60.9667 11.2454C60.9667 9.57134 61.4438 8.27858 62.398 7.36715C63.3523 6.45572 64.6881 6 66.4058 6C67.0164 6 68.2674 6.29486 68.8572 6.50113L68.2665 8.90171C67.8848 8.82731 67.441 8.79011 66.9354 8.79011C65.275 8.79011 64.4448 9.62249 64.4448 11.2873V12.6265H68.7958L68.0826 15.2213L64.4448 15.1376V27.721H60.9667V11.2454Z" fill="white"/>
<path d="M53.549 7.84942H57.0275V10.3922H53.549V7.84942Z" fill="white"/>
<path d="M80.0736 12.6265L79.4231 15.1376H74.797V27.721H71.3188V12.6265H80.0736Z" fill="white"/>
<path d="M31.649 12.6265H26.4867L11 27.7208H21.3245L31.649 12.6265Z" fill="white"/>
</svg>
