<svg width="130" height="40" viewBox="0 0 130 40" fill="none" xmlns="http://www.w3.org/2000/svg">
<path d="M20.3238 9.52883L14.3116 15.3951C13.6891 16.0023 12.879 16.3401 12.038 16.3433L10.246 16.3479L10.2399 9.52949H7V29.0156H8.76694C9.75523 29.0156 10.6769 28.4532 11.1603 27.5292C11.1646 27.5226 11.1665 27.516 11.1701 27.5121C11.491 26.8932 11.6517 25.6706 11.6206 24.8359C11.5509 22.9275 11.2649 22.4314 11.2649 22.4314C11.205 23.7393 9.93247 23.8102 9.93247 23.8102C10.8376 22.8822 10.3444 22.18 10.3444 22.18C8.74188 23.4053 8.34155 22.0974 8.31099 21.9786C8.36111 22.0245 8.81706 22.4334 9.68372 21.1583C10.5999 19.811 11.8216 17.5646 12.5991 16.9871C13.3777 16.4077 14.1166 16.4556 14.1166 16.4556C14.1166 16.4556 14.542 15.8367 15.6672 15.3222C16.7918 14.811 17.513 15.5611 17.513 15.5611C16.3628 16.5573 14.8012 18.1933 14.7138 20.5381C14.6441 22.4353 18.453 25.691 17.7838 30.5C18.1841 29.408 18.3448 28.314 18.2073 26.9602C18.0973 25.8675 17.4415 23.5857 17.4415 23.5857L21.0994 29.0129H25.1443L17.2386 17.3514L25.1443 9.52883H20.3238Z" fill="white"/>
<path d="M12.9579 17.9197C12.7024 18.3745 12.7024 18.5136 12.7024 18.5136C12.7024 18.5136 13.5953 18.3515 13.8374 17.2116C13.8392 17.2116 13.2677 17.3691 12.9579 17.9197Z" fill="white"/>
<path d="M35.9867 9.5L28.3811 25.5316L26.7205 29.0156H30.3553L32.0158 25.5309L35.9867 17.1657L39.9594 25.5316L41.6206 29.0156H45.2547L43.5923 25.5309L35.9867 9.5Z" fill="white"/>
<path d="M63.1392 14.7966C63.1392 13.3476 62.5941 12.037 61.7103 11.0612C61.257 10.5743 60.7185 10.1883 60.126 9.92536C59.5334 9.6624 58.8983 9.52765 58.2571 9.52884H46.7839V29.0444H50.0275V20.0669H53.2717C54.439 20.0669 55.4524 20.735 56.022 21.7404L56.0996 21.9084L59.5002 29.0451H63.135L61.4744 25.5604L58.8781 20.0125C59.3637 19.9586 59.8374 19.8175 60.2795 19.5951C61.1328 19.1715 61.8555 18.4946 62.3622 17.6444C62.8689 16.7941 63.1386 15.806 63.1392 14.7966ZM58.9325 16.4142C58.7226 16.5259 58.4913 16.5835 58.2571 16.5822L50.0293 16.6091V13.0129H58.2571C58.8279 13.0129 59.2185 13.2911 59.4251 13.5156C59.6066 13.7111 59.9183 14.1574 59.9183 14.7985C59.9179 15.1416 59.8244 15.4772 59.6492 15.7641C59.474 16.0511 59.2253 16.277 58.9325 16.4142Z" fill="white"/>
<path d="M80.6864 19.2565C80.6864 22.7136 78.0644 25.5296 74.8459 25.5296C71.6268 25.5296 69.0048 22.7143 69.0048 19.2565V9.5H65.7612V19.2565C65.7612 24.6364 69.8366 29.0136 74.8459 29.0136C79.8546 29.0136 83.9306 24.6364 83.9306 19.2565V9.5H80.6864V19.2565Z" fill="white"/>
<path d="M102.855 14.7966C102.855 13.3476 102.31 12.037 101.426 11.0612C100.973 10.5742 100.435 10.1881 99.8425 9.92509C99.25 9.66212 98.6149 9.52745 97.9738 9.52884H86.4994V29.0444H89.7454V20.0669H92.9895C94.1575 20.0669 95.1703 20.735 95.7405 21.7404L95.8181 21.9084L99.2188 29.0451H102.853L101.193 25.5604L98.5959 20.0125C99.0818 19.9587 99.5558 19.8176 99.998 19.5951C100.851 19.1712 101.573 18.4943 102.08 17.644C102.586 16.7938 102.855 15.8057 102.855 14.7966ZM98.6503 16.4142C98.4438 16.5258 98.2097 16.5822 97.9756 16.5822L89.7454 16.6091V13.0129H97.9738C98.544 13.0129 98.9345 13.2911 99.1411 13.5156C99.3233 13.7111 99.6344 14.1574 99.6344 14.7985C99.634 15.1413 99.5408 15.4766 99.3661 15.7635C99.1913 16.0503 98.9427 16.2765 98.6503 16.4142Z" fill="white"/>
<path d="M121.339 25.5316L113.733 9.5L106.126 25.5316L104.465 29.0156H108.1L109.76 25.5309L113.733 17.1657L117.704 25.5316L119.365 29.0156H123L121.339 25.5316Z" fill="white"/>
</svg>
