<svg width="130" height="40" viewBox="0 0 130 40" fill="none" xmlns="http://www.w3.org/2000/svg">
<path d="M24.2257 21.7069L24.2185 21.714L24.2173 21.7128C20.4467 25.4688 14.82 26.248 10.2789 24.0518C13.2555 27.0376 17.6521 27.7563 21.3129 26.2069L15.7545 31.7438C14.6031 32.8921 12.7353 32.8921 11.5826 31.7438L6.42573 26.6068C5.17491 25.3608 5.47051 23.2571 7.02857 22.4226C9.35721 21.1753 11.9853 20.8114 14.5205 21.2782C10.7694 19.4162 6.09011 20.0412 2.96243 23.1568L2.08983 22.2876C1.26628 21.4672 1.26628 20.1363 2.08983 19.3146L3.1212 18.2872C6.89174 14.5312 12.5185 13.752 17.0596 15.9483C14.083 12.9625 9.68634 12.2437 6.02557 13.7931L11.5839 8.25621C12.7353 7.10793 14.6031 7.10793 15.7558 8.25621L20.9127 13.3932C22.1635 14.6392 21.8679 16.7429 20.3099 17.5774C17.9812 18.8247 15.3531 19.1886 12.8179 18.7218C16.5691 20.5838 21.2483 19.9589 24.376 16.8432L25.2499 17.7137C26.0747 18.5354 26.0747 19.8676 25.2499 20.6879C24.8825 21.0526 24.5138 21.4199 24.2257 21.7069Z" fill="white"/>
<path d="M103.02 27.0415C103.02 27.2009 102.9 27.2807 102.639 27.2614C101.918 27.2215 101.277 27.2009 100.717 27.2009C100.116 27.2009 99.4751 27.2202 98.795 27.2614C98.5343 27.2807 98.4138 27.2009 98.4138 27.0415C98.4138 26.9425 98.5343 26.8216 98.7743 26.7226C99.1151 26.5824 99.1948 26.2635 99.1948 25.4663V18.8441C99.1948 18.0662 99.1151 17.7473 98.7743 17.5878C98.5343 17.4888 98.4138 17.3885 98.4138 17.2484C98.4138 17.1082 98.5343 16.9886 98.7743 16.9089C99.8961 16.689 100.917 16.3508 101.858 15.8917C102.119 15.7721 102.239 15.8313 102.239 16.091V25.465C102.239 26.2635 102.319 26.5824 102.66 26.7213C102.9 26.8203 103.02 26.9412 103.02 27.0402V27.0415Z" fill="white"/>
<path d="M99.1756 14.5364C98.3946 13.8987 98.3946 12.861 99.1756 12.2232C99.9566 11.5854 101.198 11.5854 101.978 12.2232C102.759 12.861 102.759 13.8987 101.978 14.5364C101.197 15.155 99.9551 15.155 99.1756 14.5364Z" fill="white"/>
<path fill-rule="evenodd" clip-rule="evenodd" d="M70.7037 26.882C70.7037 27.0221 70.5837 27.1018 70.3231 27.1018C68.9421 27.1417 67.9206 27.2009 67.2395 27.2819C66.999 27.3218 66.879 27.2022 66.879 26.9424V25.4264C66.1383 26.8228 64.9363 27.5198 63.2957 27.5198C61.7544 27.5198 60.5126 26.9411 59.6116 25.7852C58.7106 24.6278 58.2901 23.0527 58.3506 21.0789C58.4111 19.2632 58.9713 17.8681 60.0518 16.8908C61.1529 15.9136 62.4941 15.515 64.1165 15.6937C65.378 15.8339 66.2997 16.451 66.8805 17.5286V15.5535C66.8805 14.836 66.7398 14.4168 66.4595 14.2973C66.2195 14.1982 66.0995 14.0979 66.0995 13.9578C66.0995 13.8176 66.2195 13.698 66.4403 13.6183C67.5621 13.419 68.6023 13.0795 69.5436 12.6012C69.7241 12.5009 69.9036 12.5806 69.9036 12.8005V25.3261C69.9036 26.1041 70.0044 26.423 70.3437 26.5631C70.5837 26.6621 70.7037 26.783 70.7037 26.882ZM66.9193 21.8967V20.9786C66.8391 18.0867 65.6982 16.5706 63.9955 16.6503C63.1939 16.6697 62.5742 17.1685 62.1134 18.1266C61.6526 19.0845 61.4524 20.2803 61.4731 21.7167C61.4937 23.1723 61.7741 24.2897 62.3342 25.1075C62.8944 25.906 63.576 26.2841 64.3762 26.2442C65.8983 26.185 66.8391 24.669 66.9193 21.8967Z" fill="white"/>
<path d="M46.897 27.2613C47.1577 27.2806 47.2777 27.2009 47.2777 27.0414V27.0401C47.2777 26.9412 47.1577 26.8203 46.9176 26.7212C46.5768 26.5824 46.4968 26.2635 46.4968 25.4649V14.5956C46.4968 13.7983 46.5768 13.4781 46.9176 13.3393C47.1577 13.2403 47.2777 13.1207 47.2777 13.0204C47.2777 12.8609 47.1577 12.7812 46.897 12.8005C45.4551 12.8802 44.2946 12.8802 42.8528 12.8005C42.592 12.7812 42.472 12.8609 42.472 13.0204C42.472 13.1194 42.592 13.239 42.8321 13.3393C43.1729 13.4781 43.2529 13.7983 43.2529 14.5956V20.4192H37.1512V14.5956C37.1512 13.7983 37.2312 13.4781 37.572 13.3393C37.8121 13.2403 37.9321 13.1207 37.9321 13.0204C37.9321 12.8609 37.8121 12.7812 37.5513 12.8005C36.1095 12.8802 34.949 12.8802 33.5072 12.8005C33.2464 12.7812 33.1263 12.8609 33.1263 13.0204C33.1263 13.1194 33.2464 13.239 33.4671 13.3393C33.8479 13.4781 33.9073 13.7983 33.9073 14.5956V25.4663C33.9073 26.2635 33.8479 26.5824 33.4671 26.7225C33.2464 26.8421 33.1263 26.9424 33.1263 27.0414C33.1263 27.2009 33.2464 27.2806 33.5072 27.2613C34.949 27.1816 36.1095 27.1816 37.5513 27.2613C37.8121 27.2806 37.9321 27.2009 37.9321 27.0414C37.9321 26.9424 37.8121 26.8216 37.572 26.7225C37.2312 26.5837 37.1512 26.2648 37.1512 25.4663V21.2383H43.2529V25.4663C43.2529 26.2635 43.1729 26.5824 42.8321 26.7225C42.592 26.8216 42.472 26.9424 42.472 27.0414C42.472 27.2009 42.592 27.2806 42.8528 27.2613C44.2946 27.1816 45.4551 27.1816 46.897 27.2613Z" fill="white"/>
<path d="M58.8897 16.4112C59.0914 16.352 59.1907 16.2517 59.1907 16.0923C59.1907 15.9521 59.0717 15.8724 58.8317 15.893C58.1904 15.9328 57.8108 15.9521 57.6701 15.9521C57.4891 15.9521 57.0489 15.9328 56.3688 15.893C55.8681 15.893 55.8681 16.2916 56.3481 16.4317C56.9083 16.5307 56.9884 17.0695 56.5881 18.0468C56.5432 18.1551 56.4331 18.4321 56.2564 18.8763C55.8796 19.8239 55.2001 21.5327 54.2053 23.99L51.7825 17.688C51.4624 16.8908 51.4418 16.5719 51.8226 16.4317C52.0625 16.3314 52.1825 16.2119 52.1825 16.0923C52.1825 15.9521 52.0625 15.8724 51.8019 15.893C50.28 15.9727 49.2396 15.9727 47.7177 15.893C47.457 15.8724 47.3369 15.9521 47.3369 16.0923C47.3369 16.2119 47.457 16.3314 47.6971 16.4317C47.8158 16.4909 47.9165 16.5719 47.9966 16.6709C48.1566 16.8303 48.2063 16.9423 48.4378 17.464L48.4383 17.465L48.4848 17.5698L52.8617 27.3809C52.3207 28.5973 51.6005 29.1759 50.7395 29.0962C50.5588 29.0769 50.3394 28.9972 50.0386 28.857C49.9961 28.8374 49.9558 28.8185 49.9172 28.8003C49.4481 28.5801 49.2377 28.4813 48.4974 28.758C48.3373 28.8378 48.216 28.938 48.1166 29.0576C47.8158 29.4357 47.8158 29.8549 48.1166 30.3139C48.518 30.9324 49.219 31.1908 50.2194 31.0919C51.2004 31.0121 51.9813 30.6135 52.602 29.7558C52.903 29.3367 53.1627 28.938 53.3432 28.5587C53.5237 28.1794 53.7435 27.701 54.0041 27.0825L57.6081 18.0468C57.9887 17.0296 58.4289 16.4909 58.8897 16.4112Z" fill="white"/>
<path d="M80.274 18.5457C80.6148 18.007 80.6148 17.4489 80.3138 16.8304V16.833C79.9332 16.0344 79.1522 15.6358 77.9709 15.6358C76.6701 15.6358 75.7882 16.3546 75.3083 17.7703V17.7099L75.1671 16.0949C75.1469 15.8351 75.0073 15.776 74.7864 15.8955C73.8249 16.3945 72.8246 16.7326 71.8037 16.9526C71.6226 16.9924 71.5233 17.0914 71.5233 17.2316C71.5233 17.3717 71.6433 17.472 71.8833 17.571C72.1843 17.6906 72.3235 18.1098 72.3235 18.8273V25.4688C72.3235 26.2069 72.1843 26.6261 71.8833 26.7251C71.6433 26.8241 71.5233 26.945 71.5233 27.044C71.5233 27.2034 71.6433 27.2831 71.904 27.2639C73.346 27.1841 74.4869 27.1841 76.0091 27.2639C76.2682 27.2831 76.4089 27.2034 76.4089 27.044C76.4089 26.9244 76.2889 26.8241 76.0282 26.7444C75.5286 26.6042 75.3481 26.266 75.3481 25.4675V20.1222C75.3481 18.1484 75.8281 17.1505 76.7694 17.1505C77.51 17.1505 77.8912 17.6688 77.9709 18.1676C78.0702 18.646 78.411 19.1642 79.1124 19.1642C79.6337 19.1835 80.0133 18.9649 80.274 18.5457Z" fill="white"/>
<path fill-rule="evenodd" clip-rule="evenodd" d="M91.1467 27.0016C91.1467 27.1816 91.0055 27.2613 90.7463 27.2613H90.5255C89.9845 27.2613 89.9653 27.2613 89.4244 27.2009C89.1637 27.1816 88.9444 27.1211 88.8037 27.0607C88.3025 26.7816 87.762 26.4023 87.5826 25.4649C86.9422 26.7611 85.5003 27.5198 83.9176 27.5198C81.735 27.5198 80.474 26.383 80.4145 24.768C80.2945 22.375 82.4772 21.318 84.3386 20.8988C84.4877 20.8593 84.6387 20.8199 84.7899 20.7803C85.9382 20.4801 87.0974 20.1771 87.5216 19.8418V19.5229C87.5216 17.1891 87.1616 16.1527 85.7998 16.1527C84.4282 16.1527 84.2605 17.0289 84.1002 17.8665C83.9471 18.6669 83.8006 19.432 82.6168 19.3635C82.0758 19.3442 81.735 19.0639 81.5752 18.565C81.375 17.9671 81.5348 17.3884 82.0758 16.8098C82.8361 16.0319 84.078 15.6332 85.7998 15.6332C88.9237 15.6332 90.5048 16.9294 90.5048 19.802C90.5048 19.982 90.5048 20.8191 90.5245 22.3146C90.5436 23.81 90.5436 24.768 90.5436 25.1872C90.5436 25.9857 90.6238 26.464 90.7837 26.6428C90.8424 26.7012 90.9065 26.7436 90.964 26.7817C91.0635 26.8475 91.1436 26.9005 91.1436 27.0016H91.1467ZM87.5024 23.711L87.5216 20.7985C87.3411 20.9181 86.9811 21.0981 86.4401 21.3167C85.9155 21.53 85.4677 21.742 85.0572 21.9363L85.0188 21.9545C84.2171 22.3532 83.3978 23.2314 83.4775 24.3282C83.537 25.2656 84.2988 25.8237 85.2588 25.8044C86.6206 25.8044 87.5009 24.8271 87.5009 23.7097L87.5024 23.711Z" fill="white"/>
<path d="M95.1713 27.4799C96.1923 27.4799 96.9526 27.1405 97.4538 26.4628C97.5728 26.2635 97.5738 26.1234 97.4744 26.0243C97.3943 25.9433 97.2551 25.9639 97.0343 26.0835C96.6133 26.2236 96.3335 26.2828 96.213 26.2635C95.7925 26.1838 95.5923 25.7646 95.5923 24.9867V16.7095H97.1941C97.3958 16.7095 97.4951 16.5694 97.4951 16.2904C97.4951 16.0306 97.3943 15.8917 97.1941 15.8917H95.5923V13.7379C95.5923 13.518 95.4723 13.419 95.2515 13.419C95.072 13.419 94.951 13.4988 94.8915 13.6788C94.6913 14.296 94.3313 14.8155 93.7904 15.2539C93.27 15.6719 92.7099 15.8917 92.1291 15.8917H91.8684C91.6087 15.8917 91.5482 15.9715 91.5482 16.2904C91.5482 16.5707 91.6486 16.7095 91.8684 16.7095H92.5692V24.8478C92.5692 26.6017 93.4304 27.4799 95.1713 27.4799Z" fill="white"/>
<path fill-rule="evenodd" clip-rule="evenodd" d="M115.512 21.5765C115.512 19.901 114.973 18.4853 113.891 17.3485H113.89C112.829 16.2119 111.406 15.6332 109.665 15.6332C107.924 15.6332 106.522 16.2119 105.461 17.3485C104.399 18.4853 103.859 19.8817 103.839 21.5765C103.839 23.2725 104.38 24.6883 105.441 25.825C106.502 26.9617 107.924 27.5198 109.666 27.5198C111.409 27.5198 112.83 26.9617 113.891 25.825C114.972 24.6883 115.512 23.252 115.512 21.5765ZM108.365 25.6655C107.704 24.7281 107.245 23.531 106.984 22.0355C106.483 19.2825 106.784 16.6696 108.666 16.3109C109.546 16.1707 110.327 16.5501 110.988 17.4874C111.649 18.4248 112.108 19.622 112.369 21.1174C112.851 23.8705 112.529 26.4834 110.708 26.8421C109.807 26.9822 109.026 26.6029 108.365 25.6655Z" fill="white"/>
<path d="M128.528 27.0414C128.528 27.2009 128.408 27.2806 128.147 27.2613C126.785 27.1816 125.665 27.1816 124.303 27.2613C124.042 27.2806 123.922 27.2009 123.922 27.0414C123.922 26.9424 124.042 26.8215 124.282 26.7225C124.623 26.5823 124.703 26.2635 124.703 25.4662V20.3806C124.703 18.187 123.962 17.0901 122.48 17.0901C121.659 17.0901 121.039 17.409 120.618 18.0468C120.197 18.6653 119.997 19.4227 119.997 20.2803V25.4662C119.997 26.2043 120.136 26.6235 120.437 26.7225C120.658 26.8215 120.778 26.9424 120.778 27.0414C120.778 27.2009 120.658 27.2806 120.397 27.2613C119.757 27.2214 119.115 27.2009 118.496 27.2009C117.876 27.2009 117.254 27.2201 116.574 27.2613C116.313 27.2806 116.192 27.2009 116.192 27.0414C116.192 26.9424 116.313 26.8421 116.533 26.7225C116.834 26.6235 116.973 26.2043 116.973 25.4662V18.8248C116.973 18.1072 116.834 17.688 116.533 17.5685C116.293 17.4694 116.173 17.3691 116.173 17.229C116.173 17.0888 116.273 16.9898 116.454 16.9499C117.475 16.7301 118.475 16.3919 119.436 15.893C119.657 15.7734 119.797 15.8326 119.818 16.0923L119.958 17.7073L119.977 17.9066C120.678 16.3906 121.899 15.6332 123.622 15.6332C126.484 15.6332 127.745 17.1685 127.745 20.3806V25.4662C127.745 26.2647 127.826 26.5836 128.166 26.7225C128.406 26.8215 128.526 26.9424 128.526 27.0414H128.528Z" fill="white"/>
</svg>
