<svg width="130" height="40" viewBox="0 0 130 40" fill="none" xmlns="http://www.w3.org/2000/svg">
    <path fill-rule="evenodd" clip-rule="evenodd"
          d="M7.6088 12C8.671 12 9.51643 12.8536 9.51643 13.9261C9.51643 14.7579 8.99617 15.4583 8.25913 15.7428V25.7018C9.62481 25.6361 10.8821 25.3953 12.0093 24.9795V17.3406C11.2723 17.078 10.752 16.3557 10.752 15.5239C10.752 14.4514 11.5975 13.5978 12.6597 13.5978C13.7219 13.5978 14.5673 14.4514 14.5673 15.5239C14.5673 16.3557 14.047 17.0561 13.31 17.3406V24.3885C14.5673 23.71 15.5644 22.7907 16.2365 21.6525C15.7812 21.2367 15.4994 20.6457 15.4994 19.9891C15.4994 18.7415 16.4966 17.7565 17.7105 17.7565C17.8189 17.7565 17.9056 17.7565 18.014 17.7784C19.7049 14.8016 23.325 13.0068 27.6605 12.9631H34.7924C35.1609 12.9631 35.4427 13.2476 35.4427 13.6197C35.4427 13.9699 35.1826 14.2544 34.8358 14.2763H33.5351V24.2572C34.2721 24.5198 34.7924 25.2421 34.7924 26.0739C34.7924 27.1464 33.947 28 32.8848 28C31.8226 28 30.9772 27.1464 30.9772 26.0739C30.9772 25.2421 31.4974 24.5417 32.2345 24.2572V14.2544H28.4842V24.2353C29.2213 24.4979 29.7415 25.2202 29.7415 26.052C29.7415 27.1245 28.8961 27.9781 27.8339 27.9781C26.7717 27.9781 25.9263 27.1245 25.9263 26.052C25.9263 25.2202 26.4466 24.5198 27.1836 24.2353V14.2763C25.8179 14.342 24.5606 14.5828 23.4334 14.9986V22.6375C24.1704 22.9001 24.6907 23.6224 24.6907 24.4542C24.6907 25.5267 23.8453 26.3803 22.7831 26.3803C21.7209 26.3803 20.8754 25.5267 20.8754 24.4542C20.8754 23.6224 21.3957 22.922 22.1327 22.6375V15.5896C20.8754 16.2681 19.8783 17.1874 19.2063 18.3256C19.6615 18.7415 19.9433 19.3324 19.9433 19.9891C19.9433 21.2367 18.9461 22.2216 17.7322 22.2216C17.6238 22.2216 17.5371 22.2216 17.4287 22.1997C15.7379 25.1765 12.1177 26.9713 7.78222 27.015H0.650325C0.281808 27.015 0 26.7305 0 26.3584C0 26.0082 0.26013 25.7237 0.60697 25.7018H1.90762V15.7428C1.17059 15.4583 0.650325 14.7579 0.650325 13.9261C0.650325 12.8536 1.49575 12 2.55795 12C3.62014 12 4.46557 12.8536 4.46557 13.9261C4.46557 14.7579 3.94531 15.4583 3.20827 15.7428V25.7237H6.95848V15.7428C6.22144 15.4802 5.70118 14.7579 5.70118 13.9261C5.70118 12.8536 6.54661 12 7.6088 12ZM48.3625 14.8016C51.3323 14.8016 53.5651 16.9248 53.5651 19.9672C53.5651 22.8126 51.2456 25.0889 48.4492 25.1327H43.8753V14.8016H48.3625ZM61.1522 14.8016L65.5311 25.1327H63.9053L60.4152 16.7278L56.9685 25.1327H55.321L59.6999 14.8016H61.1522ZM73.2916 14.8016C75.0692 14.8016 76.2398 16.1368 76.2398 17.7565C76.2398 18.9822 75.5461 20.0766 74.4189 20.5144L74.3538 20.5363L76.2398 25.1327H74.5273L72.7064 20.7114H70.7987V19.223H73.1182C73.9853 19.223 74.5706 18.632 74.5706 17.7565C74.5706 16.881 73.9853 16.29 73.1182 16.29H68.9345V25.1327H67.287V14.8016H73.2916ZM79.7299 14.8016L83.1116 23.119L84.4556 19.5951L82.4829 14.8016H84.2605L87.4904 23.119L90.8287 14.8016H92.5629L88.2058 25.1327H86.7534L85.3227 21.6088L83.8052 25.1327H82.3528L77.974 14.8016H79.7299ZM95.4027 25.1327H97.0502V14.8016H95.4027V25.1327ZM102.361 14.8016L109.732 22.6594V14.8016H111.379V25.1327H109.97L102.6 17.275V25.1327H100.952V14.8016H102.361ZM115.281 25.1327H116.928V14.8016H115.281V25.1327ZM125.599 14.8016L130 25.1327H128.374L124.884 16.7278L121.416 25.1327H119.768L124.147 14.8016H125.599ZM48.3625 16.29H45.5228V23.6662H48.3625C50.3785 23.6662 51.896 22.0465 51.896 19.9672C51.896 17.8878 50.4002 16.29 48.3625 16.29Z"
          fill="white"/>
</svg>
