<svg width="130" height="40" viewBox="0 0 130 40" fill="none" xmlns="http://www.w3.org/2000/svg">
<path d="M30.0661 20.4048H24.7757V15.2024H32.5963V10H24.7757V15.2024H20.4054V10L15 10V29H20.4054V20.4048H24.7757V25.4941H28.226V29H33.5164V23.7976H30.0661V20.4048ZM47.5474 16.8988H41.452V10L36.0466 10V29H41.452V22.1012H47.4324C47.4669 24.397 47.5129 26.7042 47.5474 29H52.8378V10H47.5474V16.8988ZM62.4986 10C60.3853 15.0326 54.563 29 54.563 29H60.0834C60.5089 27.903 60.9229 26.8173 61.3485 25.7202H68.709C69.0886 26.772 69.4796 27.8351 69.8591 28.8869C71.7798 28.9208 73.6889 28.9661 75.6095 29L67.5589 10H62.4986ZM62.9586 21.5357C63.6141 19.8393 64.2582 18.1429 64.9137 16.4464C65.6383 18.1429 66.3744 19.8393 67.0989 21.5357H62.9586ZM82.6251 10H77.3347V29H92.2858V23.7976H82.6251V10ZM107.122 10H101.947C99.8129 15.0812 94.0109 29 94.0109 29H99.5313C99.9569 27.903 100.371 26.8173 100.796 25.7202H108.157L109.307 29H115C115 29 109.767 16.3333 107.122 10ZM102.407 21.5357L104.362 16.4464L106.547 21.5357H102.407Z" fill="white" fill-opacity="0.4"/>
</svg>
