<svg width="130" height="40" viewBox="0 0 130 40" fill="none" xmlns="http://www.w3.org/2000/svg">
    <path d="M24.3022 8.14185L14.5439 13.6448C14.4336 13.7073 14.3374 13.7864 14.2578 13.8782C14.0938 14.0667 14 14.3088 14 14.5647V19.6809L24.29 13.8196C24.4692 13.719 24.6704 13.6702 24.8701 13.675C25.0532 13.679 25.2354 13.7268 25.3994 13.8196L28.3657 15.4915C28.625 15.6379 28.9268 15.6702 29.2012 15.5959C29.3779 15.5481 29.5435 15.4563 29.6792 15.3225L31.7617 13.2756C32.2656 12.7815 32.1543 11.9543 31.5361 11.6067L25.3901 8.14185C25.0532 7.95142 24.6392 7.95142 24.3022 8.14185Z"
          fill="white"/>
    <path d="M25.3867 31.8586L31.5576 28.3782C32.1758 28.0305 32.2871 27.2004 31.7803 26.7092L29.6914 24.6682C29.3452 24.3274 28.8076 24.2581 28.3813 24.4993L25.3867 26.1868C25.3091 26.2307 25.2275 26.2649 25.1436 26.2883C25.0439 26.3167 24.9409 26.3303 24.8379 26.3293C24.7354 26.3284 24.6328 26.3137 24.5337 26.2844C24.4966 26.2737 24.46 26.261 24.4243 26.2463L24.3574 26.2161L24.3022 26.1868L19.5713 23.5178C19.2344 23.3313 19.0273 22.9807 19.0273 22.6008V17.9495L14 20.7952V25.4348C14 25.8157 14.207 26.1653 14.5439 26.3557L24.3022 31.8586C24.6362 32.0481 25.0503 32.0481 25.3867 31.8586Z"
          fill="white"/>
    <path d="M70.9873 10.5627V24.9788C70.9873 25.9661 70.564 26.0813 69.6152 26.0813H62.1343C62.0649 26.0813 61.9985 26.0764 61.9351 26.0676C61.874 26.0598 61.8159 26.0481 61.7603 26.0315C61.6025 25.9856 61.4648 25.9065 61.3428 25.7942C61.2285 25.6917 61.04 25.7092 61.04 24.8069V10.5598H57.2549V25.1936C57.2549 26.4221 57.6875 27.4543 58.5405 28.2629C59.3594 29.0452 60.5239 29.4407 62.0044 29.4407H69.9922C71.3516 29.4407 72.4951 29.0305 73.3882 28.218C73.8579 27.7913 74.209 27.343 74.4395 26.7903C74.6592 26.2639 74.7695 25.6418 74.7695 24.8528V10.5598L70.9873 10.5627Z"
          fill="white"/>
    <path d="M92.2866 18.5579C92.9077 18.7463 93.4448 19.0774 93.8936 19.5491C94.623 20.3157 94.9907 21.4143 94.9971 22.8206V25.0276C94.9971 26.3586 94.6167 27.4182 93.8691 28.176C93.0347 29.0178 91.9253 29.4465 90.5752 29.4465H78.9473V26.0842H89.8394C90.2969 26.0842 90.6523 25.9631 90.9209 25.7131C91.0259 25.6096 91.2114 25.6252 91.2114 24.6985V22.7942C91.2114 22.4954 91.063 22.2327 90.751 21.9875C90.668 21.9211 90.5649 21.8684 90.4419 21.8284C90.2568 21.7678 90.0264 21.7375 89.75 21.7375H82.5376C81.416 21.7375 80.498 21.3928 79.8154 20.717C79.6567 20.5618 79.52 20.384 79.4053 20.1848C79.3052 20.011 79.2222 19.8206 79.1558 19.6145C79.0273 19.2141 78.9624 18.7532 78.9624 18.2327V14.7288C78.9624 13.551 79.1323 12.7512 79.4785 12.2805C80.313 11.136 81.4531 10.554 82.8652 10.554H94.873V13.9163H84.228C83.4185 13.9163 83.1992 14.0793 83.0566 14.218C82.9268 14.3489 82.8477 14.4934 82.8013 14.6545C82.7588 14.803 82.7446 14.9661 82.7446 15.1448V17.0793C82.7446 17.4387 82.7817 17.7317 83.0786 18.0002C83.3843 18.2874 83.6655 18.3713 84.0889 18.3713H90.9487C91.4302 18.3713 91.8765 18.4338 92.2866 18.5579Z"
          fill="white"/>
    <path d="M99.5112 10.5598V13.9221H105.824V29.4407H109.61V13.9221H116V10.5598H99.5112Z" fill="white"/>
    <path d="M53.3521 14.7043C53.3521 14.7043 53.4478 17.2913 53.3521 18.3899C53.2563 19.4856 53.2715 20.3342 52.5176 21.134C52.0283 21.6536 51.3394 21.9094 50.9458 22.0862C50.7334 22.1819 50.6069 22.2542 50.645 22.3323C50.7256 22.5012 53.3862 29.4583 53.3862 29.4583H48.8809L46.2603 22.5735H40.5098V29.4583H36.7241V19.2141H48.0928C48.5405 19.2141 48.8794 19.1379 49.1187 18.9778C49.4238 18.7727 49.5669 18.4299 49.5669 17.9338V15.1868C49.5669 14.052 48.6182 13.9075 47.79 13.9075H38.4331L36.7241 10.5452L39.1895 10.553L41.1987 10.5569L48.3213 10.5452C49.5762 10.5452 50.4751 10.6926 51.0684 11.0002C52.0742 11.5139 52.7515 12.2356 53.0928 13.1565C53.2651 13.6223 53.3521 14.1389 53.3521 14.7043Z"
          fill="white"/>
</svg>
