<svg width="130" height="40" viewBox="0 0 130 40" fill="none" xmlns="http://www.w3.org/2000/svg">
<path fill-rule="evenodd" clip-rule="evenodd" d="M70.1366 15.9918L70.1527 17.1633H71.9403H73.7278L73.7439 15.9918L73.76 14.8203H71.9403H70.1205L70.1366 15.9918ZM102.61 15.9918L102.626 17.1633H104.413H106.201L106.217 15.9918L106.233 14.8203H104.413H102.594L102.61 15.9918ZM49.2686 16.5844V17.8285H51.6222C52.9166 17.8285 53.9757 17.8419 53.9757 17.8581C53.9757 17.8743 53.8868 18.011 53.7782 18.1618C53.6695 18.3126 53.396 18.6963 53.1704 19.0145C52.9448 19.3327 52.1839 20.4 51.4794 21.3864C50.775 22.3727 49.9358 23.55 49.6144 24.0025L49.0303 24.8253V25.6368V26.4483H53.7672H58.5041V25.2051V23.962L56.0067 23.9469L53.5093 23.9318L54.1849 22.9773C54.5564 22.4523 55.258 21.4643 55.7438 20.7819C56.8225 19.2668 57.2996 18.5925 57.9488 17.6654L58.4479 16.9527L58.4313 16.1613L58.4147 15.3699L53.8417 15.3551L49.2686 15.3403V16.5844ZM77.4086 16.1963L75.7864 16.5776L75.7701 17.4201L75.7536 18.2624L75.2025 18.2791L74.6513 18.2957V19.4773V20.6589L75.2025 20.6755L75.7536 20.6922L75.7889 22.5723C75.8267 24.5874 75.8483 24.7495 76.1519 25.3025C76.4884 25.9155 77.0797 26.3365 77.8727 26.5276C78.667 26.719 80.3278 26.6263 81.0367 26.3509L81.2651 26.2622V25.191V24.1198L81.0715 24.16C80.305 24.3188 79.7047 24.2922 79.4193 24.0868C79.1583 23.8992 79.1271 23.6919 79.1234 22.1255L79.1201 20.6662L80.0288 20.6503L80.9374 20.6343L80.997 19.4641L81.0566 18.2939L80.1032 18.2782L79.1499 18.2624L79.1338 17.0331C79.125 16.357 79.0982 15.8063 79.0742 15.8094C79.0503 15.8125 78.3008 15.9866 77.4086 16.1963ZM118.641 16.1972L117.018 16.577L117.002 17.4197L116.986 18.2624L116.434 18.2791L115.883 18.2957V19.4795V20.6632H116.449H117.015V22.3358C117.015 24.6153 117.131 25.1428 117.777 25.7998C118.147 26.1754 118.499 26.3653 119.102 26.5134C119.535 26.6198 119.717 26.6315 120.556 26.6069C121.333 26.5842 121.604 26.5528 121.991 26.4413L122.467 26.3037L122.484 25.2124L122.5 24.1211L122.335 24.1627C121.724 24.3164 120.982 24.292 120.693 24.1087C120.404 23.9246 120.384 23.8059 120.364 22.1818L120.345 20.6632H121.264H122.184L122.223 19.8389C122.244 19.3854 122.278 18.8524 122.297 18.6544L122.332 18.2943L121.357 18.2783L120.382 18.2624L120.366 17.0331C120.357 16.357 120.33 15.8068 120.306 15.8106C120.282 15.8144 119.533 15.9883 118.641 16.1972ZM62.8239 18.1554C62.7256 18.17 62.4173 18.248 62.1387 18.3287C60.6388 18.7632 59.7269 19.7714 59.4254 21.3285C59.2866 22.0455 59.3296 23.1873 59.5169 23.7582C59.948 25.0722 60.7826 25.8802 62.1685 26.3256C62.9726 26.584 63.5237 26.6411 64.8691 26.6052C66.1034 26.5723 66.7632 26.4738 67.4566 26.2189L67.7992 26.0929V25.1136C67.7992 24.575 67.7924 24.1346 67.7843 24.135C67.7761 24.1354 67.5951 24.1889 67.3821 24.254C66.529 24.5144 64.9555 24.6199 64.0454 24.4779C63.5675 24.4033 63.0667 24.1876 62.804 23.9431C62.6065 23.7595 62.4366 23.5013 62.4366 23.3851C62.4366 23.3435 63.3575 23.3244 65.3562 23.3244H68.2758V22.3736C68.2758 21.0118 68.123 20.4014 67.5946 19.6528C67.1579 19.0344 66.4117 18.5537 65.4754 18.2879C65.108 18.1836 64.8485 18.1582 64.0156 18.145C63.4585 18.1361 62.9222 18.1408 62.8239 18.1554ZM85.1977 18.1544C83.8623 18.321 82.7941 18.9238 82.3821 19.7433C81.9942 20.5149 81.96 21.6484 82.3027 22.3751C82.4734 22.7373 82.7934 23.0909 83.1465 23.3075C83.2914 23.3963 83.41 23.4859 83.41 23.5067C83.4101 23.5275 83.3364 23.5701 83.2463 23.6015C82.9852 23.6925 82.5911 23.9988 82.4287 24.2371C82.2099 24.5581 82.1292 25.0185 82.2186 25.4363C82.2798 25.7229 82.3374 25.8193 82.599 26.0733C83.1547 26.6128 83.8307 26.7376 86.1981 26.7376C87.693 26.7376 87.8889 26.7599 87.9594 26.9384C88.1185 27.3409 87.2482 27.5307 85.5254 27.4694C84.289 27.4253 82.9532 27.2452 82.4419 27.0535C82.345 27.0172 82.3376 27.0878 82.3376 28.0574V29.1005L82.5313 29.1614C83.1409 29.3531 84.7687 29.5139 86.1033 29.5142C88.1589 29.5146 89.547 29.1584 90.2861 28.4408C91.3176 27.4393 90.993 25.5712 89.6828 24.9695C89.1185 24.7102 88.6903 24.657 87.1604 24.6559C85.6148 24.6548 85.5291 24.6377 85.5649 24.3368C85.5792 24.2168 85.6445 24.135 85.7935 24.0503C85.983 23.9426 86.1078 23.9312 87.1639 23.9249C88.0489 23.9197 88.4099 23.8951 88.6785 23.8219C89.954 23.474 90.6172 22.6156 90.626 21.3009C90.6283 20.9601 90.5978 20.7763 90.5053 20.5732C90.4372 20.4237 90.3814 20.2917 90.3814 20.2799C90.3814 20.268 90.6186 20.2583 90.9085 20.2583H91.4357L91.4746 19.555C91.496 19.1682 91.5135 18.7256 91.5135 18.5715V18.2914L89.8899 18.29C88.9839 18.2892 88.1609 18.2624 88.0279 18.2295C87.7796 18.1678 85.5615 18.109 85.1977 18.1544ZM95.5508 18.1776C94.2421 18.3915 93.1732 19.118 92.6547 20.1459C92.3071 20.8352 92.2205 21.2032 92.1853 22.14C92.147 23.156 92.2425 23.6576 92.6162 24.404C93.1837 25.5377 94.2583 26.249 95.841 26.5387C96.272 26.6176 96.6007 26.6297 97.6209 26.6043C98.9401 26.5714 99.5799 26.4789 100.287 26.2189L100.63 26.0929V25.1136C100.63 24.575 100.623 24.1346 100.615 24.135C100.607 24.1354 100.426 24.1889 100.213 24.254C99.3597 24.5144 97.7862 24.6199 96.8761 24.4779C96.3982 24.4033 95.8974 24.1876 95.6346 23.9431C95.4372 23.7595 95.2673 23.5013 95.2673 23.3851C95.2673 23.3435 96.1882 23.3244 98.1869 23.3244H101.107V22.3963C101.107 21.2681 101.012 20.7523 100.687 20.1036C100.174 19.0804 99.1334 18.3941 97.7698 18.1796C97.3274 18.11 95.9718 18.1088 95.5508 18.1776ZM110.193 18.1783C109.273 18.3165 108.585 18.6111 108.114 19.0684C107.645 19.524 107.515 19.8766 107.513 20.6922C107.512 21.2635 107.529 21.3626 107.673 21.6623C108.055 22.4559 108.804 22.8794 110.915 23.4957C111.247 23.5925 111.589 23.7256 111.675 23.7915C111.876 23.9455 111.88 24.1587 111.683 24.2841C111.555 24.3654 111.389 24.375 110.506 24.352C109.447 24.3244 108.797 24.2213 108.03 23.9595C107.846 23.8965 107.674 23.845 107.648 23.845C107.622 23.845 107.601 24.3647 107.601 24.9998V26.1546L107.908 26.243C108.373 26.377 109.002 26.4949 109.648 26.5689C110.415 26.6567 112.373 26.6047 112.934 26.4817C113.499 26.3578 114.294 25.9701 114.607 25.6654C115.139 25.1497 115.369 24.3911 115.239 23.5822C115.048 22.3883 114.502 21.9737 112.278 21.3335C111.395 21.0791 111.117 20.9755 111.012 20.8609C110.908 20.7476 110.891 20.6897 110.937 20.6065C111.035 20.4296 111.371 20.3649 112.204 20.3628C113.035 20.3607 113.758 20.4607 114.356 20.6605L114.692 20.7727V19.6246V18.4765L114.26 18.3864C114.022 18.3368 113.667 18.2665 113.47 18.2301C113.011 18.1453 110.661 18.1081 110.193 18.1783ZM69.4436 18.5083C69.3845 18.8811 69.2366 20.1013 69.2176 20.374L69.1994 20.6343L69.8101 20.6508L70.4209 20.6673V23.5578V26.4483H72.0892H73.7576V22.3698V18.2914H71.6178H69.478L69.4436 18.5083ZM101.914 18.4215C101.854 18.6984 101.654 20.5764 101.681 20.6186C101.697 20.6432 101.976 20.6632 102.302 20.6632H102.894V23.5558V26.4483H104.562H106.231V22.3698V18.2914H104.087H101.943L101.914 18.4215ZM86.865 19.9151C87.5661 20.0255 87.8654 20.4195 87.8048 21.1524C87.7669 21.6105 87.6265 21.8574 87.3129 22.0171C87.1148 22.1179 86.9688 22.1384 86.4489 22.1384C85.9222 22.1384 85.7807 22.1181 85.5538 22.0095C85.1609 21.8215 85.0487 21.606 85.0487 21.0393C85.0487 20.3296 85.2975 20.0209 85.9561 19.9134C86.3622 19.847 86.4341 19.8472 86.865 19.9151ZM64.82 20.3389C64.9675 20.4097 65.1467 20.552 65.2182 20.6551C65.3503 20.8453 65.4613 21.4127 65.3888 21.5266C65.3623 21.5682 64.8678 21.5888 63.8929 21.5888H62.4366V21.3556C62.4366 20.9381 62.6866 20.5203 63.0446 20.3394C63.4724 20.1234 64.3703 20.1231 64.82 20.3389ZM97.4617 20.2593C97.8163 20.3487 98.056 20.5772 98.1602 20.9251C98.2121 21.0985 98.246 21.3123 98.2357 21.4001L98.2167 21.5599L96.761 21.5754C95.9603 21.584 95.2857 21.571 95.2618 21.5465C95.1851 21.4679 95.3178 20.8858 95.4576 20.6877C95.7835 20.2259 96.6201 20.0471 97.4617 20.2593Z" fill="white"/>
<path d="M39.5 20.9603H7.52837C7.60513 22.2559 7.83618 23.5099 8.20341 24.7044L21.9626 24.7042L22.8236 23.5202H39.1395C39.3262 22.6895 39.4482 21.8344 39.5 20.9603Z" fill="white"/>
<path d="M38.0956 26.6244H8.93272C9.55302 27.9852 10.3585 29.2439 11.3171 30.3685L17.8438 30.3683L18.7047 29.1843H36.6289C37.1928 28.382 37.6848 27.5256 38.0956 26.6244Z" fill="white"/>
<path d="M33.7705 32.2885H13.2578C16.036 34.6057 19.6121 36 23.5142 36C27.4162 36 30.9923 34.6057 33.7705 32.2885Z" fill="white"/>
<path d="M7.52833 19.0403C7.60504 17.7448 7.83603 16.4908 8.20321 15.2963H38.8251C39.0793 16.123 39.2682 16.9783 39.3858 17.8562H26.9424L26.0814 19.0402L7.52833 19.0403Z" fill="white"/>
<path d="M30.2002 13.3761L31.0612 12.1921H37.4954C36.984 11.28 36.3859 10.4231 35.712 9.6325H11.3163C10.3579 10.757 9.55259 12.0156 8.93242 13.3763L30.2002 13.3761Z" fill="white"/>
<path d="M13.2567 7.7125H33.7717C30.9933 5.39473 27.4167 4 23.5142 4C19.6116 4 16.0351 5.39473 13.2567 7.7125Z" fill="white"/>
<path d="M7.50015 19.9303C7.50005 19.9535 7.5 19.9768 7.5 20C7.5 20.0232 7.50005 20.0465 7.50015 20.0697V19.9303Z" fill="white"/>
</svg>
