<svg width="130" height="40" viewBox="0 0 130 40" fill="none" xmlns="http://www.w3.org/2000/svg">
<path d="M35.8236 19.2291L33.6586 17.2441L31.5602 19.5332C30.7638 20.4017 29.6051 20.8446 28.4329 20.7287L27.8831 20.6744C27.1014 20.5972 26.3291 20.8924 25.7983 21.4714L17.4888 30.5353L19.6539 32.5203L29.1375 22.1755C29.7501 21.5075 30.6766 21.224 31.5579 21.435L31.9696 21.5335C32.8512 21.7446 33.7777 21.461 34.39 20.793L35.8236 19.2291Z" fill="url(#paint0_linear_12601_62278)"/>
<path d="M31.1694 14.9625L29.0044 12.9775L24.7003 17.6723C23.904 18.5408 22.7455 18.9837 21.573 18.8678L21.0234 18.8135C20.2417 18.7363 19.4693 19.0315 18.9385 19.6105L12.8345 26.2686L14.9996 28.2536L22.2779 20.3146C22.8903 19.6466 23.8168 19.3631 24.6981 19.5741L25.1098 19.6726C25.9914 19.8835 26.9178 19.6001 27.5302 18.932L31.1694 14.9625Z" fill="url(#paint1_linear_12601_62278)"/>
<path d="M26.515 10.6968L24.35 8.71191L17.8405 15.8124C17.0443 16.6808 15.8857 17.1237 14.7132 17.0079L14.1636 16.9536C13.3819 16.8763 12.6095 17.1716 12.0788 17.7506L8.18018 22.0029L10.3453 23.9879L15.4181 18.4547C16.0305 17.7867 16.957 17.5032 17.8383 17.7141L18.2502 17.8127C19.1315 18.0236 20.058 17.7401 20.6704 17.0721L26.515 10.6968Z" fill="url(#paint2_linear_12601_62278)"/>
<path d="M21.8613 6.43023L19.6962 4.44531L10.9812 13.9514C10.185 14.8199 9.02642 15.2628 7.85394 15.1469L7.30434 15.0926C6.52268 15.0154 5.75028 15.3107 5.21949 15.8896L3.52637 17.7365L5.69147 19.7214L8.55879 16.5938C9.17121 15.9257 10.0977 15.6422 10.979 15.8532L11.3909 15.9518C12.2723 16.1627 13.1987 15.8792 13.8112 15.2112L21.8613 6.43023Z" fill="url(#paint3_linear_12601_62278)"/>
<path d="M54.7205 15.7368L54.6955 28.25H57.4733L57.4984 15.7368H54.7205Z" fill="white"/>
<path d="M54.9206 12.884C55.2545 13.2009 55.6464 13.3594 56.0971 13.3594C56.5475 13.3594 56.9313 13.2009 57.2482 12.884C57.5818 12.5503 57.7488 12.1581 57.7488 11.7078C57.7488 11.2572 57.5818 10.8736 57.2482 10.5564C56.9313 10.2395 56.5475 10.0811 56.0971 10.0811C55.6464 10.0811 55.2545 10.2395 54.9206 10.5564C54.6037 10.8736 54.4451 11.2572 54.4451 11.7078C54.4451 12.1581 54.6037 12.5503 54.9206 12.884Z" fill="white"/>
<path d="M42.0254 10.7317V28.25H52.8617V25.5972H44.9287V10.7317H42.0254Z" fill="white"/>
<path d="M65.2563 28.5504C63.9385 28.5504 62.9291 28.2252 62.2284 27.5742C61.5442 26.9068 61.2022 25.956 61.2022 24.7214V18.1394H59.125V15.7371H61.2022V11.8329H63.9803V15.7371H67.3586V18.1394H63.9803V24.1959C63.9803 24.7795 64.1138 25.2219 64.3807 25.5222C64.6643 25.8224 65.0729 25.9728 65.6068 25.9728C65.7736 25.9728 65.9573 25.9392 66.1574 25.8725C66.2009 25.8582 66.2456 25.8408 66.2914 25.821C66.3193 25.8089 66.3475 25.7956 66.3762 25.7813C66.4021 25.7686 66.4283 25.7551 66.4549 25.7408C66.5739 25.676 66.7 25.595 66.8332 25.4974L67.8594 27.6244C67.4253 27.9248 66.9916 28.1499 66.5578 28.3001C66.1242 28.4669 65.6904 28.5504 65.2563 28.5504Z" fill="white"/>
<path fill-rule="evenodd" clip-rule="evenodd" d="M71.4741 27.7244C72.4251 28.275 73.5095 28.5504 74.7272 28.5504C75.6615 28.5504 76.5043 28.417 77.2548 28.1499C78.0058 27.8832 78.648 27.4993 79.182 26.9988C79.7159 26.4984 80.1581 25.9144 80.5084 25.2469L77.9307 24.146C77.6638 24.6798 77.2884 25.1218 76.8045 25.4721C76.3207 25.8058 75.7118 25.9728 74.9775 25.9728C74.3101 25.9728 73.7012 25.8224 73.1506 25.5222C72.6169 25.2053 72.1914 24.7547 71.8745 24.1708C71.6379 23.7351 71.4898 23.2346 71.4297 22.6691H80.7586C80.7586 21.1678 80.4917 19.8747 79.9577 18.7903C79.4405 17.7059 78.7317 16.88 77.8305 16.3125C76.9298 15.7286 75.9286 15.4367 74.8273 15.4367C73.5762 15.4367 72.475 15.7203 71.5241 16.2877C70.573 16.8381 69.8223 17.6056 69.2717 18.59C68.7213 19.5743 68.4458 20.7089 68.4458 21.9937C68.4458 23.2782 68.7127 24.4127 69.2467 25.3971C69.7806 26.3815 70.523 27.1573 71.4741 27.7244ZM77.6566 20.2886L77.6405 20.2363C77.6139 20.1522 77.5855 20.0707 77.5553 19.9916C77.3051 19.2908 76.9379 18.7735 76.4543 18.4398C75.9703 18.0895 75.3946 17.9142 74.7272 17.9142C74.0265 17.9142 73.426 18.0727 72.9254 18.3899C72.4418 18.7068 72.0661 19.1739 71.7994 19.7912C71.7108 19.9907 71.6369 20.2076 71.5777 20.4419H77.7004L77.6749 20.3501L77.6566 20.2886Z" fill="white"/>
<path d="M82.2983 15.7371H84.9261L85.0585 17.4769C85.3896 16.942 85.796 16.5121 86.2775 16.1874C86.9949 15.687 87.8458 15.4367 88.83 15.4367C90.3482 15.4367 91.5162 15.9038 92.3338 16.8381C93.1679 17.7558 93.585 19.1739 93.585 21.0925V28.2502H90.7822V21.8435C90.7822 20.8423 90.6654 20.0748 90.4317 19.541C90.2148 18.9904 89.8979 18.6068 89.4808 18.3899C89.0804 18.173 88.6048 18.0644 88.0542 18.0644C87.1199 18.0479 86.3944 18.3565 85.8771 18.9904C85.3599 19.6245 85.1014 20.5336 85.1014 21.7181V28.2502H82.2983V15.7371Z" fill="white"/>
<path d="M97.6255 27.5742C98.3262 28.2252 99.3356 28.5504 100.654 28.5504C101.088 28.5504 101.521 28.4669 101.955 28.3001C102.389 28.1499 102.823 27.9248 103.256 27.6244L102.23 25.4974C102.042 25.6358 101.867 25.7408 101.707 25.813C101.654 25.8364 101.604 25.8563 101.554 25.8725C101.354 25.9392 101.171 25.9728 101.004 25.9728C100.47 25.9728 100.061 25.8224 99.7778 25.5222C99.5109 25.2219 99.3774 24.7795 99.3774 24.1959V18.1394H102.756V15.7371H99.3774V11.8329H96.5994V15.7371H94.5224V18.1394H96.5994V24.7214C96.5994 25.956 96.9414 26.9068 97.6255 27.5742Z" fill="white"/>
<path d="M107.447 28.2502V21.5431C107.447 20.7756 107.655 20.1583 108.072 19.6912C108.489 19.2241 109.031 18.8903 109.699 18.69C110.383 18.4731 111.109 18.3648 111.876 18.3648V15.687C110.975 15.687 110.108 15.9038 109.274 16.3376C108.546 16.7091 107.937 17.2589 107.447 17.9878V15.7371H104.644V28.2502H107.447Z" fill="white"/>
<path d="M114.862 33.3301C115.362 33.4803 115.813 33.5552 116.213 33.5552C117.047 33.5552 117.731 33.3885 118.265 33.055C118.799 32.7378 119.241 32.2793 119.591 31.6785C119.959 31.0777 120.317 30.3772 120.667 29.5763L126.474 15.7368H123.42L119.713 24.9934L115.888 15.7368H112.835L118.397 28.1541L117.715 29.7516C117.548 30.152 117.322 30.4522 117.039 30.6522C116.772 30.8694 116.438 30.9777 116.038 30.9777C115.871 30.9777 115.654 30.9278 115.387 30.8275C115.12 30.744 114.828 30.6274 114.511 30.477L113.46 32.7546C113.911 32.9881 114.378 33.1799 114.862 33.3301Z" fill="white"/>
<defs>
<linearGradient id="paint0_linear_12601_62278" x1="33.6586" y1="17.2441" x2="19.6539" y2="32.5203" gradientUnits="userSpaceOnUse">
<stop offset="0.209652" stop-color="#C1C1C1"/>
<stop offset="0.335908" stop-color="#E7E7E7"/>
</linearGradient>
<linearGradient id="paint1_linear_12601_62278" x1="29.0044" y1="12.9775" x2="14.9996" y2="28.2536" gradientUnits="userSpaceOnUse">
<stop offset="0.321604" stop-color="#B2B2B2"/>
<stop offset="0.506424" stop-color="#E1E1E1"/>
</linearGradient>
<linearGradient id="paint2_linear_12601_62278" x1="24.35" y1="8.71191" x2="10.3453" y2="23.9879" gradientUnits="userSpaceOnUse">
<stop offset="0.501239" stop-color="#B0B0B0"/>
<stop offset="0.641372" stop-color="#D9D9D9"/>
</linearGradient>
<linearGradient id="paint3_linear_12601_62278" x1="19.6962" y1="4.44531" x2="5.69147" y2="19.7214" gradientUnits="userSpaceOnUse">
<stop offset="0.649631" stop-color="#9F9F9F"/>
<stop offset="0.796711" stop-color="#C1C1C1"/>
</linearGradient>
</defs>
</svg>
