<svg width="130" height="40" viewBox="0 0 130 40" fill="none" xmlns="http://www.w3.org/2000/svg">
<path d="M34.4561 33H11.0297C10.9182 32.9996 10.8089 32.9678 10.7138 32.9081L2.24441 27.568C2.13302 27.4977 2.04711 27.3922 1.9997 27.2676C1.95229 27.1429 1.94596 27.0059 1.98167 26.8773C2.01738 26.7486 2.09319 26.6353 2.1976 26.5547C2.30201 26.474 2.42934 26.4302 2.56029 26.4301H25.99C26.1019 26.4304 26.2115 26.4622 26.3069 26.5219L34.772 31.8587C34.8849 31.9283 34.9724 32.0339 35.0209 32.1593C35.0693 32.2846 35.0761 32.4227 35.0403 32.5524C35.0044 32.682 34.9278 32.7961 34.8222 32.8769C34.7167 32.9578 34.5881 33.001 34.4561 33ZM11.1964 31.768H32.3349L25.82 27.6609H4.68039L11.1964 31.768Z" fill="white"/>
<path d="M9.56758 11.5666C9.45599 11.5664 9.34665 11.5346 9.2517 11.4747L0.785563 6.13792C0.674096 6.06757 0.588146 5.962 0.540756 5.83725C0.493366 5.71249 0.487123 5.57536 0.522975 5.44665C0.558827 5.31794 0.634816 5.20469 0.739411 5.12409C0.844006 5.04348 0.971497 4.99991 1.10254 5H24.5322C24.6442 4.99998 24.7539 5.03178 24.8492 5.09184L33.3142 10.4286C33.4256 10.4989 33.5115 10.6044 33.5589 10.729C33.6063 10.8537 33.6127 10.9907 33.577 11.1194C33.5413 11.248 33.4654 11.3613 33.361 11.442C33.2566 11.5227 33.1293 11.5664 32.9984 11.5666H9.56758ZM9.73868 10.3346H30.8815L24.3611 6.232H3.22264L9.73868 10.3346Z" fill="white"/>
<path d="M21.0105 16.3299C20.323 15.6374 19.3955 15.2502 18.4298 15.2525H18.3914C17.4128 15.2574 16.4763 15.659 15.7877 16.3691C15.0992 17.0791 14.7151 18.0394 14.7199 19.0386C14.7247 20.0379 15.118 20.9943 15.8133 21.6974C16.5087 22.4005 17.449 22.7927 18.4276 22.7878H18.4649C19.1945 22.7803 19.9056 22.552 20.5082 22.1318C21.1108 21.7117 21.5778 21.1185 21.8503 20.4272C22.1228 19.736 22.1884 18.9778 22.0389 18.2485C21.8895 17.5192 21.5316 16.8515 21.0105 16.3299Z" fill="white"/>
<path d="M42.0742 14.6455H44.536V24.7378H42.0742V14.6455Z" fill="white"/>
<path d="M48.7401 14.6455H52.2826L56.1515 21.4208H56.1663L56.0921 14.6455H58.4031V24.7378H55.4962L51.0077 16.9094H50.9929L51.0523 24.7277H48.7401V14.6455Z" fill="white"/>
<path d="M64.9403 16.6228H62.1335V14.6455H70.1941V16.6228H67.4034V24.7378H64.9403V16.6228Z" fill="white"/>
<path d="M73.9196 14.6455H80.9143V16.6228H76.3814V18.8955H79.8918V20.4284H76.3814V22.7579H81.0504V24.7378H73.9196V14.6455Z" fill="white"/>
<path d="M84.85 14.6455H89.4584C92.0711 14.6455 93.4819 15.7491 93.4819 17.6493C93.4819 18.9372 92.9416 19.7503 92.0105 20.0256V20.0559C92.9861 20.2857 93.4213 21.0837 93.4213 22.2175V24.7378H90.9595V22.3009C90.9595 21.3817 90.6293 20.9827 89.6983 20.9827H87.3106V24.7378H84.85V14.6455ZM89.5635 19.4587C90.5997 19.4587 91.1252 18.9839 91.1252 18.0483C91.1252 17.1645 90.5848 16.6228 89.4436 16.6228H87.3106V19.4587H89.5635Z" fill="white"/>
<path d="M97.5363 14.6455H99.9981V22.7542H104.498V24.7378H97.5363V14.6455Z" fill="white"/>
<path d="M114.966 22.6771H111.019L110.342 24.7378H107.82L111.635 14.6518H114.696L118.508 24.7378H115.642L114.966 22.6771ZM114.456 21.114L113 16.6948H112.97L111.528 21.114H114.456Z" fill="white"/>
<path d="M123.135 20.869L119.248 14.6455H122.414L124.575 18.6304H124.62L126.754 14.6455H129.5L125.598 20.869V24.7378H123.136L123.135 20.869Z" fill="white"/>
</svg>
