<svg width="24" height="24" viewBox="0 0 24 24" fill="none" xmlns="http://www.w3.org/2000/svg">
<path d="M12 22.5C17.799 22.5 22.5 17.799 22.5 12C22.5 6.20101 17.799 1.5 12 1.5C6.20101 1.5 1.5 6.20101 1.5 12C1.5 17.799 6.20101 22.5 12 22.5Z" fill="url(#paint0_linear_20200_40332)"/>
<path d="M16.6513 15.0293H14.0991L13.6196 13.806H10.3803L9.90083 15.0293H7.34863L10.4029 7.75665H13.5932L16.6513 15.0293ZM12.0037 9.64682L11.158 11.8172H12.8457L12.0037 9.64682Z" fill="white"/>
<path d="M13.701 4.44044C13.701 5.37988 12.9395 6.14144 12 6.14144C11.0606 6.14144 10.299 5.37988 10.299 4.44044C10.299 3.501 11.0606 2.73944 12 2.73944C12.9395 2.73944 13.701 3.501 13.701 4.44044Z" fill="white"/>
<path d="M13.701 19.5604C13.701 20.4999 12.9395 21.2614 12 21.2614C11.0606 21.2614 10.299 20.4999 10.299 19.5604C10.299 18.621 11.0606 17.8594 12 17.8594C12.9395 17.8594 13.701 18.621 13.701 19.5604Z" fill="white"/>
<path d="M19.3976 9.69404C18.584 10.1638 17.5437 9.88501 17.0739 9.07143C16.6042 8.25786 16.883 7.21754 17.6966 6.74782C18.5101 6.27811 19.5504 6.55686 20.0202 7.37043C20.4899 8.18401 20.2111 9.22432 19.3976 9.69404Z" fill="white"/>
<path d="M6.30325 17.254C5.48968 17.7238 4.44936 17.445 3.97964 16.6314C3.50993 15.8179 3.78868 14.7775 4.60225 14.3078C5.41583 13.8381 6.45614 14.1169 6.92586 14.9304C7.39558 15.744 7.11683 16.7843 6.30325 17.254Z" fill="white"/>
<path d="M4.60225 9.69403C5.41582 10.1638 6.45614 9.885 6.92586 9.07143C7.39558 8.25785 7.11682 7.21753 6.30325 6.74782C5.48967 6.2781 4.44936 6.55685 3.97964 7.37043C3.50992 8.184 3.78867 9.22432 4.60225 9.69403Z" fill="white"/>
<path d="M17.6966 17.254C18.5101 17.7238 19.5504 17.445 20.0202 16.6314C20.4899 15.8178 20.2111 14.7775 19.3976 14.3078C18.584 13.8381 17.5437 14.1168 17.0739 14.9304C16.6042 15.744 16.883 16.7843 17.6966 17.254Z" fill="white"/>
<defs>
<linearGradient id="paint0_linear_20200_40332" x1="22.5" y1="12" x2="1.5" y2="12" gradientUnits="userSpaceOnUse">
<stop stop-color="#E9176D"/>
<stop offset="1" stop-color="#F68728"/>
</linearGradient>
</defs>
</svg>
