<svg width="24" height="24" viewBox="0 0 24 24" fill="none" xmlns="http://www.w3.org/2000/svg">
<g clip-path="url(#clip0_18955_226099)">
<path d="M12 22.4999C17.7989 22.4999 22.4999 17.7989 22.4999 12C22.4999 6.20099 17.7989 1.5 12 1.5C6.20099 1.5 1.5 6.20099 1.5 12C1.5 17.7989 6.20099 22.4999 12 22.4999Z" fill="#E6007A"/>
<path d="M12 22.4999C17.7989 22.4999 22.4999 17.7989 22.4999 12C22.4999 6.20099 17.7989 1.5 12 1.5C6.20099 1.5 1.5 6.20099 1.5 12C1.5 17.7989 6.20099 22.4999 12 22.4999Z" fill="url(#paint0_linear_18955_226099)"/>
<path fill-rule="evenodd" clip-rule="evenodd" d="M1.52473 12.7382C1.53142 12.8345 1.53941 12.9304 1.54868 13.0259C1.55917 13.1341 1.57131 13.2418 1.58506 13.349C1.71788 14.3841 2.00142 15.3721 2.41298 16.2903C2.39295 16.1808 2.37062 16.0731 2.34784 15.9682C2.30099 15.7459 2.23084 15.4835 2.15442 15.1978C1.99945 14.6182 1.81871 13.9423 1.75441 13.3087C1.86132 13.2842 1.9686 13.2614 2.07621 13.2403C4.15714 15.1395 6.2113 17.0679 8.23861 19.0252C7.97633 19.8367 7.69908 20.6434 7.40697 21.4449C7.50647 21.4934 7.60684 21.5404 7.70807 21.5857C7.9873 20.8231 8.25327 20.0555 8.50584 19.2835C8.89911 19.6641 9.29137 20.0458 9.68262 20.4286C10.3837 21.115 11.0815 21.8047 11.7761 22.4976C11.8505 22.4991 11.925 22.4999 11.9997 22.4999C12.0865 22.4999 12.1731 22.4989 12.2594 22.4968C11.057 21.296 9.8446 20.1049 8.62247 18.9237C9.02653 17.6658 9.39506 16.3965 9.72736 15.1183C10.4575 17.1531 11.7816 18.8927 13.9916 19.6187C15.5845 20.1428 17.3165 20.1089 18.9632 19.859C19.0965 19.7408 19.2268 19.6193 19.3539 19.4945C18.6019 19.6149 17.848 19.6859 17.1015 19.703C15.3532 19.7424 13.5209 19.3994 12.1425 18.2518C11.0651 17.3576 10.3721 16.1088 9.94057 14.7843C9.97031 14.7966 10.0001 14.8087 10.03 14.8207C11.4813 15.4001 12.955 15.2256 14.2046 14.2751C14.9909 13.6765 15.5631 12.9457 16.0258 12.1459C17.0459 12.1529 18.0661 12.1399 19.0855 12.107C18.7268 12.9799 18.3976 13.9305 18.8665 14.7532C19.0736 15.1123 19.3717 15.416 19.6612 15.7107C19.7162 15.7668 19.7709 15.8225 19.8246 15.8782C20.2449 16.3151 20.6651 16.7475 21.1013 17.1674C21.0239 17.3213 20.9455 17.4747 20.8661 17.6275C20.9568 17.485 21.0441 17.3401 21.128 17.193C21.1863 17.0907 21.243 16.9873 21.298 16.8828C21.3298 16.8223 21.3611 16.7613 21.3919 16.7001C21.5195 16.4456 21.6371 16.1852 21.7441 15.9194C21.8109 15.7536 21.8735 15.5856 21.932 15.4157C21.8701 15.5545 21.8075 15.6929 21.7441 15.831C21.747 14.5301 21.8463 13.2328 22.0711 11.9535C22.2141 11.9434 22.357 11.9329 22.4999 11.9221C22.4991 11.8115 22.4966 11.7013 22.4924 11.5916C22.3727 11.6007 22.2529 11.6094 22.1331 11.6179C22.2071 11.2354 22.2927 10.8546 22.3905 10.476C22.3519 10.2104 22.3033 9.94795 22.2452 9.68916C22.0524 10.3314 21.8951 10.9833 21.7703 11.6428C21.0446 11.6907 20.3183 11.7285 19.5916 11.7562C20.2247 9.98179 20.7925 8.16286 20.8099 6.28396C20.6994 6.11403 20.5842 5.9475 20.4643 5.78456C20.4815 6.12818 20.479 6.47167 20.4579 6.81087C20.3626 8.30709 19.9536 9.76392 19.4604 11.1701C19.3938 11.3616 19.3119 11.5623 19.2259 11.7693C18.2213 11.8028 17.2161 11.8169 16.211 11.8118C16.6098 11.0617 16.9285 10.2608 17.2479 9.45805C17.7232 8.26365 18.2002 7.06511 18.9449 6.02339C19.0203 5.91798 19.0984 5.81644 19.179 5.71848C19.5692 5.69038 19.9593 5.66127 20.3494 5.63121C20.2674 5.52381 20.1833 5.41804 20.0973 5.31396C19.8985 5.3291 19.6996 5.34399 19.5008 5.35862C19.6136 5.24238 19.7302 5.1316 19.8501 5.02565C19.781 4.94792 19.7108 4.87122 19.6394 4.79558C19.6226 4.81101 19.606 4.82654 19.5893 4.84217C19.4059 5.01466 19.235 5.19778 19.0749 5.38952C16.8392 5.54965 14.5997 5.67589 12.3588 5.75783C12.3494 5.40876 12.3047 5.06838 12.2153 4.74655C12.1085 4.36588 11.9225 4.0613 11.6815 3.82631C11.751 3.05203 11.8078 2.27645 11.8516 1.5C11.7372 1.50158 11.6233 1.50499 11.5098 1.5102C11.4707 2.19879 11.4214 2.88672 11.3619 3.57369C11.1272 3.42414 10.8612 3.32109 10.578 3.26079C10.5895 3.23102 10.6011 3.20128 10.6128 3.17159C10.8355 2.60741 11.0871 2.05666 11.3636 1.51793C11.2328 1.52574 11.1026 1.53595 10.9731 1.54851C10.7048 2.09107 10.4621 2.6457 10.2456 3.2101C10.0379 3.19027 9.82435 3.191 9.60977 3.21096C8.40369 3.32447 7.25306 3.84357 6.14457 4.34367C6.03687 4.39225 5.92956 4.44066 5.82264 4.48851C5.73989 4.22239 5.65992 3.95531 5.58243 3.68742C5.48398 3.76353 5.38693 3.84135 5.29131 3.92084C5.36094 4.15732 5.43263 4.39319 5.50655 4.62839C4.95556 4.8688 4.4065 5.11503 3.85937 5.36598C3.73668 5.51636 3.61808 5.67019 3.50373 5.82733C3.47056 5.87291 3.43775 5.91876 3.4053 5.96489C3.361 6.02786 3.31738 6.09134 3.27444 6.15531C4.19543 6.17886 5.11677 6.19254 6.03821 6.19709C6.29236 6.89293 6.5699 7.58173 6.87534 8.26208C7.20594 9.00457 7.57016 9.73017 7.9736 10.4333C8.18479 10.8054 8.43244 11.2007 8.8058 11.407C7.45203 11.2598 6.10267 11.0799 4.74924 10.8995C4.58202 10.8772 4.41474 10.8549 4.24738 10.8327C3.42369 10.7258 2.51594 10.7314 1.90518 11.3895C1.70224 11.6058 1.57436 11.8614 1.5 12.1348C1.50051 12.175 1.50124 12.2151 1.5022 12.2552C1.50607 12.4172 1.51361 12.5782 1.52473 12.7382ZM1.73078 12.9255C1.73111 12.9444 1.73157 12.9633 1.73217 12.9822C1.74842 12.9785 1.76468 12.9748 1.78095 12.9712C1.76423 12.956 1.7475 12.9408 1.73078 12.9255ZM2.19581 12.8865C2.04815 12.7517 1.90037 12.6171 1.75245 12.4825C1.84473 11.7491 2.24094 11.1925 3.24998 11.1139C3.70825 11.076 4.17448 11.154 4.62853 11.23C4.713 11.2441 4.79705 11.2582 4.88055 11.2714C5.49692 11.367 6.11329 11.4514 6.72965 11.5301C7.4936 11.6281 8.25958 11.7139 9.02757 11.7875C9.09688 12.5757 9.22569 13.3748 9.42843 14.1492C9.29936 14.0885 9.17102 14.0273 9.043 13.9663C8.2051 13.5669 7.38091 13.174 6.4551 12.9589C5.07274 12.6409 3.6106 12.6258 2.19581 12.8865ZM2.50135 13.1659C4.47593 14.9735 6.42709 16.8067 8.35406 18.6646C8.78064 17.3198 9.16622 15.9622 9.51034 14.5943C9.28392 14.4889 9.06028 14.3774 8.83673 14.266C8.43088 14.0637 8.02529 13.8615 7.60377 13.6957C6.86414 13.4032 6.08527 13.212 5.3008 13.1164C4.37245 13.0042 3.42771 13.0231 2.50135 13.1659ZM9.68662 13.8776C9.84573 13.2157 9.99517 12.5514 10.1349 11.8851C9.871 11.8639 9.60736 11.8412 9.34396 11.8172C9.4125 12.5128 9.5257 13.2017 9.68662 13.8776ZM9.74618 11.5034C9.89908 11.5181 10.052 11.5323 10.2051 11.5459C10.2256 11.4455 10.246 11.3451 10.2661 11.2446C10.1055 11.3622 9.93238 11.4521 9.74618 11.5034ZM10.6944 10.8387C10.647 11.0846 10.5983 11.3302 10.5483 11.5755C10.9017 11.605 11.2556 11.6313 11.6102 11.6539C13.0424 11.745 14.4775 11.797 15.913 11.8097C16.3758 10.9813 16.7337 10.0759 17.0865 9.18349C17.2641 8.73428 17.4404 8.28833 17.6281 7.8571C17.9499 7.12093 18.3216 6.39479 18.7968 5.74567C17.7072 5.82226 16.6173 5.89085 15.5269 5.95027C14.4713 6.00722 13.4147 6.05543 12.3574 6.09379C12.3221 7.13555 12.0072 8.2255 11.655 9.11145C11.4516 9.6204 11.1366 10.3193 10.6944 10.8387ZM11.9922 6.10665C11.9769 6.51037 11.9208 6.91406 11.8511 7.27774C11.7166 7.98084 11.5037 8.67271 11.2123 9.32519C11.1066 9.56407 10.9836 9.82849 10.8358 10.0825C11.0738 8.76959 11.2743 7.44962 11.4372 6.12466C11.6222 6.11896 11.8072 6.11296 11.9922 6.10665ZM11.9948 5.77076C11.982 5.23828 11.8835 4.72536 11.6349 4.32581C11.5876 4.8137 11.5352 5.30105 11.4778 5.78774C11.6501 5.78235 11.8225 5.77669 11.9948 5.77076ZM11.1333 5.79817C11.206 5.18692 11.2707 4.57468 11.3272 3.96164C11.1077 3.77045 10.8235 3.63388 10.4598 3.5736C10.1904 4.30607 9.96225 5.06188 9.77975 5.83199C10.2309 5.82264 10.6821 5.81134 11.1333 5.79817ZM9.44464 5.83857C9.62319 5.05983 9.84964 4.292 10.1224 3.54047C8.94812 3.49089 7.7736 4.01253 6.6943 4.49187C6.5108 4.57337 6.33004 4.65364 6.15251 4.72968C6.07805 4.76172 6.00364 4.79386 5.92929 4.8261C6.04088 5.17378 6.15746 5.51976 6.27968 5.86378C7.33457 5.86691 8.38964 5.85815 9.44464 5.83857ZM6.40061 6.19841C7.39063 6.20074 8.38074 6.19264 9.37062 6.17502C9.02912 7.7955 8.8944 9.45957 8.98081 11.1193C8.57235 10.9002 8.29954 10.3656 8.07964 9.93457C8.04093 9.85872 8.00387 9.78607 7.96799 9.71893C7.60377 9.03269 7.26758 8.32397 6.95939 7.60961C6.76069 7.14356 6.57503 6.67294 6.40061 6.19841ZM9.2959 11.2164C9.19199 9.53306 9.342 7.82127 9.70306 6.16874C10.1662 6.1595 10.6293 6.14819 11.0924 6.13491C10.9021 7.67023 10.6609 9.19902 10.3692 10.7181C10.1572 10.9375 9.90904 11.1083 9.61538 11.187C9.50164 11.2174 9.3954 11.2259 9.2959 11.2164ZM5.91788 5.86224C5.81244 5.56395 5.71113 5.26441 5.61361 4.96374C4.96942 5.24613 4.32926 5.53592 3.69165 5.83162C4.43357 5.84803 5.17567 5.85811 5.91788 5.86224ZM15.7181 12.1433C13.998 12.1249 12.2782 12.0499 10.5623 11.9182C10.5345 11.9162 10.5067 11.9141 10.4789 11.912C10.3673 12.4461 10.2494 12.9788 10.1253 13.5101C10.0576 13.7982 9.98806 14.086 9.91671 14.3733C11.208 14.9375 12.503 15.0155 13.7338 14.2357C14.5891 13.6943 15.2152 12.9651 15.7181 12.1433ZM19.4703 12.0936C19.4048 12.275 19.3388 12.4559 19.2731 12.6364C19.2496 12.7008 19.2261 12.7652 19.2027 12.8295C19.029 13.3076 18.8665 13.8138 19.0402 14.32C19.1523 14.652 19.382 14.9107 19.6117 15.1638C19.9871 15.5744 20.3794 15.9737 20.7716 16.3675C20.9331 16.5286 21.096 16.6888 21.2608 16.8472C21.3039 16.7597 21.3467 16.672 21.3891 16.5842C21.3556 15.0299 21.45 13.4857 21.7096 11.9782C20.9638 12.0273 20.2173 12.0658 19.4703 12.0936Z" fill="#E6007A"/>
<path d="M7.95969 16.3457H10.7006L11.5744 13.177C11.6949 12.7401 12.3093 12.7404 12.4294 13.1774L13.3002 16.3457H16.0358L18.1333 8.24316H15.565L14.9091 11.4587C14.8138 11.9257 14.157 11.9386 14.0438 11.4757L13.2531 8.24316H10.7476L9.97738 11.4958C9.8674 11.9602 9.20916 11.9512 9.11169 11.484L8.88038 10.3751C8.62122 9.13263 7.5344 8.24316 6.27544 8.24316H5.86743L7.95969 16.3457Z" fill="white"/>
</g>
<defs>
<linearGradient id="paint0_linear_18955_226099" x1="1.99896" y1="11.4" x2="36.0624" y2="11.4255" gradientUnits="userSpaceOnUse">
<stop stop-color="#F79420" stop-opacity="0.92"/>
<stop offset="1" stop-color="#C4C4C4" stop-opacity="0"/>
</linearGradient>
<clipPath id="clip0_18955_226099">
<rect width="24" height="24" fill="white"/>
</clipPath>
</defs>
</svg>
