<svg width="24" height="24" viewBox="0 0 24 24" fill="none" xmlns="http://www.w3.org/2000/svg">
<path d="M21.5 12.5702H2.51684C2.56242 13.3394 2.6996 14.084 2.91765 14.7932L11.0872 14.7931L11.5984 14.0901H21.2859C21.3968 13.5969 21.4692 13.0892 21.5 12.5702Z" fill="black"/>
<path d="M20.6661 15.9332H3.35068C3.71898 16.7412 4.19726 17.4886 4.7664 18.1563L8.6416 18.1562L9.15282 17.4532H19.7953C20.1301 16.9768 20.4222 16.4683 20.6661 15.9332Z" fill="black"/>
<path d="M18.0981 19.2963H5.9187C7.56827 20.6721 9.69157 21.5 12.0084 21.5C14.3252 21.5 16.4485 20.6721 18.0981 19.2963Z" fill="black"/>
<path d="M2.51682 11.4302C2.56237 10.661 2.69952 9.91639 2.91753 9.20716H21.0993C21.2502 9.69805 21.3623 10.2059 21.4322 10.7271H14.0439L13.5327 11.4301L2.51682 11.4302Z" fill="black"/>
<path d="M15.9783 8.06707L16.4895 7.36407H20.3098C20.0061 6.82252 19.651 6.31372 19.2509 5.8443H4.76592C4.1969 6.51195 3.71872 7.25926 3.3505 8.06716L15.9783 8.06707Z" fill="black"/>
<path d="M5.91803 4.7043H18.0988C16.4491 3.32812 14.3256 2.5 12.0084 2.5C9.69126 2.5 7.56769 3.32812 5.91803 4.7043Z" fill="black"/>
<path d="M2.50009 11.9586C2.50003 11.9724 2.5 11.9862 2.5 12C2.5 12.0138 2.50003 12.0276 2.50009 12.0414V11.9586Z" fill="black"/>
</svg>
