<svg width="24" height="24" viewBox="0 0 24 24" fill="none" xmlns="http://www.w3.org/2000/svg">
<path d="M19.0435 2H4.95646C3.32365 2 2 3.32365 2 4.95646V19.0435C2 20.6763 3.32365 22 4.95646 22H19.0435C20.6763 22 22 20.6763 22 19.0435V4.95646C22 3.32365 20.6763 2 19.0435 2Z" fill="#050506"/>
<path d="M14.7377 13.0865H11.7994L14.7121 16.4962H9.28146V13.064L6.33315 16.5154H6.33252V19.0036H17.6675V16.5154H17.6669L14.7377 13.0865Z" fill="white"/>
<path d="M6.33252 4.99609V7.48426H6.33315L9.28146 10.9356V7.46506H14.7565V7.48426H14.7285L11.7534 10.9669H14.6918L17.6669 7.48426H17.6675V4.99609H6.33252Z" fill="white"/>
</svg>
